<?xml version="1.0" encoding="UTF-8"?>
<svg id="Capa_1" data-name="Capa 1" xmlns="http://www.w3.org/2000/svg" viewBox="0 0 75.66 63.86">
  <defs>
    <style>
      .cls-1 {
        fill: #d4191e;
      }
    </style>
  </defs>
  <path class="cls-1" d="M16.92,27.17c-.39-.04-.73-.08-1.06-.11-.65-.06-1.06-.41-1.3-1.01-.26-.66-.29-.66-.71-.1-.58.78-1.12.84-2.07.55-.45-.14-.71-.55-.69-1.06.04-1.1.11-2.2.18-3.3.06-.94.14-1.89.2-2.83.08-1.25.15-2.51.25-3.76.05-.71.51-1.16,1.23-1.14,2.57.1,5.14,0,7.71.13.04,0,.08,0,.12,0,2.61.03,5.22.06,7.83.1.22,0,.39-.07.55-.23,3.35-3.51,6.72-7,10.07-10.52,2.1-2.21,4.66-3.48,7.67-3.82,6.76-.77,12.27,3.96,13.56,10.09.31,1.49.43,3,.15,4.52-.07.36.05.42.37.42,3.03,0,6.05,0,9.08,0,.82,0,1.63.06,2.43.27,1.88.5,3.09,2.37,3.17,4.06.06,1.49-.07,2.98-.13,4.46-.03.7-.05,1.4-.1,2.1-.13,2.13-.12,4.27-.32,6.4-.2,2.18-1.9,4.05-4.04,4.5-.89.19-1.71-.04-2.47-.45-3.76-2.02-7.61-3.88-11.38-5.89-.57-.31-.57-.3-.96.21-.24.32-.48.65-.75.95-.6.66-1.88.51-2.33-.27-.19-.32-.31-.68-.46-1.03-.09-.23-.19-.26-.34-.05-.18.24-.36.48-.54.71-.61.78-1.88.75-2.46-.04q-.27-.37-.57-.04c-2.87,3.16-5.75,6.31-8.6,9.48-2.91,3.24-5.84,6.47-8.78,9.69-2.28,2.5-4.54,5.03-6.79,7.56-.77.86-1.41,1.82-2.28,2.6-2.17,1.96-4.69,3.17-7.59,3.45-4.22.42-7.88-.87-10.85-3.9C1.5,57.41.19,54.41.02,50.95c-.18-3.75.96-7.06,3.54-9.77,2.18-2.29,4.32-4.63,6.56-6.86,2.29-2.27,4.39-4.71,6.68-6.97.03-.03.06-.08.12-.17ZM13.55,22.59c1.01-.8,1.69-.62,2.17.53.15.35.36,1.29.75,1.19.28-.07.7-.94.9-1.15.75-.82,1.56-.72,2.1.26.14.26.37,1.33.64,1.43.29.1.74-.78.89-.97.59-.74,1.39-1.24,2.1-.33.31.4.37.93.63,1.35.38.62.42.33.83-.19.53-.67,1.24-1.68,2.15-.95.44.35.59,1.01.83,1.49.39.77.48.36.94-.21.6-.75,1.49-1.6,2.28-.55.31.41.36,1.31.75,1.63.35.3.55-.28.81-.6.47-.61,1.15-1.47,1.98-.88.43.3.89,2.13,1.24,2.1.23-.02.71-.89.83-1.04.24-.31.49-.66.89-.77,1.04-.27,1.41.96,1.72,1.68.09.21.17.67.44.59.28-.08.68-.91.85-1.11.54-.63,1.23-1.03,1.89-.3.34.37.49.94.69,1.38.2.44.13.53.5.39.42-.16.71-1.08,1.1-1.39.26-.2.55-.36.88-.31.88.12,1.03,1.23,1.37,1.86.27.51.15.43.54.22.41-.22.68-.99,1.06-1.29.85-.67,1.49-.1,1.88.73.12.25.36,1.27.67,1.27.2,0,.64-.84.77-1,.45-.56,1.11-1.18,1.83-.66.42.31.85,2.15,1.27,2.07.74-.14.51-2.1.53-2.6.1-2.33.2-4.66.31-6.99.02-.36.26-1.56.07-1.89-.22-.36-.64-.24-1.04-.24-1.15,0-2.31,0-3.46-.02-4.86-.11-9.72-.23-14.58-.27-4.96-.04-9.92-.09-14.88-.23-2.33-.06-4.68-.14-7.02-.1-.77.01-.78.05-.84.78-.04.58-.07,1.16-.1,1.75-.05,1.11-.22,2.24-.19,3.35ZM26.65,51.98s.07.04.1.06c2.44-3.03,5.24-5.84,7.85-8.72,2.61-2.88,5.21-5.76,7.82-8.65.63-.7,1.25-1.39,1.89-2.08.33-.36,1.39-1.14,1.49-1.6.04-.19-.5-1.04-.63-1.28-.45-.82-.6.06-1.06.49-.65.61-1.83.55-2.4-.17-.18-.23-.35-1.23-.7-1.2-.3.03-.67.93-.99,1.12-.74.43-1.87.12-2.28-.61-.25-.44-.15-1.08-.7-.84-.43.19-.51.84-1.03,1.03-1.11.41-1.8-.31-2.27-1.14-.35-.61-.34-.53-.81,0-.45.51-.72.77-1.44.72-.57-.04-.99-.18-1.33-.64-.16-.21-.31-1.08-.61-1.07-.27,0-.74.94-1.07,1.09-.42.2-1.09.17-1.52-.02-.41-.18-.64-.5-.84-.89-.3-.61-.21-.76-.68-.34-.46.41-.62.8-1.31.87-.55.05-1.12-.1-1.51-.5-.32-.33-.4-1.21-.84-1.09-.25.06-.58.88-.99,1.03-.41.15-.83-.05-1.22.14-.59.29-1.16,1.21-1.61,1.69-2.39,2.54-4.87,5-7.24,7.55.35.18,1.48-.14,1.91-.17.53-.04,1.43.13,1.93-.05.47-.17.94-.86,1.29-1.22.5-.51,1-1.01,1.49-1.52,1-1.02,2-2.03,3.01-3.05.67-.68,1.77-2.35,2.81-2.37,1.14-.03,1.38,1.14.81,1.89-.71.94-1.7,1.76-2.52,2.6-.91.94-1.82,1.87-2.74,2.8-.29.3-1.05.79-1.16,1.18-.13.48.06.4.63.61,1.82.7,3.47,1.77,4.81,3.2.7.75,1.31,1.58,1.83,2.45.12.2.46,1.16.69,1.26.31.13.49-.22.73-.45,1.83-1.82,3.63-3.67,5.45-5.5.63-.63,1.67-1.78,2.46-.64.65.94-.46,1.75-1.06,2.36-1.82,1.85-3.65,3.7-5.48,5.55-.37.38-1.04.8-1.15,1.35-.09.44.15,1,.2,1.44.15,1.11.1,2.19,0,3.3ZM13.38,61.57c.4,0,.8,0,1.21,0,2.43,0,5.08-1.53,6.69-3.25,1.88-2.01,3.18-4.75,3.28-7.51.16-4.43-2.52-8.93-6.55-10.8-4.12-1.91-9.22-1.04-12.4,2.21-3.25,3.33-4.34,8.35-2.45,12.66,1.72,3.93,5.84,6.93,10.22,6.7ZM56.54,15.1c.47,0,.94,0,1.4,0,.88.01.51-3.43.4-4.07-.24-1.44-.77-2.82-1.56-4.05-.37-.57-.8-1.11-1.26-1.6-.5-.53-.64-.86-1.23-.49-.73.46-1.38,1.42-1.98,2.05-.58.59-1.16,1.18-1.74,1.77-1.2,1.21-2.43,2.39-3.61,3.61-.36.37-.69.86-1.26.89-.62.03-1.2-.52-1.18-1.14.02-.66.76-1.19,1.17-1.62.48-.5.96-.99,1.44-1.49,1.06-1.09,2.12-2.18,3.18-3.26.63-.64,1.31-1.24,1.9-1.9.5-.56.36-.59-.35-.89-1.35-.56-2.83-.73-4.28-.64-2.64.16-4.93,1.27-6.77,3.15-2.21,2.25-4.32,4.59-6.52,6.85-.59.61-1.17,1.22-1.77,1.82-.54.55-.54.62.24.63,1.47.02,2.94.07,4.42.07,6.45.02,12.9.18,19.35.3ZM65.3,17.33c-1.94-.03-4.4.03-6.87.06-.78,0-.49,1.33-.53,1.87-.07,1.01-.08,2.02-.13,3.04-.05,1.02-.1,2.04-.15,3.06-.03.67-.4,2.25-.03,2.8.38.57,1.75.96,2.36,1.26.75.38,1.5.77,2.25,1.15,1.69.88,3.38,1.74,5.07,2.63,1.36.71,2.98,2.11,4.46.97,1.39-1.07,1.17-2.78,1.25-4.35.1-1.88.17-3.75.24-5.63.04-.96.08-1.93.13-2.89.04-.74.18-1.52-.03-2.25-.43-1.49-1.8-1.71-3.16-1.73-1.62-.02-3.23,0-4.85,0Z"/>
  <path class="cls-1" d="M3.54,50.3c.14-3.36,1.8-6.62,4.7-8.43,1.36-.84,3.12-1.48,4.73-1.48,1.76,0,1.98,1.99.21,2.25-1.7.25-3.09.59-4.48,1.68-1.09.85-1.92,1.98-2.39,3.29-.51,1.44-.63,3.07-.27,4.56.17.72.46,1.42.83,2.06.43.73,1.27,1.32,1.62,2.07.33.71-.16,1.56-.97,1.59-.85.03-1.57-1.09-2-1.69-1.23-1.69-1.98-3.79-1.98-5.89Z"/>
  <path class="cls-1" d="M13.29,45.66c1.25.02,3.46.67,3.84,2.1.19.74-.45,1.51-1.22,1.41-.71-.09-1.13-.93-1.83-1.15-1.55-.49-3.1.86-3.01,2.43.04.66.34,1.3.85,1.72.6.5,1.31.34,1.94.68.68.37.85,1.25.24,1.79-.49.43-1.37.28-1.95.15-1.45-.34-2.54-1.46-3.06-2.83-1.04-2.69.66-5.7,3.49-6.24.25-.05.52-.05.71-.07Z"/>
  <path class="cls-1" d="M23.19,50.56c-.12,1.72-.57,3.43-1.46,4.92-.53.88-2.64,3.96-3.76,2.21-.49-.77.15-1.37.65-1.89.66-.68,1.22-1.4,1.61-2.27.37-.84.56-1.72.65-2.62.08-.79.28-1.93,1.39-1.7.56.12.91.58.91,1.35Z"/>
  <path class="cls-1" d="M64.44,20.16c2.59,0,6.22-.5,6.24,3.11,0,1.75-.1,3.57-.23,5.32-.09,1.16-.7,2.17-1.82,2.61-1.37.53-2.5-.26-3.69-.86-.78-.4-1.56-.78-2.33-1.18-.66-.33-1.51-.62-2.06-1.12-1.03-.92-.44-3.1-.39-4.31.04-1.01-.42-3.39,1.02-3.52,1.16-.1,2.34-.02,3.27-.05ZM65.35,22.46h0c-.53.01-2.47-.29-2.82.12-.21.26-.09,1.12-.11,1.44-.03.55-.07,1.1-.09,1.65-.03,1.17.82,1.27,1.77,1.74.89.44,1.76.89,2.64,1.35.82.43,1.29.55,1.42-.5.13-1.03.09-2.1.14-3.14.02-.6.38-2.12-.07-2.58-.41-.41-2.33-.09-2.88-.09Z"/>
</svg>