<?xml version="1.0" encoding="UTF-8"?>
<svg id="Capa_1" data-name="Capa 1" xmlns="http://www.w3.org/2000/svg" viewBox="0 0 73.12 63.86">
  <defs>
    <style>
      .cls-1 {
        fill: #d4191e;
      }
    </style>
  </defs>
  <path class="cls-1" d="M36.63,63.85c-4.41,0-8.27-3.36-8.85-7.68-.39-2.9.5-5.4,2.51-7.5.34-.35.4-.62.23-1.08-2.06-5.61-4.1-11.24-6.14-16.86-2.31-6.36-4.63-12.71-6.95-19.07-.55-1.52-1.11-3.04-1.65-4.56-.1-.29-.21-.34-.51-.23-3.96,1.44-7.92,2.87-11.88,4.3-1.2.43-1.61.24-2.05-.97-.39-1.09-.79-2.17-1.18-3.25-.34-.94-.12-1.44.82-1.77C5.44,3.55,9.92,1.95,14.4.33c2.86-1.04,5.88.46,6.9,3.16.92,2.46,1.82,4.93,2.72,7.4,1.8,4.94,3.59,9.88,5.39,14.82,1.51,4.13,3.01,8.27,4.52,12.4.88,2.42,1.78,4.84,2.64,7.28.17.48.44.65.91.65.43,0,.85.12,1.26.22.11.03.24.11.33,0,.08-.1,0-.21-.04-.3-.65-1.8-1.3-3.6-1.96-5.4-1.85-5.08-3.7-10.17-5.55-15.25-1.53-4.2-3.06-8.4-4.59-12.6-.02-.07-.05-.13-.07-.2-.34-.97-.13-1.46.83-1.81,3.71-1.36,7.42-2.71,11.13-4.06,2.93-1.07,5.86-2.13,8.78-3.2,1.24-.45,2.48-.91,3.72-1.35.31-.11.63-.22.97-.09.35.13.57.38.69.72.63,1.76,1.26,3.51,1.87,5.28.22.62-.06,1.18-.64,1.4-.55.21-1.11-.03-1.36-.64-.39-1-.74-2.01-1.11-3.01-.12-.32-.25-.64-.35-.97-.09-.29-.24-.33-.51-.23-1.58.59-3.17,1.16-4.76,1.74-.61.22-1.22.46-1.85.67-.3.1-.36.23-.25.52.42,1.12.83,2.25,1.24,3.38.02.07.05.13.08.2.39,1.05.15,1.54-.89,1.92-1.48.54-2.95,1.07-4.42,1.61-1.27.47-1.67.29-2.14-.97-.44-1.17-.86-2.34-1.28-3.52-.08-.22-.16-.31-.41-.21-2.23.82-4.47,1.64-6.7,2.45-.31.11-.33.25-.23.52,1.53,4.18,3.05,8.36,4.57,12.53.25.69.53,1.38.77,2.07.1.29.21.39.54.27,2.62-.97,5.25-1.91,7.88-2.87,4.45-1.62,8.9-3.23,13.35-4.85.49-.18.5-.17.31-.68-.73-2-1.46-4-2.18-6-.07-.19-.13-.38-.18-.58-.16-.57.09-1.1.61-1.32.52-.22,1.08-.02,1.36.52.17.33.3.67.42,1.02,1.52,4.38,3.15,8.72,4.73,13.08,1.61,4.45,3.24,8.9,4.86,13.34.09.26.2.51.28.77.09.31.26.35.54.24.96-.36,1.92-.71,2.89-1.04.86-.3,1.31-.12,1.64.73.48,1.23.93,2.47,1.36,3.72.29.83.04,1.3-.8,1.61-5.21,1.89-10.42,3.79-15.63,5.68-3.53,1.28-7.06,2.57-10.6,3.85-.33.12-.46.31-.48.65-.17,3.63-2.91,6.98-6.45,7.9-.39.1-.78.21-1.18.27-.43.06-.87.12-1.24.09ZM51.92,29.17c0,.49-.29.9-.79,1.09-1.77.66-3.55,1.31-5.33,1.94-.56.2-1.07-.05-1.33-.59-.12-.24-.21-.51-.3-.76-.4-1.09-.8-2.19-1.19-3.29-.08-.23-.18-.33-.44-.24-2.23.82-4.47,1.64-6.7,2.45-.27.1-.33.21-.23.5,1.95,5.32,3.9,10.63,5.8,15.96.37,1.02.83,1.93,1.69,2.61.19.15.32.18.54.1,6.87-2.5,13.74-5,20.62-7.49.32-.12.41-.23.28-.58-1.68-4.59-3.35-9.18-5.02-13.78-.59-1.63-1.2-3.26-1.78-4.89-.1-.28-.22-.34-.49-.22-.35.15-.71.26-1.07.39-1.84.67-3.69,1.35-5.53,2.01-.32.12-.38.26-.25.58.49,1.25.94,2.52,1.41,3.78.06.17.1.34.13.44ZM16.29,2.17c-.54-.01-1.04.14-1.53.32-3.08,1.11-6.15,2.22-9.23,3.33-.89.32-1.79.65-2.69.97-.28.1-.37.24-.25.53.18.44.34.89.49,1.34.07.2.16.25.37.17.52-.21,1.05-.39,1.57-.58,2.19-.79,4.39-1.57,6.58-2.36,1.39-.5,2.77-1.01,4.16-1.51.76-.27,1.28-.01,1.57.72.23.6.45,1.2.67,1.81,1.96,5.4,3.92,10.8,5.88,16.19,1.94,5.32,3.88,10.64,5.81,15.95.92,2.52,1.84,5.05,2.75,7.58.1.28.21.31.46.18.4-.2.83-.37,1.27-.47.31-.07.37-.19.26-.49-2.2-6.01-4.38-12.02-6.57-18.03-2.23-6.12-4.46-12.25-6.69-18.37-.65-1.79-1.27-3.59-1.98-5.35-.51-1.27-1.55-1.88-2.91-1.93ZM36.64,48.21c-3.67-.11-6.77,2.95-6.78,6.71-.01,5.84,7.3,8.96,11.47,4.83,4.18-4.14,1.24-11.56-4.7-11.54ZM45.44,52.84c.06-.02.14-.05.22-.08,4.21-1.53,8.42-3.06,12.63-4.58,3.65-1.32,7.29-2.66,10.94-3.98.28-.1,1.12-.23,1.28-.5.18-.29-.12-.74-.22-1.02-.36-.98-.41-.98-1.42-.61-1.8.66-3.61,1.31-5.41,1.97-3.69,1.34-7.39,2.69-11.08,4.03-1.86.68-3.72,1.35-5.58,2.03-.51.19-2.1.45-2.1,1.05,0,.22.54,1.7.75,1.69ZM49.38,28.45c-.15-.57-.42-1.15-.62-1.7-.13-.35-.3-1.29-.66-1.4-.37-.12-3.06.99-3.12,1.29-.09.46.49,1.44.65,1.88.15.42.22,1.16.69,1.22.36.04,3.09-1,3.06-1.28ZM43.01,10.99c-.02-.06-.05-.14-.08-.22-.24-.66-.49-1.31-.72-1.97-.2-.58-.17-.88-.78-.82-.43.04-2.68.76-2.83,1.16-.14.36.96,3.07,1.27,3.17.31.1,3.19-1.02,3.15-1.31Z"/>
  <path class="cls-1" d="M36.66,51.68c2.89.02,4.2,3.72,2.11,5.63-2.07,1.88-5.4.36-5.38-2.42,0-1.72,1.54-3.22,3.27-3.21ZM36.57,53.94c-.57,0-.99.42-.99.98,0,.9,1.08,1.37,1.73.74.66-.64.15-1.72-.74-1.73Z"/>
</svg>