<?xml version="1.0" encoding="UTF-8"?>
<svg id="Capa_1" data-name="Capa 1" xmlns="http://www.w3.org/2000/svg" viewBox="0 0 25 25">
  <defs>
    <style>
      .cls-1 {
        fill: #fff;
      }

      .cls-2 {
        fill: #d4191e;
      }
    </style>
  </defs>
  <circle class="cls-2" cx="12.5" cy="12.5" r="12.5"/>
  <path class="cls-1" d="M5.52,7.39v.78c.84.73,5.66,4.94,6.05,5.27.39.34.78.38.93.38s.54-.03.93-.38c.4-.34,5.5-4.79,6.05-5.27v-.78H5.52ZM5.52,8.93v7.01l4.22-3.33c-1.37-1.19-3.32-2.89-4.22-3.67ZM19.48,9.02c-.85.74-2.83,2.46-4.22,3.67l4.22,3.32v-7ZM10.17,13.13l-4.65,3.66v.82h13.96v-.83l-4.65-3.66c-.54.47-.93.81-1.03.9-.54.47-1.09.51-1.3.51s-.76-.05-1.3-.51c-.1-.09-.49-.43-1.03-.9Z"/>
</svg>