<?xml version="1.0" encoding="UTF-8"?>
<svg id="Capa_1" data-name="Capa 1" xmlns="http://www.w3.org/2000/svg" xmlns:xlink="http://www.w3.org/1999/xlink" viewBox="0 0 25 25">
  <defs>
    <style>
      .cls-1 {
        stroke: #fff;
        stroke-linecap: round;
        stroke-linejoin: round;
        stroke-width: 10px;
      }

      .cls-1, .cls-2 {
        fill: none;
      }

      .cls-3 {
        fill: #fff;
      }

      .cls-4 {
        fill: #d4191e;
      }

      .cls-5 {
        clip-path: url(#clippath);
      }
    </style>
    <clipPath id="clippath">
      <rect class="cls-2" x="-3138.18" y="391.85" width="1928" height="1053"/>
    </clipPath>
  </defs>
  <g class="cls-5">
    <polygon class="cls-1" points="1015.53 -252.13 -2173.17 1863.08 -3613.18 932.5 -3595.45 -262.22 -2173.17 656.64 -265.51 -586.18 1015.53 -252.13"/>
  </g>
  <g>
    <circle class="cls-3" cx="12.5" cy="12.5" r="12.5"/>
    <g>
      <path class="cls-4" d="M5.74,5.83v14.17c0,.47.38.85.85.85h10.2c.47,0,.85-.38.85-.85v-1.63l1.44-1.44c.17-.16.26-.38.26-.61V4.7c0-.47-.38-.85-.85-.85h-10.2c-.47,0-.85.38-.85.85v.28h-.85c-.47,0-.85.38-.85.85ZM16.79,18.41v-.97c0-.16.13-.28.28-.28h.97l-1.25,1.25ZM8.01,4.7c0-.16.13-.28.28-.28h10.2c.16,0,.28.13.28.28v11.62c0,.08-.03.15-.08.2h0c-.05.06-.12.08-.19.08h-1.42c-.47,0-.85.38-.85.85v1.42c0,.07-.03.14-.08.19h0c-.05.06-.12.09-.2.09h-7.65c-.16,0-.28-.13-.28-.28V4.7ZM8.29,19.71h7.65c.23,0,.45-.09.61-.26l.52-.52v1.07c0,.16-.13.28-.28.28H6.59c-.16,0-.28-.13-.28-.28V5.83c0-.16.13-.28.28-.28h.85v13.32c0,.47.38.85.85.85Z"/>
      <path class="cls-4" d="M13.39,10.36h3.97c.31,0,.57-.25.57-.57v-3.97c0-.31-.25-.57-.57-.57h-3.97c-.31,0-.57.25-.57.57v3.97c0,.31.25.57.57.57ZM14.81,7.53c0-.31.25-.57.57-.57s.57.25.57.57-.25.57-.57.57-.57-.25-.57-.57ZM15.38,8.66c.67,0,1.25.47,1.39,1.13h-2.78c.14-.66.72-1.13,1.39-1.13ZM13.39,5.83h3.97v3.97h-.02c-.1-.66-.52-1.23-1.12-1.51.42-.46.39-1.18-.08-1.6s-1.18-.39-1.6.08c-.39.43-.39,1.09,0,1.52-.6.28-1.03.85-1.12,1.51h-.02v-3.97Z"/>
      <path class="cls-4" d="M9.14,6.4h2.55c.16,0,.28-.13.28-.28s-.13-.28-.28-.28h-2.55c-.16,0-.28.13-.28.28s.13.28.28.28Z"/>
      <path class="cls-4" d="M9.14,8.1h2.55c.16,0,.28-.13.28-.28s-.13-.28-.28-.28h-2.55c-.16,0-.28.13-.28.28s.13.28.28.28Z"/>
      <path class="cls-4" d="M9.14,9.8h2.55c.16,0,.28-.13.28-.28s-.13-.28-.28-.28h-2.55c-.16,0-.28.13-.28.28s.13.28.28.28Z"/>
      <path class="cls-4" d="M9.14,12.06h8.5c.16,0,.28-.13.28-.28s-.13-.28-.28-.28h-8.5c-.16,0-.28.13-.28.28s.13.28.28.28Z"/>
      <path class="cls-4" d="M9.14,13.76h8.5c.16,0,.28-.13.28-.28s-.13-.28-.28-.28h-8.5c-.16,0-.28.13-.28.28s.13.28.28.28Z"/>
      <path class="cls-4" d="M9.14,15.46h8.5c.16,0,.28-.13.28-.28s-.13-.28-.28-.28h-8.5c-.16,0-.28.13-.28.28s.13.28.28.28Z"/>
      <path class="cls-4" d="M9.14,17.16h5.1c.16,0,.28-.13.28-.28s-.13-.28-.28-.28h-5.1c-.16,0-.28.13-.28.28s.13.28.28.28Z"/>
    </g>
  </g>
</svg>