<?xml version="1.0" encoding="UTF-8"?>
<svg xmlns="http://www.w3.org/2000/svg" version="1.1" xmlns:xlink="http://www.w3.org/1999/xlink" viewBox="0 0 1928 1053">
  <!-- Generator: Adobe Illustrator 29.4.0, SVG Export Plug-In . SVG Version: 2.1.0 Build 152)  -->
  <defs>
    <style>
      .st0 {
        opacity: .4;
      }

      .st0, .st1, .st2 {
        isolation: isolate;
      }

      .st0, .st2 {
        mix-blend-mode: multiply;
      }

      .st3 {
        stroke: #fff;
        stroke-linecap: round;
        stroke-linejoin: round;
        stroke-width: 10px;
      }

      .st3, .st4 {
        fill: none;
      }

      .st5 {
        fill: url(#Degradado_sin_nombre1);
        opacity: .6;
      }

      .st6 {
        fill: url(#Degradado_sin_nombre2);
        opacity: .6;
      }

      .st7 {
        clip-path: url(#clippath);
      }

      .st2 {
        fill: url(#Degradado_sin_nombre);
      }
    </style>
    <clipPath id="clippath">
      <rect class="st4" width="1928" height="1053"/>
    </clipPath>
    <linearGradient id="Degradado_sin_nombre" data-name="Degradado sin nombre" x1="-205.7" y1="1450.8" x2="-230.7" y2="1094" gradientTransform="translate(0 1054) scale(1 -1)" gradientUnits="userSpaceOnUse">
      <stop offset="0" stop-color="#d4191e"/>
      <stop offset="1" stop-color="#d4191e" stop-opacity=".7"/>
    </linearGradient>
    <linearGradient id="Degradado_sin_nombre1" data-name="Degradado sin nombre" x1="488.1" y1="-18.2" x2="465.6" y2="304.3" gradientTransform="matrix(1,0,0,1,0,0)" xlink:href="#Degradado_sin_nombre"/>
    <linearGradient id="Degradado_sin_nombre2" data-name="Degradado sin nombre" x1="1541" y1="638.4" x2="1518.9" y2="954.1" gradientTransform="matrix(1,0,0,1,0,0)" xlink:href="#Degradado_sin_nombre"/>
  </defs>
  <g class="st1">
    <g id="Capa_1">
      <g class="st7">
        <g>
          <image class="st1" width="6000" height="4000" transform="translate(-30.3 -77.1) scale(.3)" xlink:href="../../../Imágenes/CITI CENTER/DSC07782-2.jpg"/>
          <rect class="st4" x="-3.5" y="-96" width="1935" height="1080"/>
          <rect class="st0" x="-4" y="-39" width="1947" height="1093"/>
          <polygon class="st2" points="-113.6 -464.1 -117.6 140.9 -318.7 140.9 -317.5 -596.1 -113.6 -464.1"/>
          <polygon class="st5" points="-132.5 239.3 -132.5 -111.6 1124.4 -146.8 201 454.8 -132.5 239.3"/>
          <polygon class="st6" points="1065.4 1087.8 1954.8 497.8 1954.8 1072 1065.4 1087.8"/>
          <polygon class="st3" points="3389.7 -454 201 1661.2 -1239 730.7 -1221.3 -464.1 201 454.8 2108.7 -788 3389.7 -454"/>
        </g>
      </g>
    </g>
  </g>
</svg>