<?xml version="1.0" encoding="UTF-8"?>
<svg id="Capa_1" data-name="Capa 1" xmlns="http://www.w3.org/2000/svg" viewBox="0 0 63.87 63.86">
  <defs>
    <style>
      .cls-1 {
        fill: #d4191e;
      }
    </style>
  </defs>
  <path class="cls-1" d="M63.86,18.51c0,3.76-.31,7.37-1.4,10.99-.53,1.76-1.21,3.48-2.05,5.12-.41.79-.79,1.36-.8,2.27,0,1.11,0,2.22,0,3.33,0,4.01-.02,8.02.01,12.03.01,1.59.04,3.09-.86,4.47-.85,1.3-2.23,2.21-3.59,2.92-3.29,1.72-7.07,2.58-10.71,3.19-3.93.66-7.93,1.01-11.92,1.03-7.43.03-15.45-.61-22.37-3.56-3.01-1.28-5.86-3.18-5.86-6.74-.01-4.06,0-8.13,0-12.19,0-.99,0-1.97,0-2.96,0-.94.16-1.96-.28-2.82-.84-1.64-1.63-3.27-2.23-5.01C.59,27.08.04,23.41.06,19.7c0-.94,0-1.89,0-2.83,0-.71-.2-1.76.14-2.41.27-.5.77-.58,1.29-.6.47-.02.94,0,1.4,0,.3,0,.96.15,1.23,0,.44-.27.2-1.71.2-2.19,0-.94-.13-1.9.08-2.82.32-1.42,1.31-2.51,2.44-3.37,2.87-2.17,6.61-3.2,10.08-3.93,3.8-.81,7.68-1.22,11.57-1.42,7.56-.39,15.48.22,22.73,2.52,2.92.93,6.98,2.43,8.12,5.6.58,1.62.13,3.41.27,5.09.07.81.74.54,1.44.54.68,0,1.76-.2,2.35.24.44.32.45.86.46,1.35.02,1.02,0,2.05,0,3.07ZM6.48,13.51c0,.21,0,.34,0,.47,0,6.96,0,13.92,0,20.88,0,.53.15.96.43,1.39,1.83,2.83,4.08,5.28,6.72,7.38,1.97,1.57,4.13,2.81,6.43,3.83.13.06.26.11.35-.05.3-.54.8-.62,1.36-.62,6.81,0,13.61,0,20.42,0,.13,0,.27,0,.4,0,.33.03.65.14.82.43.18.33.37.31.67.17,2.9-1.37,5.58-3.07,7.94-5.26,1.97-1.82,3.71-3.82,5.15-6.09.2-.32.29-.64.29-1.03,0-6.95,0-13.9,0-20.85,0-.1,0-.2,0-.3,0-.24-.09-.27-.28-.14-.32.22-.63.45-.96.66-1.42.9-2.97,1.53-4.55,2.07-.54.18-.54.18-.54.73,0,1.07.01,2.15,0,3.22-.03,1.41-.53,2.65-1.55,3.63-1.04.99-2.3,1.51-3.74,1.56-1.67.06-2.96,1.19-3.17,2.83-.07.56-.03,1.13-.03,1.69,0,.68.03,1.36-.12,2.02-.95,4.19-5.18,6.09-8.59,4.71-2.35-.95-3.65-2.74-4.02-5.22-.14-.94-.05-1.88-.06-2.82-.03-1.76-1.48-3.22-3.19-3.2-1.69.02-3.13,1.45-3.13,3.15,0,2.05,0,4.09,0,6.14,0,.5,0,1-.12,1.48-.54,2.2-1.78,3.83-3.92,4.69-1.36.54-2.76.67-4.16.22-2.9-.95-4.6-3.34-4.6-6.39,0-1.68,0-3.36,0-5.05,0-4.52,0-9.03,0-13.55,0-.32-.1-.48-.39-.59-.73-.27-1.42-.62-2.1-1-.59-.33-1.11-.76-1.72-1.19ZM57.43,39.49s-.04-.02-.07-.02c-2.96,3.71-6.42,6.9-10.68,9.07-.48.25-.97.48-1.46.7-.34.15-1.11.32-1.38.59-.52.53-.03,1.81-.21,2.49-.26,1.02-1.33.9-2.16.9-1.18,0-2.35,0-3.53,0-4.74,0-9.48,0-14.22,0-.82,0-2.28.29-2.99-.22-.69-.49-.49-1.61-.49-2.34,0-.52,0-.68-.43-.97-.42-.28-1.04-.44-1.51-.66-.89-.42-1.76-.88-2.6-1.39-3.62-2.16-6.49-4.97-9.16-8.19-.3.41-.05,1.69-.05,2.19,0,.86,0,1.72,0,2.59,0,1.6,0,3.2,0,4.81,0,1.68-.16,3.43,0,5.1.13,1.33,1.07,2.2,2.13,2.9,2.22,1.48,4.93,2.29,7.49,2.92,2.75.68,5.54,1.06,8.36,1.33,5.68.55,11.4.48,17.06-.2,2.74-.33,5.48-.82,8.13-1.61,2.36-.7,5.16-1.6,6.91-3.42.9-.94.88-1.98.88-3.22,0-1.49,0-2.97,0-4.46,0-2.97,0-5.93,0-8.9ZM12.86,26.21c0,2.98,0,5.95,0,8.93,0,2.71,2.55,4.73,5.19,4.1,1.97-.47,3.26-2.11,3.26-4.14,0-2.1,0-4.21,0-6.31,0-.92.19-1.78.65-2.58,1.1-1.93,2.77-2.9,4.98-2.78,2.16.11,3.69,1.21,4.59,3.19.43.94.48,1.94.47,2.96-.01.61-.06,1.23.03,1.82.39,2.5,2.4,3.97,4.91,3.64,1.74-.23,3.25-1.76,3.46-3.51.12-.97.03-1.95.05-2.92.03-1.34.52-2.51,1.42-3.49,1.04-1.14,2.36-1.7,3.9-1.7,1.75,0,3.06-1.39,3.15-2.78.06-.97.01-1.95.03-2.92,0-.46,0-.46-.43-.35-1.88.48-3.78.82-5.7,1.1-2.72.39-5.44.65-8.19.72-2.72.08-5.44.07-8.16-.14-2.06-.16-4.11-.38-6.16-.71-2.36-.38-4.7-.86-6.98-1.56-.46-.14-.46-.14-.46.33,0,3.03,0,6.06,0,9.1ZM31.97,2.21c-4.13.08-8.28.27-12.36.97-3.8.65-7.95,1.53-11.17,3.77-1.27.88-2.59,2.25-1.56,3.82.88,1.35,2.56,2.18,3.98,2.82,3.38,1.54,7.14,2.28,10.8,2.76,7.54.99,15.36.96,22.86-.34,3.47-.6,7.15-1.44,10.19-3.28,1.17-.71,2.9-1.84,2.64-3.43-.28-1.69-2.32-2.72-3.69-3.41-3.18-1.59-6.81-2.36-10.3-2.88-3.75-.56-7.59-.84-11.39-.82ZM31.93,51.04c1.73,0,3.45,0,5.18,0,1.34,0,2.68,0,4.02,0,.3,0,.39-.09.37-.38-.02-.41,0-.82,0-1.23q0-.47-.47-.47c-6.04,0-12.08,0-18.12,0-.07,0-.13,0-.2,0-.22-.02-.29.08-.29.29,0,.45.02.91,0,1.36-.02.34.09.43.43.43,3.03-.01,6.06,0,9.09,0ZM4.19,30.86s.08-.02.11-.03c0-.65,0-1.3,0-1.95,0-4.15,0-8.3,0-12.45,0-.31-.08-.44-.41-.42-.44.03-.89.02-1.33,0-.25,0-.36.05-.35.33.05,2.06-.05,4.11.11,6.17.18,2.34.62,4.62,1.33,6.85.16.5.35.99.53,1.49ZM59.61,31c.88-1.85,1.82-5.96,1.96-8.02.14-2.21.11-4.42.12-6.63,0-.24-.07-.34-.32-.33-.43.02-.86,0-1.29,0q-.47,0-.47.48c0,4.61,0,9.22,0,13.84,0,.22,0,.44,0,.66Z"/>
  <path class="cls-1" d="M31.97,4.3c2.95-.1,5.94.09,8.87.4,2.93.3,5.96.74,8.76,1.7,1.96.68,5.05,2.59,2.88,4.88-.85.89-2.16,1.32-3.3,1.69-1.33.44-2.71.73-4.09.97-5.9,1.04-12.02,1.24-18,.93-2.91-.15-5.84-.46-8.71-1-1.43-.27-2.84-.62-4.21-1.1-1.15-.4-2.49-.93-3.17-2.01-3.12-4.99,12.85-6.14,15.2-6.31,1.92-.14,3.84-.21,5.76-.15ZM31.62,6.46c-.99-.01-2.32.07-3.66.11-2.91.09-5.84.34-8.7.84-1.35.24-2.71.54-4.02.95-.62.19-1.24.41-1.79.75-.63.39-.66.57,0,.97,1.97,1.2,4.56,1.54,6.8,1.88,2.56.39,5.14.6,7.72.71,5.1.23,10.3.1,15.35-.64,2.29-.34,4.7-.72,6.78-1.79.35-.18.97-.36.79-.85-.11-.3-.86-.53-1.14-.65-1.15-.5-2.42-.79-3.64-1.05-4.72-1.02-9.68-1.25-14.5-1.24Z"/>
</svg>