<?xml version="1.0" encoding="UTF-8"?>
<svg id="Capa_1" data-name="Capa 1" xmlns="http://www.w3.org/2000/svg" viewBox="0 0 25 25">
  <defs>
    <style>
      .cls-1 {
        fill: #fff;
      }

      .cls-2 {
        fill: #d4191e;
      }
    </style>
  </defs>
  <circle class="cls-2" cx="12.5" cy="12.5" r="12.5"/>
  <path class="cls-1" d="M17.06,18.8h-.01c-2.26-.07-4.91-2.26-6.73-4.09-1.83-1.82-4.02-4.47-4.09-6.72-.03-.79,1.91-2.19,1.93-2.21.5-.35,1.06-.23,1.29.09.16.21,1.62,2.44,1.78,2.69.17.26.14.65-.07,1.04-.11.22-.49.88-.67,1.19.19.27.7.94,1.74,1.99,1.05,1.05,1.71,1.55,1.99,1.74.31-.18.97-.56,1.19-.67.39-.2.77-.23,1.04-.07.27.17,2.49,1.64,2.69,1.78.17.12.28.33.3.57.02.24-.05.5-.21.72-.01.02-1.4,1.93-2.18,1.93Z"/>
</svg>