<?xml version="1.0" encoding="UTF-8"?>
<svg id="Capa_1" data-name="Capa 1" xmlns="http://www.w3.org/2000/svg" viewBox="0 0 70.77 96">
  <defs>
    <style>
      .cls-1 {
        fill: #d4191e;
      }
    </style>
  </defs>
  <path class="cls-1" d="M32.08,69.42v11.62c2.48,0,4.87-.01,7.26,0,2.27.01,2.79.53,2.82,2.76,0,.56,0,1.12,0,1.69-.01,1.52-.72,2.3-2.34,2.27-2.53-.04-5.06-.01-7.84-.01,0,1.87,0,3.59,0,5.32,0,2.71-.22,2.93-2.89,2.93-.32,0-.63,0-.95,0-2.49,0-2.86-.36-2.88-2.81-.01-1.74,0-3.48,0-5.45-2.62,0-5.08.01-7.54,0-2.08-.01-2.52-.47-2.55-2.56,0-.5,0-1,0-1.5.02-2.12.52-2.62,2.7-2.64,2.39-.02,4.79,0,7.37,0,0-3.77.05-7.32-.07-10.86-.01-.4-.99-.97-1.6-1.1-11.13-2.32-18.69-8.7-22.18-19.34C-4.18,32.76,7.58,15.33,25.63,13.43c7.65-.81,14.42,1.21,20.42,5.57,4.13-4.12,8.23-8.22,12.32-12.31-1.51,0-3.26.01-5.01,0-2.41-.02-2.79-.39-2.82-2.68Q50.5,0,54.63,0c4.51,0,9.02,0,13.52,0,2.05,0,2.59.52,2.59,2.54.02,4.94.02,9.87,0,14.81,0,1.99-.57,2.5-2.62,2.53-.57,0-1.14-.03-1.71,0-1.8.12-2.54-.71-2.48-2.46.07-1.85.02-3.7.02-5.45-4.13,4.07-8.22,8.11-12.48,12.31,6.05,8.37,7.71,17.83,3.56,27.78-4.17,9.99-12.14,15.53-22.95,17.35ZM6.79,41.43c0,11.77,9.84,21.45,21.81,21.48,12.01.03,21.96-9.77,21.93-21.59-.04-11.78-9.87-21.44-21.84-21.44-12.1,0-21.9,9.64-21.89,21.55Z"/>
  <path class="cls-1" d="M28.71,31.47c2.66,0,5.33-.02,7.99,0,2.27.02,3.62,1.21,3.67,3.16.06,1.96-1.22,3.4-3.43,3.43-5.51.09-11.03.08-16.55,0-2.15-.03-3.59-1.55-3.54-3.39.05-1.89,1.5-3.18,3.68-3.21,2.73-.03,5.45,0,8.18,0Z"/>
  <path class="cls-1" d="M28.62,44.65c2.66,0,5.33-.03,7.99,0,2.31.03,3.75,1.35,3.76,3.33,0,1.99-1.43,3.35-3.73,3.36-5.33.03-10.66.03-15.99,0-2.29-.01-3.79-1.39-3.8-3.33-.01-1.94,1.5-3.33,3.77-3.36,2.66-.04,5.33,0,7.99,0Z"/>
</svg>