<?xml version="1.0" encoding="UTF-8"?>
<svg id="Capa_1" data-name="Capa 1" xmlns="http://www.w3.org/2000/svg" viewBox="0 0 56.4 63.87">
  <defs>
    <style>
      .cls-1 {
        fill: #d4191e;
      }
    </style>
  </defs>
  <path class="cls-1" d="M27.97,58.05c-5.67,0-11.34,0-17.01,0-.62,0-.78.15-.78.77,0,.77,0,1.54,0,2.31,0,.63.18.82.81.83,1.28,0,2.56,0,3.83,0,3.43,0,6.86,0,10.28,0,.21,0,.41-.01.62.05.4.13.66.46.67.88.01.4-.21.73-.61.89-.18.07-.36.09-.55.09-4.8,0-9.6,0-14.4,0-1.45,0-2.61-1.17-2.62-2.61,0-.85,0-1.7,0-2.55,0-1.42,1.18-2.59,2.61-2.6.36,0,.73-.01,1.09,0,.27.01.35-.09.37-.36.09-1.67.89-2.91,2.35-3.71.56-.31,1.18-.41,1.8-.42,1.27-.02,2.53-.02,3.8,0,.3,0,.42-.08.48-.4.48-2.75-.11-5.21-1.86-7.39-.16-.2-.33-.29-.58-.28-.33.02-.66,0-1,0-1.46.08-3.01-1.4-3.01-3.05,0-.61,0-1.23,0-1.84q0-.47-.46-.47c-.66,0-1.33.01-1.99,0-4.61-.1-8.15-2.07-10.53-6.05-.33-.54-.61-1.11-.94-1.65-.93-1.51.05-3.51,2.01-3.56.86-.02,1.72,0,2.59,0,3.02,0,6.05,0,9.07,0,.29,0,.45-.07.59-.36.57-1.21,1.56-1.8,2.88-1.81,2.09-.01,4.18,0,6.26,0,9.88,0,19.76,0,29.63,0,1.6,0,2.75.89,2.97,2.37.12.82,0,1.66-.12,2.48-.25,1.7-.75,3.32-1.46,4.88-.64,1.41-1.55,2.62-2.58,3.76-2.32,2.56-5.16,4.21-8.54,4.94-1.8.39-3.62.43-5.45.37-.05,0-.1,0-.16-.01-.5-.09-.83.12-1.12.53-1.21,1.68-1.86,3.54-1.79,5.62.02.53.08,1.05.17,1.58.05.26.16.34.42.34,1.31,0,2.62-.02,3.93,0,1.3.03,2.38.54,3.18,1.58.56.73.88,1.58.89,2.51,0,.3.1.4.4.39.48-.02.96-.04,1.43.02,1.19.17,2.03,1,2.17,2.2.13,1.11.14,2.24,0,3.35-.17,1.3-1.23,2.17-2.55,2.19-.61,0-1.23,0-1.84,0-4.38,0-8.77,0-13.15,0-.21,0-.41,0-.62-.06-.4-.13-.7-.51-.69-.91,0-.4.3-.77.71-.89.2-.06.41-.05.62-.05,4.86,0,9.72,0,14.58,0,.9,0,1.08-.16,1.09-1.07,0-.73.03-1.45-.05-2.18-.05-.43-.24-.63-.68-.65-.26,0-.52,0-.78,0-5.46,0-10.93,0-16.39,0h0ZM35.49,26.73c-5.92,0-11.84,0-17.76,0-.12,0-.25,0-.37,0-.69.04-1.08.45-1.11,1.14,0,.15,0,.29,0,.44,0,3.99.01,7.98-.01,11.96,0,.93.63,1.38,1.39,1.37,7.64-.01,15.29,0,22.93-.01.61,0,1.22-.05,1.83-.14,1.85-.25,3.59-.87,5.18-1.86,2.66-1.65,4.64-3.89,5.84-6.81.7-1.7,1.04-3.45,1.01-5.28,0-.45-.23-.72-.67-.8-.15-.03-.31-.02-.47-.02-5.93,0-11.86,0-17.79,0ZM27.97,51.61c1.68,0,3.36,0,5.04,0,.41,0,.41,0,.34-.39-.14-.86-.21-1.74-.12-2.6.18-1.69.64-3.29,1.57-4.74.15-.24.11-.31-.17-.31-.4,0-.81.03-1.21.03-3.95-.02-7.91.05-11.86-.03-.51-.01-.52.02-.27.47,1.29,2.25,1.77,4.65,1.35,7.22-.05.31.02.37.31.37,1.67-.01,3.34,0,5.01,0ZM8.21,28.85h0c-1.89,0-3.78,0-5.67,0-.58,0-.75.26-.49.77.67,1.28,1.34,2.56,2.38,3.6,1.5,1.48,3.24,2.51,5.34,2.88,1.36.24,2.73.17,4.1.19.31,0,.41-.09.41-.4-.01-2.19,0-4.38,0-6.57,0-.44-.02-.46-.45-.46-1.87,0-3.74,0-5.61,0ZM28.01,56.1c4.43,0,8.87,0,13.3,0,.08,0,.17,0,.25,0,.21.01.27-.1.26-.29-.06-.64-.28-1.21-.75-1.66-.48-.46-1.05-.63-1.71-.63-5.32,0-10.64,0-15.95,0-2.21,0-4.42,0-6.64,0-1.49,0-2.32.7-2.55,2.1-.07.43-.04.47.39.47,4.47,0,8.93,0,13.4,0Z"/>
  <path class="cls-1" d="M7.08,24.12c-2.39-.14-3.37-2.88-3.62-4.94-.33-2.76,2.61-3.37,4.63-4.03,5.42-1.77,10.83-3.58,16.24-5.38,1.29-.43,2.59-.87,3.88-1.3.37-.12,1.39-.25,1.63-.54.3-.35-.19-1.17-.32-1.55-.39-1.16-1.16-2.58-1.1-3.83.05-1.04.83-2.06,1.81-2.4,1.15-.4,2.68.07,3.85.23,1.21.17,2.73.17,3.85.69,1.13.53,1.42,1.62,1.79,2.72.27.78,1.31,2.67.63,3.4-1.03,1.11-1.71-.64-1.95-1.36-.2-.59-.39-1.18-.59-1.77-.15-.44-.23-1.01-.68-1.25-.49-.26-1.27-.22-1.81-.3-.73-.1-1.47-.21-2.2-.31-.76-.11-2.66-.77-2.74.49-.04.56.32,1.24.49,1.75.23.71.47,1.41.7,2.12.45,1.36.9,2.72,1.35,4.07.45,1.36.9,2.72,1.35,4.07.22.65.43,1.3.65,1.95.17.51.28,1.3.63,1.73.64.78,2.41-.24,3.16-.49.59-.2,1.19-.38,1.78-.58.42-.14,1.12-.25,1.3-.73.17-.46-.21-1.14-.34-1.57-.23-.7-.46-1.4-.69-2.1-.26-.79-1.3-2.67-.05-3.12,1.25-.45,1.55,1.63,1.81,2.41.4,1.2.99,2.47,1.17,3.72.37,2.61-2.49,3.15-4.36,3.77-1.86.61-4.27,1.74-5.48-.51-.31-.57-.48-1.23-.68-1.84-.11-.33-.23-1.31-.58-1.46-.31-.13-1.32.4-1.63.51-.71.23-1.42.47-2.13.7-5.46,1.8-10.91,3.64-16.38,5.42-1.37.45-2.73.9-4.1,1.36-.4.14-.82.25-1.26.23ZM7.17,22.21c.34,0,.65-.13.96-.23,5.06-1.69,10.12-3.38,15.18-5.06,1.53-.51,3.06-1,4.59-1.49.26-.08.31-.2.22-.46-.41-1.2-.8-2.4-1.2-3.6-.13-.39-.15-.4-.53-.28-1.37.47-2.76.91-4.14,1.37-4.48,1.47-8.95,2.95-13.42,4.44-.93.31-1.85.6-2.77.93-.55.2-.85.69-.71,1.23.22.87.51,1.73.86,2.56.17.4.52.58.95.59ZM30.18,14.65s.05,0,.09-.02c.33-.11,1.5-.29,1.7-.59.18-.26-.28-1.11-.36-1.38-.21-.62-.57-2.75-1.19-2.91-.16-.04-1.42.37-1.56.5-.39.35-.02.86.13,1.33.14.42.78,3.1,1.19,3.06Z"/>
</svg>