<?xml version="1.0" encoding="UTF-8"?>
<svg id="Capa_1" data-name="Capa 1" xmlns="http://www.w3.org/2000/svg" viewBox="0 0 65.99 46.83">
  <defs>
    <style>
      .cls-1 {
        fill: #d4191e;
      }
    </style>
  </defs>
  <path class="cls-1" d="M32.99,46.83c-9.07,0-18.14,0-27.22,0-.82,0-1.6-.13-2.36-.44-2.17-.89-3.66-3.31-3.39-5.63.27-2.27,1.5-3.84,3.65-4.64.3-.11.4-.25.4-.57-.02-1.3-.02-2.6,0-3.9.06-4.03.83-7.91,2.43-11.61.49-1.13,1.11-2.18,1.75-3.23.14-.23.15-.4.03-.65-.45-.92-.44-1.89.19-2.69,1.35-1.71,2.76-3.38,4.42-4.81.62-.53,1.34-.85,2.19-.73.28.04.54.14.8.25.15.07.28.06.42-.04,2.91-2.09,6.12-3.55,9.59-4.45.25-.07.35-.17.4-.44C26.61,1.53,28.38.04,30.15.01c1.82-.02,3.63-.01,5.45,0,2.22.01,3.53,1.41,4.05,3.23.07.25.16.4.44.47,3.42.87,6.59,2.28,9.47,4.33.22.16.41.2.68.1,1.27-.47,2.34-.12,3.24.84,1.21,1.3,2.4,2.61,3.62,3.9.79.84,1.28,2.11.57,3.36-.1.18-.03.33.05.48.59,1.01,1.17,2.03,1.65,3.1,1.19,2.67,1.98,5.45,2.32,8.37.27,2.42.21,4.84.23,7.27,0,.37.09.55.46.67,3.04,1.01,4.82,5.07,2.7,8.18-1.11,1.62-2.7,2.5-4.69,2.51-8.24,0-16.49,0-24.73,0-.88,0-1.76,0-2.64,0ZM17.18,35.76c3.3,0,6.6,0,9.9,0,.28,0,.4-.04.37-.37-.07-.9-.12-1.8-.14-2.7-.04-1.59-.12-3.17-.19-4.76-.1-2.15-.18-4.31-.26-6.46-.06-1.61-.13-3.22-.19-4.82-.07-1.64-.13-3.28-.2-4.92-.07-1.65-.14-3.3-.2-4.95,0-.23-.06-.3-.3-.23-2.69.75-5.2,1.91-7.52,3.47-.7.47-.68.48-.3,1.24,1.88,3.74,3.76,7.49,5.62,11.23.36.72.61,1.46.48,2.29-.22,1.47-1.04,2.48-2.42,3-1.31.49-2.49.18-3.54-.71-.52-.44-.94-.97-1.4-1.47-2.08-2.24-4.17-4.48-6.25-6.72-.21-.22-.29-.18-.43.05-.6.99-1.07,2.03-1.52,3.09-1.29,3.06-1.74,6.27-1.8,9.56-.02,1.23,0,2.47-.01,3.7q0,.46.46.47c3.28,0,6.56,0,9.84,0ZM48.78,35.76c3.29,0,6.58,0,9.87,0q.46,0,.46-.47c0-1.08,0-2.17,0-3.25-.01-1.51-.1-3.02-.32-4.52-.45-3.03-1.45-5.87-2.97-8.52-.22-.39-.22-.38-.52-.06-1.46,1.58-2.91,3.16-4.37,4.73-.92.99-1.83,2-2.78,2.96-.8.82-1.71,1.41-2.95,1.34-1.43-.08-2.48-.72-3.14-1.97-.62-1.18-.47-2.36.11-3.52,1.96-3.92,3.93-7.83,5.9-11.74.1-.2.08-.29-.1-.41-1.39-.92-2.8-1.8-4.33-2.47-1.18-.52-2.4-.93-3.64-1.31-.26-.08-.36-.02-.35.26,0,.3-.03.6-.05.9-.07,1.77-.13,3.54-.19,5.31-.05,1.48-.13,2.96-.18,4.44-.06,1.92-.13,3.84-.22,5.76-.04.92-.04,1.85-.08,2.77-.07,1.67-.19,3.34-.23,5.01-.03,1.46-.12,2.92-.16,4.37-.01.42-.02.42.4.42,3.28,0,6.56,0,9.83,0ZM32.94,38.58h0c-9.14,0-18.27,0-27.41,0-1.06,0-1.89.43-2.41,1.33-1.07,1.84.26,4.11,2.39,4.11,18.32,0,36.63,0,54.95,0,.22,0,.43-.01.64-.07.97-.26,1.68-.84,2-1.79.33-.98.13-1.88-.57-2.67-.58-.66-1.31-.91-2.18-.91-9.14,0-18.27,0-27.41,0ZM33.02,2.82c-.94,0-2.76-.37-3.56.3-.75.64-.39,2.27-.37,3.13.06,3.07.23,6.15.35,9.22.22,5.48.49,10.97.68,16.46.02.68.04,1.36.06,2.04.01.35-.15,1.42.08,1.7.19.23.88.1,1.12.1.72,0,1.44,0,2.16,0,.39,0,1.64.21,1.99-.01.39-.25.22-1,.23-1.41.02-1.28.08-2.57.13-3.85.24-5.4.49-10.8.66-16.21.09-2.65.21-5.3.32-7.95.04-.9.44-2.51-.35-3.19-.79-.68-2.55-.32-3.51-.32ZM21.45,24.44c0-.15-.06-.33-.14-.51-.22-.49-.44-.98-.67-1.46-1.87-3.8-3.83-7.56-5.67-11.38-.17-.35-.21-.35-.49-.06-1.14,1.2-2.27,2.4-3.42,3.59-.23.24-.24.38,0,.63,2.8,2.91,5.52,5.89,8.25,8.86.27.29.54.58.83.85.25.23.55.29.86.14.25-.12.46-.29.45-.66ZM45.43,25.19c.23-.03.4-.22.57-.39,1.24-1.22,2.38-2.54,3.56-3.81,1.82-1.96,3.65-3.9,5.49-5.85.15-.16.13-.24,0-.39-1.17-1.22-2.34-2.46-3.51-3.69-.3-.32-.31-.32-.51.09-1.7,3.4-3.39,6.8-5.09,10.2-.44.88-.91,1.75-1.34,2.64-.28.6.15,1.21.84,1.2Z"/>
</svg>