<?xml version="1.0" encoding="UTF-8"?>
<svg id="Capa_1" data-name="Capa 1" xmlns="http://www.w3.org/2000/svg" viewBox="0 0 52.38 63.86">
  <defs>
    <style>
      .cls-1 {
        fill: #d4191e;
      }
    </style>
  </defs>
  <path class="cls-1" d="M26.15,63.86c-8.11,0-16.22,0-24.33,0-.15,0-.29,0-.44,0-.83-.02-1.38-.57-1.38-1.41,0-1.76,0-3.51,0-5.27,0-.8,0-1.6,0-2.4.02-3.27,1.08-6.18,3.04-8.78,1.37-1.83,3.15-3.16,5.18-4.14,1.35-.65,2.8-1.03,4.31-1.16,1.5-.13,3.01-.05,4.51-.06.3,0,.42-.07.41-.39-.02-.85-.01-1.7,0-2.55,0-.22-.06-.39-.23-.54-1.68-1.55-2.95-3.39-3.79-5.53-.11-.29-.22-.58-.3-.88-.08-.31-.24-.41-.57-.42-1.57-.02-2.89-.6-3.9-1.82-1.52-1.84-1.56-4.35-.08-6.23.2-.25.18-.38-.04-.61-1.74-1.78-1.23-4.77,1.01-5.87.36-.18.49-.39.54-.77.31-2.72,1.36-5.12,3.11-7.22,1.68-2.02,3.79-3.43,6.29-4.25.35-.11.57-.26.68-.66.29-1.04.93-1.84,1.85-2.42.53-.34,1.13-.47,1.75-.48,1.53-.01,3.05.02,4.58-.01,1.94-.04,3.27,1.2,3.77,2.7.18.54.48.77.99.95,2.55.87,4.66,2.38,6.33,4.5,1.64,2.07,2.57,4.44,2.88,7.06.03.27.15.4.38.5,1.41.65,2.27,2.02,2.19,3.5-.05.98-.43,1.83-1.12,2.53-.17.17-.16.28-.02.46.7.86,1.09,1.85,1.12,2.95.06,2.24-1.3,4.09-3.2,4.82-.64.25-1.3.37-1.98.36-.24,0-.35.09-.42.31-.64,2.17-1.77,4.06-3.3,5.72-.27.3-.58.57-.88.84-.13.11-.18.24-.18.41,0,.9,0,1.81,0,2.71,0,.25.08.32.32.32,1.17,0,2.35-.02,3.52,0,3.71.09,6.86,1.48,9.45,4.11,2.39,2.42,3.71,5.34,4.1,8.71.04.31.05.62.05.93,0,2.63,0,5.25,0,7.88,0,1.07-.51,1.58-1.59,1.58-8.21,0-16.42,0-24.64,0ZM26.19,22.85c-3.6,0-7.2,0-10.81,0-.29,0-.4.08-.39.38.02.89.02,1.79,0,2.68-.02.95.05,1.89.23,2.82.53,2.78,1.89,5.08,4.06,6.89,2.65,2.21,5.72,2.94,9.07,2.3,4.84-.93,8.93-5.46,9.03-11.13.02-1.17,0-2.35,0-3.52,0-.4,0-.41-.42-.41-3.59,0-7.18,0-10.77,0ZM10.02,52.55c0,2.8,0,5.61,0,8.41,0,.28.07.38.37.37.58-.02,1.16-.02,1.74,0,.28,0,.35-.1.35-.36-.02-.67,0-1.35,0-2.02,0-.27,0-.54.08-.8.25-.91,1.31-1.21,2.01-.59.34.3.45.69.45,1.12,0,.78,0,1.56,0,2.34,0,.22.05.32.29.32,3.11,0,6.23,0,9.34,0,.21,0,.29-.07.29-.29,0-3.53,0-7.06,0-10.59,0-.17-.06-.29-.18-.41-.46-.45-.92-.9-1.36-1.37-1.66-1.75-3.31-3.5-4.95-5.26-.16-.17-.33-.25-.57-.25-.82.01-1.64.02-2.46,0-.31,0-.41.08-.41.4.01,2.34,0,4.67,0,7.01,0,.15,0,.29-.01.44-.07.69-.59,1.22-1.21,1.25-.6.03-1.15-.45-1.28-1.14-.03-.17-.03-.35-.03-.53,0-2.34,0-4.67,0-7.01,0-.3-.08-.35-.35-.29-.58.12-1.15.25-1.72.42-.29.09-.38.21-.38.52.01,2.77,0,5.54,0,8.32ZM42.36,52.57c0-2.79,0-5.59,0-8.38,0-.26-.07-.38-.33-.47-.59-.18-1.18-.31-1.78-.43-.29-.06-.35.02-.35.3.01,2.33,0,4.65,0,6.98,0,.15,0,.29-.01.44-.07.69-.59,1.22-1.21,1.25-.6.03-1.15-.45-1.28-1.14-.03-.17-.03-.35-.03-.53,0-2.36,0-4.71,0-7.07,0-.27-.07-.36-.35-.36-.85.02-1.7.01-2.55,0-.22,0-.36.08-.51.23-2.15,2.2-4.17,4.51-6.36,6.67-.11.11-.15.23-.15.39,0,3.52,0,7.04,0,10.56,0,.22.06.31.3.31,3.11,0,6.23,0,9.34,0,.22,0,.29-.08.29-.29,0-.74,0-1.47,0-2.21,0-.22.01-.44.07-.65.13-.46.42-.78.89-.92.46-.13.83.02,1.17.33.31.29.4.67.41,1.07,0,.79,0,1.58,0,2.37,0,.21.07.29.29.29.57-.01,1.14,0,1.71,0q.45,0,.45-.44c0-2.77,0-5.54,0-8.32ZM26.18,15.34c4.31,0,8.61,0,12.92,0,.11,0,.23,0,.34,0,.28.02.35-.12.3-.36-.05-.29-.09-.57-.16-.86-.95-3.79-3.23-6.43-6.82-7.94-.26-.11-.32-.04-.32.22,0,1.18,0,2.37,0,3.55,0,.53.01,1.06,0,1.59-.02.63-.38,1.1-.92,1.28-.46.15-.97-.02-1.31-.43-.25-.31-.31-.67-.31-1.05,0-2.3,0-4.61,0-6.91,0-.22-.02-.43-.06-.65-.15-.77-.71-1.22-1.48-1.22-1.44,0-2.89.02-4.33,0-.68-.01-1.09.3-1.37.87-.15.31-.19.63-.19.97,0,2.26,0,4.53,0,6.79,0,.15,0,.29,0,.44-.08.9-.88,1.48-1.65,1.2-.55-.2-.87-.69-.88-1.37,0-1.35,0-2.7,0-4.05,0-.35,0-.71,0-1.06,0-.19-.07-.25-.25-.16-.2.09-.4.17-.6.26-2.19.99-3.87,2.55-5.08,4.61-.69,1.18-1.13,2.46-1.35,3.82-.08.48-.08.49.41.49,4.37,0,8.74,0,13.11,0ZM26.23,17.87h0c-4.82,0-9.63,0-14.45,0-.26,0-.52.01-.78.05-.63.09-1.09.74-.97,1.37.14.69.62,1.03,1.45,1.03,9.71,0,19.41,0,29.12,0,.26,0,.52-.02.77-.07.54-.09.97-.63.96-1.18,0-.57-.41-1.05-.95-1.15-.24-.04-.47-.05-.71-.05-4.82,0-9.63,0-14.45,0ZM44.9,53.26c0,2.56,0,5.13,0,7.69,0,.28.07.38.37.37,1.4-.01,2.8-.02,4.2,0,.31,0,.38-.1.38-.39-.01-2.06,0-4.11,0-6.17,0-.41-.02-.83-.07-1.24-.41-3.31-1.93-6.01-4.54-8.08-.08-.07-.17-.2-.28-.14-.09.05-.04.19-.04.29,0,2.55,0,5.11,0,7.66ZM7.48,53.28c0-2.57,0-5.15,0-7.72,0-.09.04-.21-.04-.26-.09-.06-.14.05-.2.1-3.01,2.36-4.59,5.46-4.68,9.28-.05,2.1,0,4.19-.02,6.29,0,.29.09.37.37.37,1.38-.01,2.76,0,4.14,0q.43,0,.43-.42c0-2.54,0-5.09,0-7.63ZM19.98,40.27c0,.79,0,1.15.55,1.74.56.59,1.13,1.17,1.69,1.76,1.18,1.23,2.33,2.49,3.53,3.69.62.63.74.11,1.28-.45.54-.56,1.09-1.11,1.63-1.67,1.11-1.15,2.51-2.3,3.45-3.61.37-.51.29-1.02.29-1.63,0-.79.12-1.05-.67-.69-1.33.6-2.74,1-4.19,1.16-1.58.18-3.15.03-4.69-.37-.7-.18-1.37-.43-2.03-.72-.15-.07-.65-.43-.81-.26-.13.13-.02.86-.02,1.04ZM39.92,25.31s0,0,0,0c0,.62,0,1.24,0,1.86,0,.66-.14.73.68.51,1.15-.3,1.79-1.27,1.72-2.55-.05-1.14-.86-2.02-2.05-2.25-.26-.05-.36,0-.35.28.01.71,0,1.43,0,2.14ZM12.47,25.31s0,0,0,0c0-.72,0-1.43,0-2.15,0-.25-.07-.33-.33-.28-1.38.25-2.17,1.29-2.07,2.76.07,1.02,1.05,2.01,2.06,2.1.26.02.35-.05.34-.32-.02-.7,0-1.41,0-2.11Z"/>
  <path class="cls-1" d="M13.76,53.48c1.1,0,1.57,1.4.84,2.14-.75.76-2.1.22-2.11-.86,0-.67.6-1.27,1.28-1.27Z"/>
  <path class="cls-1" d="M38.68,53.48c1.1,0,1.57,1.41.83,2.14-.76.76-2.1.22-2.11-.87,0-.67.6-1.27,1.28-1.27Z"/>
</svg>