<?xml version="1.0" encoding="UTF-8"?>
<svg id="Capa_1" data-name="Capa 1" xmlns="http://www.w3.org/2000/svg" viewBox="0 0 64.05 63.86">
  <defs>
    <style>
      .cls-1 {
        fill: #d4191e;
      }
    </style>
  </defs>
  <path class="cls-1" d="M64.05,31.95c0,9.71,0,19.43,0,29.14,0,.83-.36,1.2-1.19,1.2-3.72,0-7.45,0-11.17,0-.73,0-1.11-.3-1.18-1.02-.18-1.73-1.12-2.92-2.6-3.74-.47-.26-.94-.52-1.41-.8-2.67-1.6-3.69-4.76-2.49-7.64.61-1.46,1.69-2.43,3.05-3.15.62-.33,1.24-.65,1.81-1.07,1.96-1.43,2.07-4.82-.08-6.37-.66-.47-1.38-.83-2.08-1.22-4.09-2.29-4.3-7.85-.49-10.42.67-.45,1.4-.78,2.09-1.21,1.05-.65,1.81-1.53,1.99-2.79.24-1.65-.24-3.11-1.73-4.1-.62-.41-1.29-.75-1.94-1.11-3.93-2.17-4.2-7.77-.49-10.31.56-.38,1.16-.71,1.75-1.03,1.49-.8,2.4-1.99,2.6-3.7.09-.76.46-1.07,1.22-1.07,3.72,0,7.45,0,11.17,0,.78,0,1.16.38,1.16,1.17,0,9.75,0,19.49,0,29.24h0ZM55.12,31.92h0c0-8.46,0-16.92,0-25.38,0-.86-.01-1.72.01-2.59,0-.36-.12-.45-.46-.44-.65.02-1.31.02-1.96,0-.27,0-.38.09-.45.35-.46,1.71-1.43,3.04-2.98,3.92-.67.38-1.36.73-1.98,1.18-1.11.79-1.79,1.83-1.8,3.24-.01,1.65.74,2.85,2.13,3.69.75.45,1.55.8,2.25,1.34,1.64,1.27,2.56,2.93,2.5,5.01-.07,2.29-1.13,4.05-3.16,5.19-.64.36-1.3.7-1.9,1.11-1.7,1.16-2.29,3.18-1.46,5.05.43.97,1.21,1.6,2.12,2.09.62.33,1.24.66,1.81,1.07,1.76,1.27,2.68,3,2.59,5.16-.09,2.23-1.14,3.96-3.11,5.08-.66.38-1.34.71-1.97,1.14-2.01,1.38-2.41,4.04-.88,5.93.55.68,1.29,1.1,2.05,1.48,1.9.97,3.3,2.36,3.82,4.5.05.21.19.26.38.25.67,0,1.33,0,2,0q.46,0,.46-.45c0-9.31,0-18.62,0-27.93ZM62.07,31.95v-2.45c0-8.49,0-16.99,0-25.48q0-.5-.48-.5c-1.34,0-2.69,0-4.03,0q-.48,0-.48.48c0,6.84,0,13.68,0,20.51,0,11.77,0,23.54,0,35.31q0,.48.47.48c1.33,0,2.67,0,4,0q.52,0,.52-.53c0-9.27,0-18.55,0-27.82Z"/>
  <path class="cls-1" d="M20.19,31.91c0,3.91,0,7.81,0,11.72,0,1.18-.72,2.05-1.86,2.26-.55.1-1.05-.04-1.52-.32-2.12-1.25-4.23-2.5-6.35-3.75-.53-.32-1.08-.61-1.6-.95-.38-.25-.78-.34-1.24-.33-1.7.02-3.4.01-5.1,0-.71,0-1.37-.16-1.88-.7-.41-.44-.64-.95-.64-1.55C0,34.06,0,29.82,0,25.57c0-1.2.9-2.17,2.1-2.23,1.92-.1,3.83-.09,5.75,0,.3.01.56-.07.82-.22,1.88-1.14,3.75-2.27,5.64-3.4.88-.52,1.77-1.03,2.66-1.53.83-.47,1.64-.36,2.38.2.61.46.85,1.1.85,1.84,0,3.06,0,6.11,0,9.17,0,.84,0,1.68,0,2.52ZM18.21,31.89c0-3.8,0-7.61,0-11.41,0-.61-.16-.7-.69-.38-.47.28-.93.59-1.41.87-2.32,1.35-4.64,2.72-6.93,4.13-.27.17-.57.23-.89.23-1.95,0-3.91,0-5.86,0-.27,0-.4.08-.4.37,0,.6-.04,1.19-.05,1.79,0,1.87-.01,3.75,0,5.62.01,1.64-.06,3.29.04,4.93.03.49.03.49.53.49,1.91,0,3.82,0,5.72,0,.36,0,.67.08.98.27.59.36,1.19.7,1.78,1.06,2.22,1.33,4.44,2.65,6.66,3.98.36.21.49.14.52-.28,0-.11,0-.23,0-.34,0-3.77,0-7.54,0-11.31Z"/>
  <path class="cls-1" d="M31.02,59.97c2.21-2.71,4.44-5.41,6.68-8.1.26-.31,1.39-1.31,1.27-1.74-.13-.48-1.37-1.28-1.76-1.64-.47-.43-1.32-1-1.18-1.74.13-.74.92-.97,1.5-.65.7.39,1.31,1.15,1.89,1.7.56.53,1.24,1.05,1.71,1.66.87,1.13-1.12,2.71-1.81,3.55-1.12,1.37-2.25,2.75-3.38,4.12-.55.67-1.09,1.34-1.65,2-.32.39-1.53,1.37-1.54,1.87.32.19,1.3-.27,1.63-.36.52-.14,1.25-.49,1.8-.39.96.18,1.05,1.38.25,1.81-1.04.56-2.5.73-3.64,1.05-.84.23-2.48,1.06-3.35.64-.93-.45-.52-2.2-.5-3.02.03-1.21-.13-2.63.12-3.82.19-.89,1.31-1.29,1.84-.41.25.42.16.96.13,1.42-.04.67-.01,1.36-.11,2.02.03.01.06.02.09.03Z"/>
  <path class="cls-1" d="M31.04,3.84c0,.96.2,2.13.01,3.07-.16.77-1.02,1.31-1.68.67-.63-.62-.37-2.09-.39-2.9-.03-1.16-.14-2.36-.07-3.51.05-.75.36-1.21,1.15-1.16,1.14.07,2.4.64,3.5.95.89.25,2.37.37,3.08.97.8.68.16,1.74-.78,1.68-.59-.04-1.23-.32-1.81-.48-.13-.03-.99-.37-1.11-.27-.26.23,1.5,2.08,1.75,2.38,1.6,1.93,3.19,3.86,4.79,5.79.54.66,1.75,1.68,1.92,2.55.19.91-1.29,1.84-1.87,2.37-.64.59-1.54,1.8-2.39,2.03-1.21.32-1.38-1.09-.78-1.79.47-.54,1.09-1.01,1.62-1.5.29-.26,1.04-.69,1-1.13-.04-.41-.99-1.24-1.24-1.54-.45-.53-.9-1.07-1.35-1.61-1.75-2.1-3.42-4.28-5.22-6.34-.04-.05-.07-.12-.14-.22Z"/>
  <path class="cls-1" d="M34.02,31.7c-.09-3.46-1.24-6.77-3.41-9.47-.44-.55-1.33-1.21-1-2,.44-1.06,1.45-.47,1.95.1,1.14,1.29,2.1,2.73,2.83,4.29,1.57,3.36,2.04,7.19,1.25,10.82-.39,1.8-1.04,3.56-1.95,5.17-.42.74-.9,1.46-1.44,2.12-.44.54-1.13,1.62-1.96,1.43-1.3-.29-.55-1.53-.04-2.12.67-.79,1.28-1.61,1.79-2.5,1.01-1.77,1.64-3.74,1.88-5.76.08-.68.13-1.37.1-2.07Z"/>
  <path class="cls-1" d="M31.23,32.4c-.06,1.49-.36,2.96-.9,4.35-.53,1.37-1.33,3.06-2.44,4.06-.47.42-1.19.55-1.58-.08-.37-.61.08-1.11.44-1.57.97-1.28,1.72-2.7,2.11-4.26.82-3.29.25-6.86-1.69-9.66-.35-.5-1.12-1.12-.99-1.8.12-.64.82-.94,1.37-.68.62.29,1.13,1.24,1.49,1.79.48.73.88,1.51,1.19,2.33.63,1.62,1.02,3.29,1.01,5.53Z"/>
  <path class="cls-1" d="M26.75,32.33c-.05,1.05-.37,2.09-.92,2.99-.46.76-1.38,2.06-2.31,2.22-1.2.22-1.36-1.13-.69-1.78.71-.69,1.33-1.31,1.68-2.27.64-1.81.09-3.79-1.29-5.09-.4-.37-.96-.75-.83-1.38.09-.44.53-.76.97-.75,1.03.02,2.03,1.53,2.48,2.31.6,1.04.91,2.18.91,3.76Z"/>
</svg>