<?xml version="1.0" encoding="UTF-8"?>
<svg id="Capa_1" data-name="Capa 1" xmlns="http://www.w3.org/2000/svg" viewBox="0 0 64.42 63.87">
  <defs>
    <style>
      .cls-1 {
        fill: #d4191e;
      }
    </style>
  </defs>
  <path class="cls-1" d="M43.52,27.48c0,1.93.02,3.81,0,5.7-.05,4.71-2.22,8.14-6.35,10.32-.68.36-.97.71-.96,1.5.03,2.58-.3,3-2.72,3.87,0,3.07-.09,6.17.03,9.27.08,2.14,2.06,3.52,4.16,3.12,3.99-.77,7.69-2.25,11.06-4.54.17-.12.34-.24.52-.35.74-.47,1.5-.68,2.07.21.53.84.08,1.49-.65,1.87-2.69,1.41-5.37,2.87-8.15,4.11-1.39.62-2.96.89-4.47,1.2-3.64.73-7.05-2.01-7.11-5.74-.05-3.05-.01-6.11-.01-9.13-2.43-.84-2.78-1.3-2.75-3.87,0-.79-.28-1.14-.96-1.5-4.13-2.18-6.3-5.61-6.35-10.32-.02-1.88,0-3.77,0-5.52-.83-.61-1.68-1.05-2.28-1.7-2.25-2.43-1.34-6.37,1.79-7.55.95-.36,1.14-.82,1.12-1.72-.06-2.09-.07-4.19,0-6.28.08-2.32,1.53-3.84,3.59-3.91,2.06-.07,3.72,1.24,3.86,3.3.16,2.29.13,4.6.09,6.91-.02,1.02.24,1.43,1.32,1.35,1.29-.09,2.6-.07,3.9,0,.85.04,1.08-.3,1.06-1.09-.04-2.14-.05-4.27,0-6.41.06-2.41,1.49-3.98,3.58-4.05,2.06-.08,3.74,1.22,3.88,3.28.16,2.29.13,4.6.09,6.91-.01.9.15,1.38,1.12,1.72,1.86.66,2.88,2.13,3.01,4.1.13,2.03-.81,3.54-2.57,4.53-.25.14-.53.25-.92.43ZM23.42,27.68c0,2.16-.09,4.21.02,6.24.22,4.38,3.61,7.73,8.18,8.21,3.93.41,8.19-2.44,9-6.46.52-2.57.37-5.28.52-8h-17.72ZM32.2,25.09c1.89,0,3.77,0,5.66,0,1.47,0,2.94.05,4.4-.03,1.41-.08,2.33-1.11,2.26-2.36-.07-1.21-1.01-2.09-2.37-2.1-6.62-.02-13.24-.02-19.87,0-1.31,0-2.23.8-2.38,1.96-.18,1.41.91,2.51,2.61,2.53,3.23.03,6.45,0,9.68.01ZM26.5,17.98c0-2.66.05-5.2-.05-7.74-.02-.41-.69-1.03-1.15-1.12-.32-.06-1.12.6-1.13.96-.1,2.61-.05,5.22-.05,7.9h2.39ZM37.94,17.96h2.39c0-2.63.05-5.17-.05-7.71-.02-.42-.69-1.03-1.14-1.13-.32-.06-1.12.6-1.13.95-.1,2.61-.05,5.22-.05,7.88ZM33.66,44.67h-2.9v1.46h2.9v-1.46Z"/>
  <path class="cls-1" d="M31.17,0c17.19.07,30.56,11.54,32.9,27.53,1.23,8.39-.73,16.12-5.55,23.1-.3.44-.95.73-1.5.88-.24.06-.87-.42-.88-.67-.02-.57.14-1.2.39-1.72,1.3-2.7,2.98-5.27,3.93-8.08,5.52-16.27-5.01-34.34-21.85-37.75-8.23-1.67-15.88-.32-22.93,4.26-.18.11-.35.23-.54.33-.71.39-1.41.43-1.87-.32-.46-.74-.17-1.42.54-1.81,2.35-1.27,4.65-2.66,7.11-3.67C24.51.58,28.32.01,31.17,0Z"/>
  <path class="cls-1" d="M15.63,54.05c-.02,2.17-1.31,4.05-3.34,4.86-2,.8-4.27.31-5.78-1.25-1.49-1.53-1.95-3.86-1.01-5.81.36-.76.38-1.28-.11-2.01-7.23-10.93-7.16-24.73.12-35.7.54-.82,1.13-1.65,2.19-.94,1,.67.46,1.52-.05,2.29-3.58,5.35-5.26,11.26-5.04,17.68.19,5.46,1.78,10.52,4.75,15.13.4.62.73.78,1.51.57,3.54-.95,6.79,1.58,6.76,5.18ZM10.37,51.21c-1.56-.02-2.8,1.18-2.81,2.73-.01,1.54,1.22,2.82,2.74,2.84,1.52.02,2.79-1.23,2.8-2.77.02-1.57-1.17-2.79-2.73-2.8Z"/>
  <path class="cls-1" d="M9.92,11.81c-.33-.45-.99-.97-.92-1.33.1-.5.76-.89,1.18-1.33.4.4,1.09.77,1.13,1.2.04.46-.53.98-.83,1.47-.19,0-.38,0-.56-.01Z"/>
  <path class="cls-1" d="M54.34,52.56c.33.48.94.98.91,1.44-.03.43-.73.82-1.13,1.23-.43-.42-1.09-.79-1.21-1.29-.08-.37.55-.9.87-1.35.19,0,.38-.02.57-.03Z"/>
  <path class="cls-1" d="M31.55,35.18c-.85-.46-2.02-.73-2.16-1.26-.16-.63.48-1.55.94-2.23.67-1,1.48-1.92,2.25-2.86.5-.61,1.09-.97,1.84-.42.78.57.67,1.27.16,1.97-.42.57-.87,1.11-1.33,1.69,2.22.57,2.41,1.03,1.33,2.94-.64,1.13-1.27,2.25-1.91,3.38-.43.77-1.01,1.33-1.91.79-.89-.53-.7-1.32-.28-2.08.38-.69.77-1.38,1.08-1.92Z"/>
</svg>