<?xml version="1.0" encoding="UTF-8"?>
<svg id="Capa_1" data-name="Capa 1" xmlns="http://www.w3.org/2000/svg" viewBox="0 0 25 25">
  <defs>
    <style>
      .cls-1 {
        fill: #fff;
      }

      .cls-2 {
        fill: #d4191e;
      }
    </style>
  </defs>
  <circle class="cls-2" cx="12.5" cy="12.5" r="12.5"/>
  <path class="cls-1" d="M5.8,6.43v12.66h2.81v-.7h.01c.07-1.07.83-1.95,2.02-2.43-.39-.48-.63-1.1-.63-1.78,0-1.45,1.15-2.71,2.6-2.82.6-.04,1.16.09,1.63.36v.02c.12.07.24.15.35.24.31-.25.67-.43,1.06-.53v-5.03H5.8ZM8.62,9.24h1.41v1.41h-1.41v-1.41ZM11.43,9.24h1.41v1.41h-1.41v-1.41ZM8.62,12.06h1.41v1.41h-1.41v-1.41ZM12.84,12.76c-.78,0-1.41.63-1.41,1.41s.63,1.41,1.41,1.41,1.41-.63,1.41-1.41-.63-1.41-1.41-1.41ZM16.36,12.76c-.78,0-1.41.63-1.41,1.41s.63,1.41,1.41,1.41,1.41-.63,1.41-1.41-.63-1.41-1.41-1.41ZM8.62,14.87h1.41v1.41h-1.41v-1.41ZM12.84,16.98c-1.54,0-2.81.64-2.81,1.56v.55h9.14v-.55c0-.92-1.28-1.56-2.81-1.56-.66,0-1.27.13-1.76.34-.49-.21-1.09-.34-1.76-.34Z"/>
</svg>