<?xml version="1.0" encoding="UTF-8"?>
<svg id="Capa_1" data-name="Capa 1" xmlns="http://www.w3.org/2000/svg" viewBox="0 0 74.42 63.87">
  <defs>
    <style>
      .cls-1 {
        fill: #d4191e;
      }
    </style>
  </defs>
  <path class="cls-1" d="M.04,36.91c0-1.6-.09-3.24,0-4.84.08-1.48,1.3-1.89,2.45-2.56,1.38-.81,2.75-1.62,4.14-2.39.6-.33,1.21-.53,1.41-1.23.18-.64,0-1.57,0-2.22,0-1.55,0-3.11,0-4.66,0-.59.04-3.29,1.38-2.05.39.36.28.98.28,1.45,0,.79,0,1.58,0,2.36,0,.79,0,1.58,0,2.36,0,.29-.19,1.94.05,2.08.3.17,3.13-1.62,3.47-1.9.92-.78-.25-2.78.92-3.29,1.48-.65.8,1.77,1.25,1.95.3.12,1.82-1.03,2.12-1.2.77-.44,1.53-.88,2.3-1.33,2.92-1.69,5.84-3.37,8.76-5.06,1.4-.81,2.8-1.63,4.2-2.44.7-.41,1.4-.82,2.1-1.22.54-.31,1.7-.7,1.98-1.28.19-.39.03-1.17.03-1.61,0-.85.02-1.7.02-2.54,0-.71.01-1.41.02-2.12,0-.74-.25-2.08.13-2.74.21-.37.66-.55,1.05-.33.58.32.41,1.15.41,1.69,0,1.68,0,3.37,0,5.05,0,1.03-.45,2.99.4,3.68.46.37,3.31,2.05,3.54,1.77.24-.29.01-1.64.01-2.02,0-.88,0-1.77,0-2.65,0-.74,0-1.47,0-2.21,0-.56-.2-1.66.36-2.05,1.45-1.01,1.28,1.8,1.28,2.41,0,1.78,0,3.55,0,5.33,0,.61-.24,1.75.1,2.3.28.45.98.69,1.42.95.51.3,1.46,1.16,2.04,1.22.22.02.19.19.35.06.16-.13.04-.98.04-1.17,0-1.6,0-3.21,0-4.81,0-.62-.44-3.92,1.16-3.16.93.44.49,2.9.49,3.7,0,1.7,0,3.4-.01,5.11,0,.52-.12,1.09.24,1.52.43.52,1.48.87,2.06,1.22.22.13,1.2.92,1.46.8.34-.15.13-1.67.13-1.99,0-1.53.03-3.06.05-4.59,0-.56-.22-3.41,1.25-2.5.87.54.37,2.85.36,3.68-.04,1.75-.01,3.49-.02,5.24,0,.56-.09.98.29,1.39.48.51,1.52.86,2.13,1.21.27.15,1.13.86,1.41.75.33-.13.13-1.6.13-1.92,0-1.51,0-3.01.01-4.52,0-.63-.21-1.78.14-2.33.29-.46.92-.54,1.28-.12.43.51.21,1.67.21,2.27,0,.74,0,1.48,0,2.22,0,.89,0,1.78,0,2.66,0,.71-.19,1.77,0,2.46.28.98,2.3,1.68,3.16,2.17.76.43.78.43.79-.45,0-.85,0-1.7,0-2.54,0-1.55-.08-3.12,0-4.66.03-.55.16-1.25.89-1.2.76.05.74.9.76,1.46.04,1.52-.08,3.06-.08,4.59,0,1.14-.44,3.68.39,4.46.47.44,1.29.73,1.86,1.05.74.42,1.48.84,2.23,1.26.99.57,3.21,1.33,3.52,2.49.15.59.01,1.45.01,2.05,0,.89,0,1.77,0,2.66,0,1.77.02,3.55,0,5.32-.02,1.54-.95,1.79-2.2,2.51-.52.3-3.2,2.13-3.03.27.1-1.1,2.27-1.48,2.99-2.09.94-.79.59-2.27.57-3.36-.02-1.54,0-3.09,0-4.63,0-.16.11-.91.02-1.03-.21-.28-.12-.09-.41-.03-.66.12-1.64.92-2.24,1.27-5.78,3.3-11.5,6.72-17.25,10.06-2.92,1.69-5.83,3.38-8.75,5.07-1.37.79-2.74,1.57-4.11,2.36-.45.26-1.31.57-1.63,1.01-.41.56-.15,1.89-.15,2.55-.01,1.58-.05,3.15-.04,4.73,0,.29-.13,1.4.21,1.53.35.13,2.1-1.19,2.46-1.4,2.85-1.65,5.7-3.3,8.55-4.96,2.85-1.66,5.7-3.32,8.56-4.97.47-.27,1.09-.76,1.63-.36.51.38.33.91-.03,1.27-.53.53-1.45.88-2.09,1.26-.77.45-1.54.89-2.3,1.34-2.94,1.71-5.87,3.42-8.82,5.11-1.38.79-2.75,1.58-4.13,2.38-.75.43-1.5.86-2.25,1.3-.67.39-1.47,1.08-2.23,1.25-1.2.27-3.15-1.36-4.14-1.93-1.55-.89-3.09-1.77-4.64-2.66-2.96-1.7-5.91-3.41-8.87-5.12-5.79-3.34-11.59-6.66-17.37-10-1.1-.63-2.54-1.01-2.6-2.42-.08-1.59,0-3.2,0-4.79h0ZM13.57,30.49h.02c0-.83,0-1.67,0-2.5,0-.69.23-1.86,0-2.5-.2-.55-.23-.41-.82-.07-.69.39-1.36.8-2.05,1.19-.96.55-1.03.69-1.03,1.79,0,.8,0,1.6,0,2.4,0,.55.19,1.65-.25,2.08-.36.35-.97.3-1.25-.13-.44-.67.36-4.32-.26-4.53-.33-.11-1.72.98-2.03,1.16-.73.43-1.45.85-2.18,1.28-.15.09-1.03.46-1.03.69,0,.1.31.26.3.25.37.51,1.62.94,2.17,1.25,1.49.86,2.99,1.72,4.48,2.58,3.18,1.83,6.36,3.67,9.54,5.5,3.17,1.83,6.35,3.66,9.52,5.49,1.5.87,3,1.73,4.5,2.6.75.43,1.5.87,2.25,1.3.51.29,1.36,1.06,1.98,1,.77-.07,1.86-1.03,2.52-1.42.75-.44,1.51-.88,2.26-1.32,1.51-.88,3.02-1.75,4.53-2.63,3.21-1.86,6.43-3.71,9.64-5.57,3.02-1.75,6.02-3.52,9.04-5.27,1.65-.96,3.31-1.92,4.97-2.88.53-.31,1.46-.53,1.16-1.08-.26-.47-1.75-1.01-2.23-1.3-.5-.29-.99-.58-1.49-.87-.22-.13-.86-.66-1.11-.66-.63,0-.35.89-.35,1.5,0,.6.21,3.41-1.25,2.51-.57-.35-.4-1.32-.4-1.86,0-.8.02-1.6,0-2.4-.01-.77-.06-.87-.72-1.27-.69-.42-1.4-.81-2.1-1.21-.81-.47-1.07-.83-1.08.24,0,.8.14,1.72-.01,2.5-.11.55-.51,1.14-1.16.84-.59-.28-.47-1.05-.47-1.58,0-.94.01-1.89,0-2.83,0-.86-.21-.9-.98-1.33-.75-.42-1.49-.87-2.25-1.27-.94-.49-.72.03-.73.9,0,.7.25,2-.2,2.6-.35.48-1,.45-1.32-.03-.32-.49-.13-1.43-.13-1.97,0-.7,0-1.39,0-2.09,0-1.01-.5-1.08-1.36-1.57-.42-.24-1.81-1.37-2.26-1.3-.39.05-.05-.16-.27.16-.11.15-.01,1.03-.01,1.24,0,.63.21,1.7-.12,2.27-.32.53-1.06.55-1.39,0-.33-.55-.11-1.7-.11-2.32,0-.63.22-1.73-.02-2.31-.23-.54-1.2-.85-1.69-1.13-.33-.19-1.76-1.3-2.11-1.16-.33.12-.13,1.51-.13,1.8,0,.6.23,1.73-.32,2.16-.4.32-.95.17-1.22-.22-.39-.57-.1-2.01-.1-2.68,0-.66.22-1.73-.18-2.27-.41-.54-1.71-.99-2.3-1.34-.2-.11-.94-.69-1.15-.67-.42.05-.12-.11-.31.24-.33.6.73,4.54-1.12,3.86-1.04-.38-.53-3.16-.53-4,0-.94,0-.94-.83-.47-.75.43-1.5.87-2.24,1.31-1.5.87-2.99,1.75-4.49,2.62-2.99,1.74-5.98,3.48-8.98,5.2-.87.5-1.75,1-2.62,1.5-.64.37-1.58.7-2.11,1.22-.5.49-.38,1.08-.37,1.74.01.86,0,1.72,0,2.58,0,.32-.21,1.99.11,2.12.3.12,1.46-.82,1.73-.97.55-.33,1.59-.69,1.97-1.2.38-.51.16-1.64.17-2.25.01-.66-.24-1.94.34-2.4.47-.37,1-.13,1.2.38.26.64.06,1.67.06,2.35,0,.69-.12.76.45.65.81-.15,1.84-1.03,2.55-1.44.72-.42,1.44-.85,2.17-1.27,1.47-.87,2.95-1.71,4.43-2.57,1.66-.96,3.31-1.93,4.96-2.9.59-.35,1.3-.98,2.03-.83.67.14,1.44.79,2.04,1.13,3.05,1.74,6.09,3.51,9.13,5.27,3.2,1.85,6.41,3.67,9.58,5.55.56.33,2,.86,2.13,1.59.11.63-.75.99-1.18,1.24-1.51.89-3.02,1.77-4.54,2.65-3.02,1.77-6.05,3.53-9.08,5.29-1.64.95-3.28,1.9-4.92,2.85-.76.44-1.53.86-2.27,1.31-.82.51-.75.79-.75,1.73,0,.55.22,3.85-1.31,2.71-.53-.4-.34-1.32-.34-1.88,0-.71.2-1.75,0-2.42-.21-.73-1.1-.99-1.74-1.37-.37-.21-1.58-1.21-1.98-1.14-.62.1-.06,2.56-.28,3.14-.21.55-.86.86-1.35.41-.47-.43-.26-1.47-.26-2.03,0-.67.24-1.82-.02-2.44-.24-.57-1.28-.92-1.79-1.22-.29-.17-1.73-1.31-2.06-1.13-.28.15-.08,1.5-.08,1.77,0,.55.19,1.49-.32,1.88-.45.35-1,.12-1.23-.34-.31-.61-.09-1.68-.09-2.33,0-.55.22-1.58-.12-2.05-.37-.51-1.45-.86-1.99-1.17-.2-.12-1.42-1-1.66-.91-.34.12-.13,1.87-.13,2.21,0,.56.05,1.35-.64,1.53-1.46.4-1-2.54-1-3.24,0-.93.18-1.43-.63-1.95-.72-.46-1.47-.87-2.2-1.3-.55-.33-.84-.75-1.13-.21-.27.51.05,1.77,0,2.36-.08,1.13-1.34,1.65-1.62.33-.16-.76-.02-1.69-.02-2.46,0-.86,0-1.73,0-2.59ZM36.53,57.25c0-1.36,0-2.72,0-4.07,0-.26-.07-.42-.31-.54-.61-.32-1.22-.66-1.82-1-2.71-1.56-5.42-3.13-8.14-4.69-5.04-2.91-10.09-5.81-15.13-8.72-3-1.73-5.99-3.48-8.99-5.22-.43-.25-.45-.24-.45.25,0,2.66,0,5.33,0,7.99,0,.32.09.52.37.68,1,.56,1.99,1.13,2.99,1.7,5.52,3.18,11.03,6.36,16.55,9.55,4.82,2.78,9.65,5.56,14.47,8.34.42.24.45.22.45-.27,0-1.33,0-2.66,0-3.99ZM31.93,34.98s0,0,.01,0c0,1.58.01,3.17,0,4.75,0,.37.12.58.44.76,1.04.57,2.06,1.17,3.1,1.75.12.07.23.26.37.16.11-.08.05-.28.05-.42,0-2.64,0-5.27,0-7.91,0-.21,0-.43.05-.63.09-.39.4-.64.77-.63.39,0,.64.22.78.58.07.18.06.37.06.55,0,1.29,0,2.58,0,3.87,0,1.65,0,3.3,0,4.95,0,.3.06.41.35.2.15-.11.32-.2.48-.29,4.16-2.42,8.31-4.84,12.47-7.26.52-.3.51-.31-.02-.62-.01,0-.02-.01-.03-.02-4.42-2.55-8.84-5.1-13.25-7.66-.3-.17-.54-.19-.85-.01-1.5.88-3.02,1.75-4.53,2.62-.18.1-.23.23-.23.42,0,1.61,0,3.22,0,4.83ZM37.94,22.73s0,0,0,0c0,.77.01,1.55,0,2.32,0,.34.11.53.41.69,1.99,1.12,3.96,2.25,5.94,3.39,2.77,1.6,5.54,3.2,8.31,4.8.29.17.53.22.85.03,1.35-.81,2.71-1.6,4.08-2.38.28-.16.29-.24,0-.4-.88-.51-1.74-1.03-2.62-1.54-3.55-2.04-7.09-4.08-10.64-6.11-1.97-1.12-3.88-2.35-5.87-3.42-.41-.22-.43-.21-.43.26,0,.79,0,1.57,0,2.36ZM36.3,22.77h0c0-.48.25-2.64-.25-2.69-.23-.03-.74.4-.94.52-.51.29-1.01.59-1.51.88-2.02,1.17-4.04,2.34-6.06,3.51-1.75,1.01-3.5,2.02-5.25,3.03-.85.49-1.46.64-1.47,1.68-.01.98,0,1.96,0,2.94,0,.7-.08,1.7.9,1.34.79-.29,1.65-.93,2.36-1.37.86-.53.7-1.12.7-2.07,0-.95-.05-1.93,0-2.88.03-.59.16-1.4.94-1.25.94.18.69,1.49.68,2.15,0,.43-.29,2.39.04,2.59.32.2,2-1.07,2.28-1.23,1.76-1.05,3.54-2.07,5.32-3.1.61-.35,1.93-.79,2.23-1.46.27-.61.03-1.91.03-2.57ZM26.34,35.32c0,.55,0,.98,0,1.4,0,.48,3.67,2.66,3.94,2.43.27-.23.02-2.4.02-2.76,0-.85,0-1.7.01-2.56,0-.65.3-2.12.05-2.68-.23-.51-1.12.28-1.52.52-.64.37-1.75.74-2.21,1.29-.41.5-.35,1.7-.29,2.36ZM19.17,31.33h.01c0-.82.33-1.66-.63-1.13-.29.16-1.86.8-1.86,1.16,0,.28,1.81,1.21,2.02,1.27.79.25.46-.62.46-1.3ZM24.77,35.07h0c0-.68.13-1.02-.57-.7-.28.13-1.1.47-1.04.77.02.12,1.29.86,1.42.84.34-.07.2-.57.2-.9Z"/>
  <path class="cls-1" d="M67.31,46.21c.06.76-1.52,1.34-2.04,1.64-.58.34-1.74,1.31-2.42.97-1.8-.91,2.76-3.04,3.4-3.35.5-.24,1.05.16,1.06.74Z"/>
</svg>