<?xml version="1.0" encoding="UTF-8"?>
<svg id="Capa_1" data-name="Capa 1" xmlns="http://www.w3.org/2000/svg" viewBox="0 0 49.89 63.86">
  <defs>
    <style>
      .cls-1 {
        fill: #d4191e;
      }
    </style>
  </defs>
  <path class="cls-1" d="M49.89,31.93c0,10.15,0,20.29,0,30.44,0,.12,0,.25,0,.37-.02.65-.42,1.07-1.06,1.11-.1,0-.21,0-.31,0-15.72,0-31.44,0-47.16,0-.11,0-.23,0-.34,0-.55-.05-.96-.46-1-1.01,0-.13,0-.27,0-.4,0-20.34,0-40.67,0-61.01,0-.13,0-.27,0-.4C.05.47.45.06,1.01,0c.12-.01.25,0,.37,0,15.72,0,31.44,0,47.16,0,.11,0,.23,0,.34,0,.55.05.96.46,1,1.02.01.14,0,.29,0,.44,0,10.16,0,20.32,0,30.47ZM47.85,31.96c0-9.81,0-19.63,0-29.44q0-.48-.47-.48c-14.96,0-29.92,0-44.89,0q-.45,0-.45.46c0,19.62,0,39.24,0,58.86q0,.46.45.46c14.96,0,29.92,0,44.89,0q.47,0,.47-.48c0-9.79,0-19.59,0-29.38Z"/>
  <path class="cls-1" d="M23.97,31.93c0,9.21,0,18.43,0,27.64,0,.36-.04.71-.31.98-.26.26-.59.33-.94.33-2.34,0-4.67,0-7.01,0-3.79,0-7.58,0-11.37,0-.95,0-1.35-.39-1.35-1.33,0-18.4,0-36.81,0-55.21,0-.75.25-1.15.82-1.29.15-.04.31-.04.46-.04,6.15,0,12.29,0,18.44,0,.84,0,1.25.42,1.25,1.27,0,9.22,0,18.45,0,27.67ZM21.93,44.65c0-4.57,0-9.14,0-13.71,0-.08,0-.17,0-.25,0-.07.03-.16-.06-.19-.06-.02-.11.05-.15.09-.11.11-.22.22-.33.33-2.16,2.17-4.33,4.33-6.49,6.51-.18.18-.29.18-.45,0-.29-.31-.6-.6-.9-.9-.29-.29-.29-.29,0-.58,2.71-2.71,5.42-5.42,8.13-8.13.14-.14.26-.29.26-.51,0-.87,0-1.74,0-2.62,0-.06.02-.14-.05-.17-.07-.03-.11.04-.16.08-.05.05-.1.1-.15.15-5.42,5.42-10.83,10.84-16.26,16.26-.2.2-.29.39-.29.68,0,5.57,0,11.13,0,16.7q0,.44.44.44c5.34,0,10.67,0,16.01,0q.44,0,.44-.44c0-4.58,0-9.16,0-13.74ZM5.03,38.39c.18-.07.26-.17.34-.26,5.4-5.4,10.79-10.79,16.2-16.19.25-.25.37-.51.37-.88,0-5.19,0-10.39,0-15.58q0-.46-.46-.46c-5.32,0-10.63,0-15.95,0q-.49,0-.49.48c0,8.83,0,17.66,0,26.48,0,.07,0,.15,0,.22,0,.05-.01.11.04.14.07.04.11-.03.16-.07.05-.05.1-.1.16-.15,2.55-2.56,5.11-5.11,7.66-7.67.2-.2.32-.18.5,0,.29.31.59.62.91.9.23.2.21.33,0,.54-3,2.98-5.98,5.98-8.98,8.95-.33.33-.47.66-.45,1.11.03.79,0,1.57,0,2.41Z"/>
  <path class="cls-1" d="M25.92,46.9c0-4.22,0-8.43,0-12.65,0-.96.39-1.35,1.33-1.35,6.12,0,12.23,0,18.35,0,.89,0,1.3.4,1.3,1.29,0,8.46,0,16.93,0,25.39,0,.87-.4,1.28-1.27,1.28-6.15,0-12.29,0-18.44,0-.86,0-1.27-.42-1.27-1.29,0-4.23,0-8.45,0-12.68ZM36.41,58.83c2.67,0,5.34,0,8.01,0q.44,0,.44-.44c0-4.19,0-8.37,0-12.56,0-.07,0-.15,0-.22,0-.06.01-.14-.06-.16-.04,0-.09.03-.13.07-.13.12-.25.25-.38.37-2.16,2.16-4.32,4.32-6.47,6.49-.18.18-.29.18-.45,0-.29-.31-.6-.6-.9-.9-.29-.29-.29-.29,0-.58,2.71-2.71,5.42-5.42,8.13-8.13.18-.18.26-.38.26-.64,0-.78,0-1.56,0-2.34,0-.11.06-.27-.05-.32-.12-.05-.19.1-.26.18-5.46,5.46-10.92,10.93-16.39,16.39-.15.15-.2.3-.2.5,0,.62,0,1.25,0,1.87q0,.41.41.41c2.68,0,5.36,0,8.04,0ZM36.42,34.95c-2.68,0-5.36,0-8.04,0q-.42,0-.42.43c0,3.87,0,7.75,0,11.62,0,.06,0,.12,0,.19,0,.16.07.19.18.08.2-.2.4-.39.6-.59,2.41-2.42,4.83-4.83,7.24-7.26.19-.19.31-.18.48,0,.3.32.61.63.93.92.2.19.22.3,0,.51-3.07,3.05-6.13,6.12-9.19,9.18-.18.18-.25.35-.25.6.01.77,0,1.54,0,2.31,0,.12-.06.3.04.35.14.07.22-.12.3-.21,5.25-5.24,10.49-10.48,15.73-15.73,1.02-1.02.8-.55.82-1.99,0-.41,0-.42-.4-.42-2.68,0-5.36,0-8.04,0Z"/>
  <path class="cls-1" d="M25.92,16.96c0-4.21,0-8.41,0-12.62,0-.97.38-1.35,1.36-1.35,6.09,0,12.19,0,18.28,0,.95,0,1.34.39,1.34,1.34,0,8.43,0,16.87,0,25.3,0,.93-.39,1.32-1.33,1.32-6.12,0-12.23,0-18.35,0-.9,0-1.31-.4-1.31-1.31,0-4.23,0-8.45,0-12.68ZM36.43,5.03c-2.68,0-5.36,0-8.04,0q-.44,0-.44.45c0,4.19,0,8.37,0,12.56,0,.13-.08.31.07.36.11.04.19-.13.28-.21,2.56-2.55,5.11-5.11,7.66-7.67.19-.2.32-.2.5,0,.29.31.59.61.91.9.22.2.22.32,0,.54-3.07,3.05-6.13,6.12-9.19,9.18-.17.17-.24.34-.24.57.01.8,0,1.6,0,2.4,0,.1-.06.24.05.28.11.05.17-.09.24-.16,1.3-1.3,2.6-2.6,3.9-3.9,4.09-4.09,8.18-8.18,12.27-12.27.31-.31.47-.63.44-1.07-.03-.51,0-1.02,0-1.53q0-.43-.42-.43c-2.67,0-5.34,0-8,0ZM36.38,28.92c2.69,0,5.38,0,8.07,0q.41,0,.41-.41c0-3.87,0-7.75,0-11.62,0-.07,0-.15,0-.22,0-.14-.07-.17-.17-.07-.05.05-.1.1-.16.15-2.23,2.23-4.46,4.46-6.69,6.7-.2.2-.32.18-.5,0-.29-.31-.59-.62-.91-.9-.23-.21-.2-.34.01-.55,2.72-2.71,5.44-5.43,8.16-8.14.18-.18.26-.38.26-.64,0-.79,0-1.58,0-2.37,0-.1.06-.24-.06-.28-.1-.04-.17.1-.24.17-5.26,5.26-10.5,10.52-15.78,15.76-.6.59-.95,1.17-.82,2.02.06.39.01.4.43.4,2.67,0,5.34,0,8,0Z"/>
</svg>