<?xml version="1.0" encoding="UTF-8"?>
<svg id="Capa_1" data-name="Capa 1" xmlns="http://www.w3.org/2000/svg" viewBox="0 0 99.3 97">
  <defs>
    <style>
      .cls-1 {
        fill: #d4191e;
      }
    </style>
  </defs>
  <path class="cls-1" d="M20.2,83.79c-.32,2.29-1.2,4.29-3.21,5.56-2.12,1.34-4.56,1.06-6.96,1.07-2.26,0-4.58.24-6.58-1.01-1.94-1.21-2.93-3.09-3.16-5.32-.58-5.66-.1-11.6-.1-17.29,0-2.73,0-5.46,0-8.18,0-2.49-.4-5.38.42-7.79,1.71-4.97,7.28-4.84,11.65-4.64,2.2.1,4.41.45,5.99,2.13.59.63,1.01,1.37,1.34,2.16.27.65.36,3.06.83,3.34.58.34,2.38-.39,3.09-.5,1.49-.22,2.99-.38,4.5-.45,2.97-.14,5.97.06,8.92.51,5.26.8,10.35,2.48,14.96,5.13,2.63,1.51,5.55.84,8.51.86,3.13.01,6.26-.07,9.39,0,2.66.06,5.14.35,7.19,2.2,1.9,1.72,2.29,3.84,2.79,6.23,5.56-1.37,12.61-7.07,17.62-1.35,2.41,2.75,2.41,6.51.8,9.65-1.72,3.36-5.22,4.92-8.36,6.68-7.13,3.99-14.21,8.13-21.48,11.86-3.46,1.78-7.15,2.78-11.07,2.18-3.68-.56-7.19-2.26-10.68-3.49-8.7-3.06-17.31-6.36-25.99-9.48-.1-.04-.21-.04-.41-.08ZM20.11,68.73c0,2.77-.01,5.54,0,8.31,0,2.4,1.26,2.38,3.37,3.14,4.6,1.65,9.21,3.31,13.8,4.99,4.63,1.69,9.26,3.37,13.87,5.09,4.36,1.63,8.6,3.18,13.19,1.38,3.65-1.43,7.1-3.86,10.52-5.76,3.9-2.16,7.8-4.31,11.7-6.46,2.89-1.59,7.5-3.12,8.19-6.81.75-4.01-3-4.62-5.93-3.48-7.63,2.96-15.37,7.03-23.6,7.91-4.35.46-8.81.23-13.18.22-.63,0-2.76.32-3.23-.19-.42-.45-.17-1.38-.17-1.96,0-2.3.25-2.33,2.55-2.38,4.3-.09,8.61.15,12.91-.16,2.9-.21,8.54-.6,10.41-3.24.89-1.26.76-3.16-.33-4.26-1.07-1.08-2.58-1-3.99-1-4.47,0-8.94.01-13.42.02-2.19,0-4.01.26-5.9-.93-1.52-.96-3.05-1.84-4.7-2.55-3.68-1.6-7.61-2.57-11.6-2.95-4.12-.4-8.47-.36-12.54.45-2.48.49-1.91,1.91-1.9,4.16,0,2.15,0,4.31,0,6.46ZM4.77,68.25h.01c0,4.96.05,9.93-.03,14.89-.03,1.91,1.07,2.86,2.84,2.83,1.77-.03,3.55,0,5.33,0,1.86,0,2.75-.89,2.75-2.74,0-9.9-.02-19.8.02-29.7,0-1.81-.98-2.75-2.76-2.72-1.83.03-3.66.01-5.49,0-1.7,0-2.71.66-2.69,2.64.06,4.93.02,9.87.02,14.81Z"/>
  <path class="cls-1" d="M68.57,53.79c-2.3-1.79-4.29-4.16-6.36-6.2-2.38-2.36-4.77-4.71-7.13-7.1-4.09-4.14-9.07-8.11-12.32-12.97-6.27-9.38-1.66-22.45,8.72-26.38,5.26-1.99,10.59-1.2,15.16,1.97,1.16.81,1.37,1.47,2.6.89,1.11-.52,2.08-1.62,3.21-2.21C74.76.59,77.39-.05,80,0c11.38.22,19.39,11.86,16.54,22.6-1.7,6.41-7.44,10.7-11.93,15.2-5.23,5.23-10.46,10.46-15.69,15.69-.08.08-.16.14-.35.3ZM44.41,17.91c-.12,2.93,1.03,6.21,3.02,8.46,3.88,4.38,8.28,8.36,12.41,12.51,2.16,2.17,4.32,4.34,6.48,6.51.64.65,1.54,2.17,2.5,1.84.97-.34,2.32-2.28,3.07-3.04,3.85-3.86,7.73-7.69,11.6-11.54,3.3-3.28,7.54-6.52,8.78-11.22,2.08-7.87-3.49-16.26-11.77-16.86-4.71-.34-8.21,2.27-11.03,5.74-.9,1.1-.98,1.12-1.89,0-.72-.88-1.4-1.76-2.25-2.53-1.43-1.3-3.11-2.31-4.98-2.82-7.95-2.17-16.26,4.84-15.95,12.94Z"/>
</svg>