<?xml version="1.0" encoding="UTF-8"?>
<svg id="Capa_1" data-name="Capa 1" xmlns="http://www.w3.org/2000/svg" viewBox="0 0 135.75 65.4">
  <defs>
    <style>
      .cls-1 {
        fill: #fff;
      }

      .cls-2 {
        fill: #d4191e;
      }

      .cls-3 {
        fill: #d8d8d8;
      }
    </style>
  </defs>
  <polygon class="cls-3" points="0 34.91 0 0 35.69 0 29.59 5.96 6.99 5.96 6.99 28.11 0 34.91"/>
  <polygon class="cls-2" points="9.84 21.75 9.84 8.29 23.61 8.29 9.84 21.75"/>
  <polygon class="cls-1" points="32.77 8.92 32.77 15.76 20.88 15.76 28.35 8.48 32.77 8.48 32.77 8.92"/>
  <polygon class="cls-1" points="32.77 18.34 32.77 25.18 11.22 25.18 18.69 17.9 32.77 17.9 32.77 18.34"/>
  <polygon class="cls-1" points="32.77 28.68 32.77 35.52 10.03 35.52 10.05 28.24 32.77 28.24 32.77 28.68"/>
  <rect class="cls-1" y="44.49" width="135.75" height=".99"/>
  <g>
    <path class="cls-1" d="M55.55,18.35c.9,0,1.69.14,2.36.43.67.29,1.23.7,1.67,1.24.44.54.77,1.21.99,1.99.22.79.33,1.68.33,2.68v10.94h-5.92v-10.18c0-.71-.16-1.29-.48-1.74-.32-.45-.78-.67-1.4-.67-.36,0-.68.07-.97.21-.29.14-.54.33-.74.58-.21.25-.36.53-.47.85-.11.32-.17.66-.17,1.02v9.93h-5.93v-10.18c0-.71-.16-1.29-.48-1.74-.32-.45-.79-.67-1.4-.67-.36,0-.68.07-.97.21-.29.14-.54.33-.74.58-.2.25-.36.53-.47.85-.11.32-.17.66-.17,1.02v9.93h-5.92v-16.9h4.86l.38,2.52c.3-.45.65-.85,1.05-1.21.4-.36.84-.66,1.32-.92.47-.25.98-.44,1.5-.58.53-.14,1.06-.2,1.61-.2,1.21,0,2.21.25,3,.76.79.51,1.38,1.22,1.77,2.15.3-.44.65-.84,1.05-1.2.4-.36.84-.66,1.3-.91.47-.25.95-.45,1.47-.59.51-.14,1.04-.21,1.57-.21Z"/>
    <path class="cls-1" d="M74.82,18.35c1.04,0,1.97.18,2.79.55.82.36,1.52.91,2.09,1.65.57.73,1,1.66,1.3,2.77.3,1.11.45,2.41.45,3.9s-.15,2.76-.45,3.86c-.3,1.1-.73,2.02-1.3,2.76-.57.73-1.26,1.28-2.09,1.65-.82.36-1.75.55-2.79.55-.9,0-1.72-.16-2.46-.47s-1.39-.8-1.96-1.45v7.83h-5.92v-23.2h4.83l.51,2.39c.58-.95,1.3-1.65,2.14-2.1.85-.45,1.8-.68,2.87-.68ZM72.97,23.06c-.47,0-.86.09-1.19.28-.33.19-.6.45-.81.77-.21.33-.37.71-.47,1.14-.1.43-.15.9-.15,1.4v1.05c0,.5.05.97.15,1.41.1.44.26.82.47,1.15.21.33.48.59.81.78.33.19.73.29,1.19.29s.86-.08,1.18-.23c.32-.16.59-.38.79-.67.2-.29.35-.64.44-1.04.09-.4.14-.85.14-1.35v-1.7c0-.5-.05-.95-.14-1.35-.09-.4-.24-.74-.44-1.02-.21-.28-.47-.5-.79-.66-.33-.16-.72-.23-1.18-.23Z"/>
    <path class="cls-1" d="M93.87,18.32c.28,0,.53.02.74.06.21.04.4.09.55.14.17.05.33.11.47.19v5.35h-1.91c-.64,0-1.18.09-1.63.27-.45.18-.81.45-1.08.8-.28.35-.47.78-.6,1.28-.12.51-.18,1.08-.18,1.71v7.52h-5.92v-16.9h4.86l.38,2.55c.18-.5.43-.94.73-1.31.3-.38.64-.68,1.01-.93.37-.24.78-.43,1.22-.55.44-.12.89-.18,1.36-.18Z"/>
    <path class="cls-1" d="M106.14,18.35c1.42,0,2.67.18,3.77.52,1.1.35,2.03.89,2.79,1.61.76.72,1.33,1.64,1.72,2.75.39,1.11.59,2.43.59,3.95v1.09h-11.79c0,1.17.24,2.07.73,2.71.49.64,1.3.96,2.42.96.53,0,.98-.06,1.35-.19.37-.13.67-.3.9-.52.23-.22.39-.49.49-.78.1-.3.15-.62.15-.96h5.74c0,1.01-.18,1.92-.53,2.73-.35.81-.89,1.49-1.6,2.06-.71.56-1.6,1-2.66,1.3-1.06.3-2.3.45-3.72.45s-2.69-.18-3.83-.52c-1.14-.35-2.11-.89-2.9-1.62-.79-.73-1.41-1.65-1.83-2.76-.43-1.11-.64-2.43-.64-3.95s.21-2.77.63-3.88c.41-1.1,1.01-2.03,1.78-2.76.77-.74,1.7-1.29,2.79-1.65,1.09-.36,2.31-.55,3.64-.55ZM106.37,22.42c-1,0-1.74.26-2.23.77-.49.51-.79,1.2-.9,2.08h5.79c0-.89-.23-1.58-.7-2.09-.47-.51-1.12-.76-1.96-.76Z"/>
    <path class="cls-1" d="M126,18.35c1.2,0,2.33.13,3.38.4,1.05.27,1.97.69,2.75,1.27.79.58,1.4,1.32,1.85,2.23.45.91.68,2.01.68,3.31h-5.74c0-1-.25-1.73-.76-2.19-.51-.46-1.23-.69-2.16-.69-.52,0-.97.08-1.34.25-.37.17-.67.41-.9.72-.23.31-.41.69-.52,1.13-.11.44-.17.95-.17,1.51v1.83c0,1.12.23,1.99.7,2.63.47.64,1.25.95,2.33.95.97,0,1.72-.23,2.25-.69.53-.46.79-1.21.79-2.25h5.51c0,1.28-.22,2.38-.68,3.31-.45.92-1.07,1.68-1.85,2.26-.79.58-1.7,1.01-2.75,1.29-1.05.28-2.18.41-3.38.41-1.34,0-2.55-.18-3.64-.55-1.09-.36-2.02-.92-2.79-1.65-.77-.74-1.36-1.66-1.78-2.77-.42-1.11-.63-2.4-.63-3.88s.21-2.77.63-3.88c.41-1.1,1.01-2.03,1.78-2.76.77-.74,1.7-1.29,2.79-1.65,1.09-.36,2.31-.55,3.64-.55Z"/>
  </g>
  <g>
    <path class="cls-1" d="M9.14,56.26c0,2.76-1.53,5.22-4.48,5.22-2.68,0-4.34-2.2-4.34-5.2,0-2.84,1.57-5.2,4.44-5.2,2.64,0,4.39,2.06,4.39,5.18ZM1.37,56.28c0,2.36,1.27,4.27,3.37,4.27s3.35-1.77,3.35-4.27c0-2.34-1.19-4.27-3.39-4.27s-3.33,1.89-3.33,4.27Z"/>
    <path class="cls-1" d="M10.93,46.62h.99v6.37c.48-.99,1.45-1.9,3.39-1.9,2.34,0,4.07,1.92,4.07,4.98s-1.55,5.42-4.33,5.42c-1.67,0-2.62-.67-3.13-1.81,0,.63-.02,1.29-.04,1.57h-.97c.02-1.13.02-2.26.02-3.39v-11.23ZM18.34,56.08c0-2.48-1.23-4.07-3.12-4.07-2.48,0-3.35,1.69-3.35,4.29,0,2.34.77,4.25,3.23,4.25,2,0,3.24-1.67,3.24-4.46Z"/>
    <path class="cls-1" d="M21.18,54.02c0-1.67-.02-2.38-.02-2.7h.97c.02.32.04.95.04,2.22.58-1.49,1.85-2.38,3.45-2.46v1.07c-2.06.14-3.45,1.57-3.45,3.93v5.16h-.99v-7.22Z"/>
    <path class="cls-1" d="M33.4,59.35c0,.87.08,1.57.14,1.89h-.95c-.08-.24-.14-.67-.18-1.53-.34.73-1.21,1.77-3.25,1.77-2.3,0-3.29-1.49-3.29-2.98,0-2.18,1.68-3.17,4.66-3.17h1.88v-1.01c0-.99-.3-2.32-2.56-2.32-2,0-2.3,1.05-2.52,1.86h-.99c.12-1.09.79-2.78,3.53-2.78,2.26,0,3.53.95,3.53,3.13v5.14ZM32.43,56.18h-1.94c-2.2,0-3.57.58-3.57,2.28,0,1.25.89,2.1,2.28,2.1,2.84,0,3.23-1.88,3.23-4.03v-.36Z"/>
    <path class="cls-1" d="M35.91,58.5c.34,1.29,1.25,2.06,2.82,2.06,1.77,0,2.48-.81,2.48-1.92s-.48-1.69-2.7-2.22c-2.56-.61-3.19-1.39-3.19-2.7s1.03-2.64,3.27-2.64,3.31,1.37,3.47,2.78h-.99c-.18-.83-.83-1.86-2.52-1.86s-2.22.85-2.22,1.65c0,.91.48,1.37,2.44,1.85,2.8.67,3.49,1.59,3.49,3.08,0,1.8-1.47,2.92-3.55,2.92-2.26,0-3.53-1.19-3.81-2.98h1.01Z"/>
    <path class="cls-1" d="M48.27,51.32c2,5.67,2.88,8.02,3.21,9.09h.02c.4-1.21,1.19-3.51,3.12-9.09h1.03l-3.73,10.5c-1.05,2.94-1.77,3.59-3.55,3.59-.36,0-.6-.02-.91-.06v-.99c.3.04.57.06.89.06,1.43,0,1.88-.69,2.62-2.74l-3.79-10.36h1.09Z"/>
    <path class="cls-1" d="M62.37,59.77v5.44h-.99v-11.45c0-.81,0-1.69-.02-2.44h.97c.04.38.04.97.04,1.79.61-1.19,1.71-2.02,3.49-2.02,2.34,0,3.97,1.96,3.97,4.94,0,3.57-1.9,5.46-4.31,5.46-1.74,0-2.66-.77-3.15-1.71ZM68.78,56.06c0-2.3-1.11-4.03-3.08-4.03-2.4,0-3.39,1.51-3.39,4.21s.77,4.31,3.25,4.31c2.06,0,3.21-1.75,3.21-4.48Z"/>
    <path class="cls-1" d="M71.64,54.02c0-1.67-.02-2.38-.02-2.7h.97c.02.32.04.95.04,2.22.58-1.49,1.85-2.38,3.45-2.46v1.07c-2.06.14-3.45,1.57-3.45,3.93v5.16h-.99v-7.22Z"/>
    <path class="cls-1" d="M85.27,56.26c0,2.76-1.53,5.22-4.48,5.22-2.68,0-4.34-2.2-4.34-5.2,0-2.84,1.57-5.2,4.44-5.2,2.64,0,4.39,2.06,4.39,5.18ZM77.5,56.28c0,2.36,1.27,4.27,3.37,4.27s3.35-1.77,3.35-4.27c0-2.34-1.19-4.27-3.39-4.27s-3.33,1.89-3.33,4.27Z"/>
    <path class="cls-1" d="M86.98,51.32c2,5.67,2.88,8.02,3.21,9.09h.02c.4-1.21,1.19-3.51,3.12-9.09h1.03l-3.73,10.5c-1.05,2.94-1.77,3.59-3.55,3.59-.36,0-.6-.02-.91-.06v-.99c.3.04.57.06.89.06,1.43,0,1.88-.69,2.62-2.74l-3.79-10.36h1.09Z"/>
    <path class="cls-1" d="M95.92,56.4c.02,2.56,1.31,4.15,3.21,4.15s2.5-1.05,2.86-1.86h1.01c-.41,1.31-1.47,2.8-3.91,2.8-3.01,0-4.19-2.6-4.19-5.12,0-2.84,1.41-5.28,4.31-5.28,3.06,0,4.03,2.64,4.03,4.5,0,.28,0,.56-.02.81h-7.3ZM102.2,55.52c-.02-1.96-1.09-3.51-3.04-3.51-2.04,0-2.98,1.43-3.19,3.51h6.23Z"/>
    <path class="cls-1" d="M112.39,58.32c-.47,1.75-1.63,3.16-3.85,3.16-2.48,0-4.25-1.85-4.25-5.16,0-2.72,1.45-5.24,4.36-5.24,2.52,0,3.55,1.79,3.73,3.17h-1.01c-.3-1.15-1.05-2.24-2.74-2.24-2.1,0-3.29,1.79-3.29,4.27s1.11,4.27,3.19,4.27c1.45,0,2.32-.73,2.84-2.22h1.01Z"/>
    <path class="cls-1" d="M112.77,51.32h1.84v-3.1h.99v3.1h2.36v.93h-2.36v6.45c0,1.11.24,1.75,1.19,1.75.3,0,.72-.02,1.03-.12v.87c-.34.14-.81.18-1.23.18-1.27,0-1.99-.63-1.99-2.22v-6.9h-1.84v-.93Z"/>
    <path class="cls-1" d="M127.24,56.26c0,2.76-1.53,5.22-4.48,5.22-2.68,0-4.34-2.2-4.34-5.2,0-2.84,1.57-5.2,4.44-5.2,2.64,0,4.39,2.06,4.39,5.18ZM119.46,56.28c0,2.36,1.27,4.27,3.37,4.27s3.35-1.77,3.35-4.27c0-2.34-1.19-4.27-3.39-4.27s-3.33,1.89-3.33,4.27Z"/>
    <path class="cls-1" d="M129.23,58.5c.34,1.29,1.25,2.06,2.82,2.06,1.76,0,2.48-.81,2.48-1.92s-.48-1.69-2.7-2.22c-2.56-.61-3.19-1.39-3.19-2.7s1.03-2.64,3.27-2.64,3.31,1.37,3.47,2.78h-.99c-.18-.83-.83-1.86-2.52-1.86s-2.22.85-2.22,1.65c0,.91.48,1.37,2.44,1.85,2.8.67,3.49,1.59,3.49,3.08,0,1.8-1.47,2.92-3.55,2.92-2.26,0-3.53-1.19-3.81-2.98h1.01Z"/>
  </g>
</svg>