<?xml version="1.0" encoding="UTF-8"?>
<svg id="Capa_1" data-name="Capa 1" xmlns="http://www.w3.org/2000/svg" viewBox="0 0 63.83 63.86">
  <defs>
    <style>
      .cls-1 {
        fill: #d4191e;
      }
    </style>
  </defs>
  <path class="cls-1" d="M40.6,34.33c1.85-4.48,3.67-8.89,5.49-13.3-.02-.01-.04-.02-.06-.03-.96,1.31-1.89,2.64-2.83,3.97-.45.63-.91,1.27-1.38,1.89-.33.45-.72,1.06-1.37.92-.59-.13-.83-.88-1.05-1.35-.33-.71-.66-1.42-.98-2.13-.32-.71-.64-1.43-.96-2.14-.11-.25-.61-1.85-.86-1.86-.35-.02-.7,1.08-.86,1.37-.4.76-.79,1.52-1.19,2.27-.76,1.47-1.53,2.93-2.29,4.4-.76,1.47-1.53,2.93-2.29,4.4-.35.68-.71,1.36-1.07,2.03-.32.59-.58,1.42-1.07,1.89-1.33,1.29-2.21-1.67-2.58-2.49-.68-1.53-1.28-3.12-2.05-4.61-.98,1.7-1.4,3.73-2.29,5.48-.32.63-1.03,1.07-1.62.45-.62-.66.1-1.73.37-2.4.78-1.95,1.56-3.91,2.4-5.84.26-.59.62-1.32,1.41-1.03.74.28,1.05,1.66,1.35,2.32.28.61,2.02,5.21,2.46,5.12.17-.03.51-.94.61-1.12.24-.46.48-.93.72-1.39.51-.98,1.02-1.95,1.53-2.93.99-1.9,1.98-3.8,2.98-5.7.43-.82.87-1.65,1.3-2.47.44-.82.81-1.84,1.38-2.57,1.38-1.76,2.39,1.66,2.78,2.53.39.87.78,1.73,1.17,2.6.19.42.74,2.27,1.2,2.18.16-.03.46-.67.58-.83.34-.46.67-.93,1.01-1.39.6-.83,1.21-1.67,1.81-2.5,1.27-1.76,2.55-3.52,3.82-5.28.18-.25.59-.61.62-.91.03-.32-.39-.73-.54-.97-.44-.71-.8-1.47-1.02-2.27-.45-1.61-.35-3.37.18-4.95,1-2.96,3.86-5.29,6.98-5.64,2.87-.32,5.9.91,7.67,3.2,1.79,2.32,2.29,5.72,1.16,8.44-.57,1.38-1.56,2.54-2.73,3.46-.5.4-1.16.82-1.72.25-.69-.71.04-1.33.57-1.79,2.44-2.1,3.42-5.54,1.69-8.45-1.68-2.83-5.34-4.04-8.35-2.66-2.75,1.26-4.31,4.37-3.69,7.32.63,2.96,3.11,4.82,6.02,5.13.66.07,1.49.33,1.28,1.19-.2.82-1.14.76-1.79.69-.87-.09-1.71-.33-2.51-.68-.39-.17-.77-.46-1.17-.61-.38-.14-.28-.17-.51.16-.52.77-.77,1.89-1.13,2.75-.4.98-.81,1.96-1.21,2.94-.8,1.92-1.6,3.85-2.39,5.77-.8,1.95-1.6,3.91-2.4,5.86-.36.89-.72,1.79-1.1,2.67-.28.66-.55,2.02-1.47,2.04-.85.01-1.13-1.11-1.41-1.72-.45-.99-.91-1.97-1.35-2.96-.36-.81-.63-1.75-1.08-2.51-.46-.78-.67.45-.98.87-.44.6-1.42.67-1.7-.14-.25-.71.61-1.84.92-2.43.3-.57.67-1.73,1.38-1.9.89-.21,1.22.91,1.49,1.52.85,1.85,1.67,3.71,2.51,5.56.03.07.08.14.16.29Z"/>
  <path class="cls-1" d="M17.83,42.82c.75-1.04,1.5-2.07,2.25-3.11.74-1.02,1.42-2.16,2.26-3.1.88-1,1.54-.25,1.97.68.57,1.21,1.1,2.43,1.64,3.65.21.48,1.03,2.81,1.41,2.64.19-.09.58-1.16.68-1.34.36-.7.72-1.39,1.08-2.09.57-1.09,1.14-2.19,1.72-3.27.26-.5.53-.99.79-1.48.26-.49.51-1.24.96-1.6.86-.69,1.73.28,1.4,1.16-.44,1.2-1.21,2.38-1.8,3.51-1.19,2.3-2.39,4.59-3.61,6.87-.34.63-.83,1.98-1.81,1.49-.49-.24-.69-.93-.91-1.38-.29-.61-.56-1.23-.83-1.84-.5-1.12-1-2.25-1.49-3.37-.13-.3-.34-1.17-.67-1.13-.25.03-1.02,1.4-1.15,1.58-1.54,2.14-3.07,4.28-4.61,6.41-.39.54-.79,1.08-1.18,1.61-.24.32-.87.89-.91,1.3-.05.46.54,1.01.76,1.39.28.49.51,1.01.68,1.54,1.25,3.88-.58,8.02-4.09,9.94-3.47,1.9-8.06,1.01-10.5-2.11-2.79-3.57-2.4-8.58.97-11.63,1.69-1.53,3.9-2.22,6.16-2.09,1.33.08,2.57.5,3.72,1.16.58.33.59.33.86-.28.32-.72.6-1.46.9-2.19.56-1.35,1.13-2.71,1.69-4.06.26-.62.52-1.24.78-1.86.26-.62.46-1.43.88-1.96.28-.36.72-.52,1.15-.31.63.3.56.86.37,1.41-.46,1.31-1.05,2.58-1.57,3.86.02.01.04.02.06.03ZM8.37,61.97c3.6,0,6.54-2.89,6.55-6.46,0-3.67-2.86-6.57-6.51-6.59-3.54-.02-6.54,2.98-6.54,6.42,0,3.69,2.87,6.62,6.5,6.63Z"/>
  <path class="cls-1" d="M55.49,9.41c-.85,0-3.34.5-3.36-.93-.02-1.4,2.2-.99,3.06-.99.79,0,1.59-.02,2.38,0,.56.02,1.19.09,1.35.74.41,1.66-2.64,1.17-3.43,1.17h0Z"/>
  <path class="cls-1" d="M9.35,57.36c0,.52.04,1.13-.5,1.41-.39.2-.89.08-1.17-.25-.35-.42-.24-1.02-.25-1.53-.02-.78-.34-.58-1.04-.59-.55,0-1.08-.04-1.33-.61-.2-.46-.02-1,.44-1.22.49-.23,1.21.14,1.66-.09.49-.25.22-.9.28-1.42.1-.89,1.16-1.55,1.74-.58.33.55-.05,1.16.16,1.69.19.48.64.29,1.13.31.84.02,1.93.79,1.03,1.64-.35.33-.88.28-1.32.28-.87,0-.84.05-.84.96h0Z"/>
</svg>