<?xml version="1.0" encoding="UTF-8"?>
<svg id="Capa_1" data-name="Capa 1" xmlns="http://www.w3.org/2000/svg" viewBox="0 0 45.6 63.87">
  <defs>
    <style>
      .cls-1 {
        fill: #d4191e;
      }
    </style>
  </defs>
  <path class="cls-1" d="M35.48,7.24c1.17.28,2.31.59,3.44.91,1.46.41,2.82,1.05,4.17,1.72.59.29.78.79.54,1.3-.24.51-.78.68-1.37.39-1.87-.89-3.8-1.61-5.82-2.08-1.48-.34-2.97-.6-4.49-.66-.31-.01-.65-.17-.92-.01-.25.16-.24.53-.35.81-.2.48-.46.92-.76,1.33-.1.13-.15.27-.15.43-.02,1.13.05,2.26-.04,3.38-.02.22.13.25.3.27.95.14,1.89.33,2.77.73,3.44,1.54,5.42,4.21,6.15,7.87.16.8.17,1.62.17,2.43,0,11.2,0,22.41,0,33.61,0,.77-.05,1.54-.45,2.24-.7,1.23-1.76,1.87-3.16,1.94-.7.04-1.41.01-2.11.01-5.55,0-11.1,0-16.64,0-1.8,0-3.26-1.11-3.72-2.8-.12-.44-.13-.88-.13-1.33,0-10.23,0-20.46,0-30.7,0-1.27-.03-2.55,0-3.82.11-4.49,2.96-8.4,7.14-9.76.62-.2,1.25-.32,1.89-.41.28-.04.34-.17.34-.42,0-1.06,0-2.12,0-3.18,0-.49-.32-.82-.8-.81-1.68.05-3.29.44-4.82,1.15-2.95,1.37-5.23,3.46-6.76,6.35-.84,1.58-1.41,3.25-1.53,5.06-.05.67-.06,1.34-.06,2.01,0,4.13,0,8.27,0,12.4,0,.65-.15,1.29,0,1.94.22,1.02.44,2.05.65,3.08.04.21.16.3.38.29.19,0,.38,0,.57,0,.57.02.94.35,1.01.92.02.19.02.38.02.57,0,6.08,0,12.15,0,18.23,0,.88-.36,1.24-1.24,1.24-2.82,0-5.65,0-8.47,0-.9,0-1.25-.36-1.25-1.26,0-6.12,0-12.24,0-18.36,0-.11,0-.22,0-.34.04-.6.44-.98,1.04-1,.84-.02.85-.02,1.02-.84.2-.98.52-1.94.58-2.95.01-.2.03-.4.03-.6,0-4.69.01-9.38,0-14.08,0-2.33.45-4.57,1.28-6.74,1.9-4.95,5.29-8.56,10.04-10.88,2.07-1.01,4.28-1.59,6.59-1.79.08,0,.16-.04.23-.03.8.12,1.31-.3,1.8-.87.55-.64,1.32-.99,2.12-1.23.25-.07.34-.19.33-.45-.02-.42,0-.85,0-1.27,0-.79.38-1.18,1.17-1.18,1.72,0,3.44,0,5.16,0,4.22,0,8.44,0,12.66,0,.13,0,.27,0,.4,0,.73.02,1.14.43,1.15,1.15,0,.76,0,1.52,0,2.28,0,.71-.22,1.02-.9,1.22-1.53.44-3.07.86-4.61,1.29-1.53.43-3.07.86-4.6,1.3ZM14.91,42.38h0c0,3.54,0,7.08,0,10.62,0,2.39,0,4.78,0,7.17,0,.84.52,1.48,1.32,1.67.29.07.58.04.87.04,5.71,0,11.43,0,17.14,0,.44,0,.87,0,1.31,0,.86-.03,1.5-.6,1.61-1.46.03-.21.02-.42.02-.64,0-11.53,0-23.06,0-34.58,0-.3-.02-.6-.06-.9-.39-2.94-1.92-5.09-4.5-6.5-1.24-.68-2.6-.91-4-.92-1.65-.01-3.3,0-4.96,0-.59,0-1.18.04-1.77.13-3.91.57-6.99,4.13-6.99,8.09,0,5.76,0,11.53,0,17.29ZM1.93,53.36c0,2.73,0,5.45,0,8.18,0,.3.08.42.39.4.52-.04,1.05-.05,1.57-.05,1.6,0,3.19,0,4.79,0,.26,0,.34-.07.34-.34-.01-5.42-.01-10.83-.02-16.25,0-.48,0-.48-.49-.48-2.05,0-4.11,0-6.16,0-.34,0-.43.1-.43.44.01,2.7,0,5.41,0,8.11ZM4.6,30.96c0,1.47,0,2.95,0,4.42,0,.93,0,1.85,0,2.78,0,.24.08.35.33.33.3-.01.6,0,.9,0,.54,0,.54,0,.54-.52,0-4.33,0-8.67,0-13,0-.51,0-1.02.05-1.54.21-2.25.8-4.39,1.89-6.37,2.03-3.67,4.99-6.25,9-7.57,1.05-.34,2.13-.59,3.23-.71.52-.06.55-.09.47-.6-.04-.25-.05-.49-.02-.73.06-.52.06-.52-.47-.49-.03,0-.07,0-.1,0-2.4.23-4.65.99-6.74,2.16-2.82,1.57-5.04,3.76-6.66,6.57-1.61,2.79-2.44,5.75-2.42,8.97.02,2.1,0,4.2,0,6.3ZM35.12,1.98c-2.58,0-5.16,0-7.73,0-.2,0-.41-.01-.4.27,0,.25-.12.55.29.64.41.09.82.23,1.19.44,1.15.66,1.9,1.63,2.33,2.87.09.25.2.36.46.25.06-.03.13-.03.19-.05,3.84-1.08,7.69-2.15,11.53-3.24.82-.23.68-.02.7-.96,0-.21-.09-.28-.28-.27-.36.02-.71.05-1.07.05-2.4,0-4.8,0-7.2,0ZM26.02,10.82c1.78,0,3.13-1.35,3.13-3.1,0-2.7-3.46-4.05-5.34-2.16-1.9,1.92-.48,5.26,2.2,5.26ZM26.02,14.95c.34,0,1.42.16,1.7-.08.25-.21.08-1.2.08-1.51,0-.45.14-.74-.32-.8-.48-.06-1.1.25-1.62.22-.29-.01-1.27-.37-1.49-.27-.28.13-.11.9-.11,1.16,0,.32-.14,1.03.14,1.25.23.18,1.29.02,1.6.02ZM5.45,42.9c.32,0,1.21.17,1.46-.01.27-.19.05-.63,0-.9-.07-.29-.1-1.17-.32-1.4-.24-.25-.78-.12-1.1-.12-.29,0-.87-.13-1.11.11-.23.23-.26,1.1-.32,1.4-.08.36-.28.71.03.91.25.16,1.08,0,1.36,0Z"/>
  <path class="cls-1" d="M35.14,39.42c0,2.76,0,5.52,0,8.28,0,.36-.07.69-.35.94-.27.24-.61.25-.95.25-.64,0-1.27,0-1.91,0-4.5,0-8.99,0-13.49,0-.19,0-.38-.02-.57-.04-.52-.06-.83-.36-.9-.87-.03-.18-.02-.36-.02-.53,0-5.42,0-10.83,0-16.25,0-.96.33-1.29,1.29-1.29,5.21,0,10.42,0,15.63,0,.92,0,1.27.35,1.27,1.28,0,2.75,0,5.49,0,8.24ZM18.86,39.86c.03,1.95-.03,4.32.02,6.69,0,.34.12.38.4.38,4.47,0,8.95,0,13.42,0,.51,0,.51,0,.48-.5-.01-.14,0-.29,0-.44,0-4.52,0-9.04,0-13.57q0-.55-.55-.55c-4.42,0-8.84,0-13.26,0-.5,0-.5,0-.5.5,0,2.36,0,4.71,0,7.48Z"/>
</svg>