<?xml version="1.0" encoding="UTF-8"?>
<svg id="Capa_1" data-name="Capa 1" xmlns="http://www.w3.org/2000/svg" viewBox="0 0 25 25">
  <defs>
    <style>
      .cls-1 {
        fill: #fff;
      }
    </style>
  </defs>
  <path class="cls-1" d="M24.96,11.36c-.3-2.99-1.49-5.57-3.62-7.7C19.21,1.54,16.63.34,13.64.05c.13-.04.28,0,.41-.05h-3.06c.01.09-.05.1-.11.1-.59.06-1.18.19-1.75.36-2.37.68-4.38,1.93-6.01,3.77C1.81,5.72.9,7.44.4,9.37c-.18.69-.33,1.39-.32,2.13-.06-.14-.02-.27-.08-.39v2.86c.06-.14.02-.3.06-.41.24,2.97,1.43,5.55,3.53,7.7,2.1,2.15,4.67,3.36,7.65,3.69-.1.04-.24-.03-.34.05h3.11c-.06-.01-.12-.03-.21-.05.34-.04.64-.08.94-.13,3.25-.63,5.88-2.27,7.86-4.92,1.05-1.4,1.75-2.97,2.12-4.68.11-.48.2-.96.23-1.45,0-.02-.04-.11.05-.05v-2.61c-.04.08-.02.17-.04.25ZM18.14,19.21c-.28.27-.64.35-.94.35-3.2-.12-6.27-1.36-8.49-3.71-1.08-1.14-1.93-2.5-2.49-3.98-.29-.76-.5-1.55-.62-2.36-.1-.69-.32-1.67,0-2.34.16-.34.47-.58.73-.84.27-.28.53-.58.9-.74.63-.27,1.35-.11,1.87.33.63.54.75,1.4.95,2.17.2.78.31,1.46-.25,2.12-.17.21-.61.47-.66.75-.04.27.23.73.34.98.26.59.6,1.14,1.01,1.64.83,1,1.99,1.81,3.23,2.21.19.06.3.11.47,0,.18-.11.34-.36.49-.5.28-.26.61-.45,1-.5.45-.06.89.08,1.32.2.46.12.94.23,1.38.41.66.28,1.09.87,1.16,1.59.1.98-.77,1.61-1.41,2.22Z"/>
</svg>