<?xml version="1.0" encoding="UTF-8"?>
<svg id="Capa_1" data-name="Capa 1" xmlns="http://www.w3.org/2000/svg" viewBox="0 0 25 25">
  <defs>
    <style>
      .cls-1 {
        fill: #969696;
      }
    </style>
  </defs>
  <path class="cls-1" d="M12.5,0C5.6,0,0,5.6,0,12.5s5.6,12.5,12.5,12.5,12.5-5.6,12.5-12.5S19.4,0,12.5,0h0ZM8.87,18.9h-3.04v-9.16h3.04v9.16ZM7.35,8.49h-.02c-1.02,0-1.68-.7-1.68-1.58s.68-1.58,1.72-1.58,1.68.68,1.7,1.58c0,.88-.66,1.58-1.72,1.58h0ZM19.84,18.9h-3.04v-4.9c0-1.23-.44-2.07-1.54-2.07-.84,0-1.34.57-1.56,1.11-.08.2-.1.47-.1.74v5.11h-3.04s.04-8.3,0-9.16h3.04v1.3c.4-.62,1.13-1.51,2.74-1.51,2,0,3.5,1.31,3.5,4.12v5.25ZM19.84,18.9"/>
</svg>