<?xml version="1.0" encoding="UTF-8"?>
<svg id="Capa_1" data-name="Capa 1" xmlns="http://www.w3.org/2000/svg" viewBox="0 0 78.78 66.03">
  <defs>
    <style>
      .cls-1 {
        fill: #d4191e;
      }
    </style>
  </defs>
  <path class="cls-1" d="M38.41,32.69c4.7,0,9.39,0,14.09,0,.74,0,.74,0,.74-.75,0-.56-.03-1.11.06-1.67.2-1.32.85-2.05,2.16-2.34.37-.08.51-.21.5-.61-.08-1.96.79-2.33,2.4-2.4.48-.02.96,0,1.43.15.79.24,1.22.84,1.23,1.66,0,.14-.02.28,0,.42.04.24-.15.59.21.68.38.1.73.06,1.01-.33,1.95-2.68,3.93-5.34,5.9-8.01.84-1.13,1.68-2.27,2.52-3.4.46-.62.28-1.8-.36-2.22-1.9-1.26-3.71-2.65-5.56-3.97-.58-.41-.62-.4-.78.3-.43,1.89-1.32,3.53-2.67,4.91-.66.67-1.06.69-1.74.04-.88-.85-1.75-1.71-2.61-2.58-.22-.23-.36-.29-.63-.04-1.12,1-2.43,1.06-3.66.2-.49-.34-.9-.76-1.24-1.25-.72-1.03-.58-2.44.35-3.46.24-.26.26-.41,0-.67-.9-.88-1.77-1.78-2.64-2.69-.6-.63-.59-1.05.03-1.67,1.75-1.75,3.88-2.67,6.31-2.95,2.22-.26,4.15.42,5.89,1.77,1.96,1.53,4.04,2.87,6.05,4.33,1.82,1.32,3.67,2.59,5.49,3.9.36.26.69.33,1.11.23,2.67-.62,4.88,1.75,4.78,4.1-.07,1.79-1.42,3.41-3.25,3.75-.61.11-.98.4-1.33.88-2.06,2.83-4.14,5.64-6.22,8.46-.06.09-.18.16-.14.28.05.15.21.1.33.11.26,0,.53,0,.79,0,1.6.03,2.68,1.08,2.74,2.68.02.57.01,1.15,0,1.72,0,.28.09.41.4.44,1.8.14,2.87,1.14,3.09,2.93.09.72.1,1.46-.1,2.17-.37,1.34-1.59,2.25-3.05,2.29-.68.02-1.36.02-2.05,0-.34,0-.5.05-.45.46.25,1.93.46,3.87.69,5.81.24,2.01.47,4.02.72,6.04.26,2.13.54,4.26.8,6.4.24,1.93.47,3.87.68,5.81.11,1.02-.28,1.42-1.32,1.42-.68,0-1.36,0-2.05,0-.88,0-1.13-.18-1.35-1.03-.57-2.28-1.11-4.57-1.66-6.86-1.4-5.81-2.81-11.62-4.2-17.43-.11-.45-.29-.62-.78-.62-15.69.01-31.38,0-47.07,0-.48,0-.56.24-.64.59-1.67,6.92-3.34,13.84-5.01,20.77-.28,1.17-.56,2.35-.85,3.52-.2.8-.52,1.06-1.34,1.06-.67,0-1.33.01-2,0-1.09-.02-1.46-.42-1.34-1.51.17-1.65.37-3.29.57-4.93.24-2,.47-3.99.72-5.99.2-1.63.41-3.25.6-4.88.27-2.27.53-4.55.8-6.82.05-.41.1-.83.17-1.24.06-.39-.04-.57-.48-.55-.68.03-1.36.02-2.05,0-1.54-.04-2.76-1.06-3.05-2.57-.15-.78-.15-1.57.01-2.35.32-1.5,1.53-2.46,3.07-2.48.76,0,1.52,0,2.28,0,.62,0,.63,0,.63-.61,0-1.5,0-3.01,0-4.51,0-2.17,0-4.34,0-6.51,0-1.42,0-2.85.06-4.27.04-.76.38-1.14,1.13-1.19.15-.01.31,0,.46,0,1.53,0,3.07,0,4.6,0,1.05,0,1.4.35,1.4,1.39,0,5,0,10.01,0,15.01q0,.7.72.7c.29,0,.59-.02.88,0,.44.04.59-.11.58-.57-.02-2.23-.02-4.46-.02-6.69,0-.99,0-1.98.01-2.97.01-1.03.38-1.39,1.41-1.39,1.63,0,3.26,0,4.88,0,1,0,1.37.38,1.37,1.39,0,3.22,0,6.45-.01,9.67,0,.45.13.58.58.58,4.74-.01,9.49,0,14.23,0h0ZM37.58,34.69h0c-11.29,0-22.57,0-33.86,0-.22,0-.43,0-.65,0-.58.04-.91.32-1.03.89-.11.49-.1.98-.01,1.48.11.62.46.96,1.09,1,.37.02.74.02,1.12.02,21.88,0,43.75,0,65.63,0,.68,0,1.36.01,2.05-.01.76-.02,1.24-.43,1.32-1.12.04-.32.03-.65-.01-.97-.13-.96-.5-1.27-1.49-1.28-.2,0-.4,0-.6,0-11.18,0-22.36,0-33.53,0ZM62.26,7.99c0-2.81-1.68-5.11-4.27-5.77-2.38-.6-4.53-.04-6.5,1.36-.33.24-.34.39-.06.67.85.83,1.69,1.68,2.53,2.52,2.03,2.04,4.07,4.07,6.1,6.12.26.26.38.25.59-.05,1.03-1.46,1.6-3.06,1.61-4.85ZM65.64,40.09h0c-.33,0-1.44-.18-1.7.04-.28.24.03.85.09,1.15.27,1.14.53,2.29.8,3.43.53,2.29,1.09,4.58,1.64,6.86.55,2.29,1.11,4.58,1.66,6.86.18.76.93,5.72,1.84,5.59.73-.1.17-1.85.11-2.39-.13-1.15-.27-2.29-.41-3.44-.28-2.33-.56-4.66-.84-6.99-.28-2.29-.56-4.58-.84-6.87-.13-1.11-.23-2.22-.4-3.32-.19-1.2-.85-.92-1.96-.92ZM9.66,40.1h0c-.48,0-.96,0-1.44,0-.33-.01-.47.12-.51.45-.13,1.42-.35,2.82-.51,4.24-.35,3.09-.77,6.16-1.11,9.25-.34,3.15-.77,6.29-1.16,9.43-.06.51.1.65.59.56.3-.06.29-.3.33-.49.41-1.7.79-3.4,1.22-5.1.75-2.98,1.4-5.99,2.15-8.98.73-2.93,1.45-5.86,2.14-8.79.13-.55.13-.56-.42-.56-.43,0-.87,0-1.3,0ZM62.48,32.69h0c1.78,0,3.56,0,5.33,0,.33,0,1.52.2,1.81-.08.24-.24.09-1.25.08-1.53-.03-.99-.23-1.18-1.23-1.22-1.57-.06-3.15,0-4.71,0-1.8,0-3.59,0-5.39,0-.87,0-2.76-.43-3.08.63-.1.34-.19,1.7.03,2,.33.45,1.56.2,2.06.2,1.7,0,3.41,0,5.11,0ZM8.17,25.1h0c0,2.35,0,4.71,0,7.06,0,.4.11.55.53.54.87-.03,1.74-.02,2.6,0,.35,0,.46-.13.46-.46,0-4.72,0-9.45,0-14.17,0-.34-.12-.47-.46-.47-.85.02-1.71.03-2.56,0-.46-.02-.58.15-.57.58.02,2.31,0,4.61,0,6.92ZM21.61,27.88h0c0-1.28.03-2.56,0-3.84-.03-1.27-.75-.95-1.84-.95-.37,0-1.35-.19-1.66.04-.34.25-.12.98-.11,1.33.04,1.19.01,2.38.01,3.57,0,1.21-.02,2.42,0,3.62.02,1.43.77,1.03,2.03,1.03,1.19,0,1.56.22,1.57-1.05.01-1.25,0-2.51,0-3.76ZM74.77,12.21c-1.17,0-2.03.88-2.03,2.07.01,1.82,2.42,2.6,3.56,1.25,1.09-1.29.16-3.33-1.53-3.33ZM64.92,27.87c.34.04.49-.21.66-.43,2.09-2.83,4.18-5.65,6.27-8.48.24-.32.46-.66.69-.99.12-.17.16-.35-.03-.49-.2-.15-.38-.09-.53.09-.05.06-.1.12-.14.18-2.39,3.22-4.77,6.44-7.16,9.67-.07.1-.2.19-.14.32.07.15.23.12.37.13ZM64.09,6.55c0,.37.13.62.41.82,2.17,1.49,4.35,2.96,6.44,4.57.25.19.44.17.62-.08.2-.28-.02-.38-.2-.51-1.43-1-2.87-2-4.3-3.01-.88-.63-1.75-1.27-2.63-1.91-.08-.06-.17-.16-.29-.1-.1.05-.06.16-.06.21ZM54.19,11.32c.43,0,.72-.09.85-.34.26-.47-1.4-1.86-1.74-1.71-1.04.45.23,1.94.89,2.05ZM58.48,27.85c.3.04.55,0,.55-.44.03-1.47-2.15.6-.55.44Z"/>
  <path class="cls-1" d="M9.04,25.15c0-2.04,0-4.08,0-6.13,0-.34.09-.5.45-.45.12.02.25,0,.37,0,1.01,0,1.03,0,.99,1.04-.13,3.19-.03,6.37-.05,9.56,0,.68.03,1.36.06,2.04.02.38-.14.51-.52.52-1.29.02-1.29.03-1.29-1.24,0-1.78,0-3.56,0-5.34,0,0,0,0,0,0Z"/>
  <path class="cls-1" d="M18.91,27.89c0-.97-.29-2.45,0-3.39.17-.56.74-.72,1.35-.53.99.31.47,2.88.47,3.75,0,1.02.76,4.98-1.34,4.07-.99-.43-.48-3.02-.48-3.9Z"/>
</svg>