<?xml version="1.0" encoding="UTF-8"?>
<svg id="Capa_1" data-name="Capa 1" xmlns="http://www.w3.org/2000/svg" viewBox="0 0 63.96 63.87">
  <defs>
    <style>
      .cls-1 {
        fill: #d4191e;
      }
    </style>
  </defs>
  <path class="cls-1" d="M43.46,42.71c0,5.26,0,10.53,0,15.79,0,1,.26,1.86,1.23,2.31,1.03.48,2.05.42,2.99-.22.71-.48.82-1.25.82-2.02.01-3.7,0-7.39,0-11.09,0-1.97,0-3.94,0-5.9,0-.43.08-.82.39-1.14.37-.37.81-.5,1.32-.32.55.19.82.61.89,1.16.03.18.01.37.01.56,0,5.56,0,11.11,0,16.67,0,1,.28,1.86,1.25,2.3,1.04.48,2.07.41,3.02-.26.61-.44.71-1.12.78-1.8.02-.17,0-.35,0-.52,0-10.42,0-20.85,0-31.27,0-.26-.02-.53.06-.79.18-.62.75-1.06,1.32-1.01.64.06,1.16.57,1.22,1.22.02.18.01.37.01.56,0,4.16,0,8.32,0,12.48,0,1.02.68,1.53,1.66,1.26.57-.16.83-.49.83-1.11,0-1.26,0-2.53,0-3.79,0-.46.13-.87.5-1.17.79-.64,2.01-.18,2.07.85.1,1.55.18,3.12-.03,4.66-.32,2.3-2.2,3.54-4.57,3.13-.4-.07-.47.03-.47.4,0,4.92,0,9.84,0,14.76,0,.7-.07,1.38-.29,2.04-.67,2-2.21,2.93-4.17,3.23-1.6.24-3.02-.25-4.24-1.3-.21-.18-.32-.16-.52.01-2.01,1.76-5,1.81-7.02.08-1.2-1.03-1.68-2.39-1.68-3.94,0-4.79,0-9.57,0-14.36q0-.97-.98-.84c-2.06.27-4.02-1.4-4.12-3.52-.02-.33,0-.66,0-1,0-5.69,0-11.38,0-17.07,0-2.64,1.14-4.61,3.4-5.96,1.64-.99,3.37-1.76,5.21-2.26.39-.11.4-.14.1-.44-1.57-1.6-2.37-3.51-2.32-5.75.04-1.72.73-3.21,1.83-4.49,1.66-1.94,3.75-3.02,6.35-2.8,3.53.3,6.23,2.65,7.01,6.11.61,2.7-.28,5-2.13,6.97-.26.28-.28.3.11.41,1.76.51,3.43,1.2,5.01,2.14,1.8,1.07,3.03,2.52,3.45,4.6.09.43.13.87.13,1.31,0,1.22,0,2.45,0,3.67,0,.38-.09.74-.35,1.03-.36.4-.9.54-1.38.36-.53-.19-.87-.67-.88-1.3-.01-1.22-.01-2.45,0-3.67.01-1.5-.57-2.67-1.85-3.49-2.28-1.46-4.76-2.35-7.45-2.65-3.38-.38-6.62.08-9.72,1.52-.93.43-1.81.96-2.62,1.59-.86.67-1.28,1.61-1.28,2.68-.02,6.08-.01,12.15,0,18.23,0,.79.46,1.23,1.25,1.23.79,0,1.24-.44,1.24-1.23,0-4.21,0-8.43,0-12.64,0-.24,0-.48.06-.71.18-.62.75-1.06,1.32-1,.64.06,1.15.57,1.22,1.23.02.18.01.37.01.56,0,5.25,0,10.5,0,15.75ZM44.74,7.74c0,2.69,2.37,5.04,5.1,5.04,4.56,0,6.72-5.84,3.33-8.83-3.21-2.84-8.44-.54-8.44,3.79Z"/>
  <path class="cls-1" d="M14.02,46.36c2.43,0,4.87,0,7.3,0,.12,0,.24,0,.36,0,.44-.02.48-.07.4-.5-.33-1.65-.65-3.31-.98-4.96-.87-4.47-1.75-8.94-2.61-13.41-.15-.78.29-1.43,1.02-1.59.64-.13,1.32.31,1.48,1.03.3,1.39.56,2.79.83,4.18.37,1.9.75,3.8,1.12,5.71.04.18.08.36.13.54.27.92,1.39,1.22,2.12.57.31-.28.36-.62.3-1.02-.37-2.25-.86-4.49-1.29-6.73-.67-3.45-1.35-6.91-2.02-10.36-.2-1.06-.47-2.07-1.33-2.82-.65-.57-1.42-.84-2.22-1.03-3.31-.79-6.6-.81-9.87.23-1.46.46-2.34,1.46-2.65,2.95-.18.86-.34,1.72-.55,2.57-.12.51-.5.82-1.01.91-.53.09-.96-.12-1.28-.56-.16-.22-.27-.49-.22-.75.27-1.35.36-2.75.93-4.03.87-1.94,2.37-3.12,4.39-3.7.09-.03.18-.05.27-.07.3-.05.33-.16.11-.38-.55-.54-1.03-1.15-1.4-1.83-1.87-3.45-.98-7.03,1.85-9.45,2.93-2.53,7.11-2.46,9.96.17,1.69,1.55,2.64,3.5,2.58,5.83-.05,2.07-.88,3.83-2.34,5.3-.06.06-.17.1-.16.21.02.14.16.12.25.14.62.17,1.22.37,1.79.67,1.92.99,2.92,2.64,3.35,4.7.47,2.28.94,4.55,1.36,6.84.66,3.55,1.37,7.09,2.07,10.64.49,2.49-1.36,4.44-3.74,4.56-.07,0-.13,0-.2,0-.29-.04-.36.07-.3.36.4,1.96.73,3.95,1.19,5.9.26,1.08-.56,1.94-1.53,1.81-.36-.05-.46.08-.45.43.01,3.03,0,6.06,0,9.09,0,.67-.08,1.33-.29,1.96-.68,2.02-2.22,2.95-4.2,3.24-1.6.24-3.02-.26-4.24-1.32-.23-.2-.34-.11-.52.05-2.35,2.06-6.04,1.67-7.79-.81-.64-.91-.9-1.94-.9-3.05,0-3.02,0-6.04,0-9.05,0-.37,0-.56-.5-.53-1.07.07-1.68-.76-1.47-1.8.4-1.92.78-3.85,1.16-5.78.1-.49.08-.49-.42-.5-2.57-.04-4.31-2.23-3.78-4.74.33-1.56.63-3.12.94-4.69.04-.19.08-.39.14-.58.22-.61.77-.92,1.43-.82.58.09,1.04.62,1.03,1.24-.01.87-.29,1.7-.44,2.55-.18,1.01-.38,2.01-.57,3.01-.12.66.2,1.2.85,1.32.65.12,1.35.1,1.56-.75.4-1.68.69-3.38,1.03-5.07.36-1.77.68-3.55,1.05-5.31.22-1.07,1.19-1.52,1.99-.97.46.31.66.76.55,1.31-.53,2.71-1.05,5.42-1.58,8.13-.68,3.45-1.35,6.91-2.04,10.36-.07.37.06.46.4.45,2.53-.01,5.05,0,7.58,0h0ZM8.99,7.72c0,2.7,2.36,5.04,5.09,5.05,4.56,0,6.74-5.82,3.35-8.82-3.2-2.84-8.44-.56-8.44,3.78ZM7.71,54.09c0,1.54,0,3.08,0,4.62,0,.63.15,1.21.61,1.68.71.72,2.01.94,3.05.53,1.03-.41,1.37-1.24,1.37-2.25.01-3.1,0-6.19.01-9.29,0-.34-.12-.43-.44-.43-1.38.01-2.76.01-4.15,0-.37,0-.48.11-.48.48.02,1.55,0,3.11,0,4.66ZM20.42,54.04c0-1.55,0-3.11,0-4.66,0-.26-.03-.43-.36-.42-1.45.01-2.9,0-4.35,0-.26,0-.35.1-.35.36,0,3.19,0,6.38.01,9.57,0,.78.33,1.44,1.04,1.86.59.35,1.22.45,1.88.37,1.1-.14,1.84-.75,2.01-1.65.06-.32.11-.65.1-.99,0-1.47,0-2.95,0-4.42Z"/>
  <path class="cls-1" d="M30.64,31.95c0-10.04,0-20.07,0-30.11,0-.2,0-.4.01-.6.08-.67.64-1.2,1.27-1.22.64-.01,1.23.53,1.31,1.22.02.14.01.29.01.44,0,20.18,0,40.36,0,60.54,0,.12,0,.24,0,.36-.05.72-.6,1.27-1.28,1.29-.65.02-1.25-.55-1.32-1.25-.02-.18,0-.37,0-.56,0-10.04,0-20.07,0-30.11Z"/>
  <path class="cls-1" d="M3.34,27.66c-1.14,0-1.64-1.44-.86-2.21.79-.77,2.22-.2,2.19.93-.02.68-.64,1.28-1.33,1.27Z"/>
  <path class="cls-1" d="M62.56,31.81c-1.13-.01-1.66-1.45-.87-2.21.79-.75,2.2-.18,2.18.94-.01.7-.61,1.28-1.32,1.27Z"/>
</svg>