<?xml version="1.0" encoding="UTF-8"?>
<svg id="Capa_1" data-name="Capa 1" xmlns="http://www.w3.org/2000/svg" viewBox="0 0 25.01 25">
  <defs>
    <style>
      .cls-1 {
        fill: #fff;
      }
    </style>
  </defs>
  <path class="cls-1" d="M13.46,25h-1.95c-1.51-.2-2.95-.5-4.34-1.15-1.29-.61-2.48-1.44-3.49-2.44C1.52,19.26.33,16.49,0,13.49,0,12.83,0,12.17,0,11.51c.24-1.58.53-3.05,1.23-4.5.6-1.23,1.4-2.36,2.37-3.34C5.74,1.53,8.46.35,11.45,0c.69,0,1.38,0,2.07,0,2.81.36,5.36,1.34,7.47,3.28,3.63,3.33,4.96,8.69,3.34,13.34-.78,2.23-2.2,4.24-4.06,5.71-1.98,1.56-4.31,2.4-6.81,2.68ZM12.49,7.37c-2.27,0-4.55,0-6.82,0-.07,0-.18-.04-.21.03-.03.08.08.13.13.18.67.67,1.35,1.34,2.02,2.01,1.42,1.42,2.84,2.83,4.27,4.25.25.25.42.26.68.01,1.11-1.02,2.21-2.05,3.32-3.07,1.18-1.09,2.37-2.19,3.55-3.28.03-.03.09-.05.08-.1-.02-.06-.09-.03-.13-.03-.04,0-.09,0-.14,0-2.25,0-4.51,0-6.76,0ZM12.47,17.62h0c1.27,0,2.53,0,3.8,0,1.04,0,2.08-.01,3.12-.02.05,0,.11.02.14-.03.03-.05-.04-.09-.07-.12-.23-.24-.46-.47-.69-.71-1.23-1.28-2.45-2.56-3.68-3.84-.14-.15-.14-.14-.3,0-.57.53-1.15,1.06-1.72,1.59-.52.49-1.2.48-1.71-.02-.49-.48-.98-.97-1.47-1.46-.13-.13-.17-.13-.3.01-.23.25-.46.5-.69.75-1.14,1.23-2.27,2.45-3.41,3.68-.03.03-.09.06-.06.11.02.05.08.03.12.03.63,0,1.26.02,1.89.02,1.67,0,3.34,0,5.02,0ZM20.17,7.98c-.07,0-.1.06-.14.09-.74.69-1.48,1.37-2.23,2.06-.69.64-1.38,1.27-2.08,1.91-.17.15-.17.16-.01.32.83.87,1.66,1.73,2.49,2.6.49.51.98,1.02,1.47,1.53.15.16.32.31.49.49V7.98ZM4.83,16.95s.07-.04.09-.07c.6-.65,1.19-1.3,1.79-1.94.77-.84,1.55-1.67,2.33-2.51.09-.1.1-.15,0-.25-.64-.63-1.28-1.27-1.92-1.91-.71-.71-1.43-1.41-2.15-2.12-.04-.04-.08-.12-.14-.1-.06.03-.03.12-.03.18,0,2.85,0,5.7,0,8.55,0,.06-.02.12.02.17Z"/>
</svg>