<?xml version="1.0" encoding="UTF-8"?>
<svg id="Capa_1" data-name="Capa 1" xmlns="http://www.w3.org/2000/svg" viewBox="0 0 25 25">
  <defs>
    <style>
      .cls-1 {
        fill: #969696;
      }
    </style>
  </defs>
  <path class="cls-1" d="M25,12.5c0,6.9-5.6,12.5-12.5,12.5S0,19.4,0,12.5,5.6,0,12.5,0s12.5,5.6,12.5,12.5ZM20.38,16.12v-7.24c0-2.35-1.91-4.26-4.26-4.26h-7.24c-2.35,0-4.26,1.91-4.26,4.26v7.24c0,2.35,1.91,4.26,4.26,4.26h7.24c2.35,0,4.26-1.91,4.26-4.26ZM16.12,5.9c1.65,0,2.98,1.34,2.98,2.98v7.24c0,1.65-1.34,2.98-2.98,2.98h-7.24c-1.65,0-2.98-1.34-2.98-2.98v-7.24c0-1.65,1.34-2.98,2.98-2.98h7.24ZM13.05,15.96c.93-.14,1.76-.63,2.32-1.39.56-.76.8-1.69.66-2.62h0c-.11-.76-.46-1.44-1-1.98-.54-.54-1.22-.88-1.98-1-.34-.05-.69-.05-1.04,0-.93.14-1.76.63-2.32,1.39-.56.76-.8,1.69-.66,2.62.14.93.63,1.76,1.39,2.32.62.46,1.34.7,2.1.7.17,0,.35-.01.53-.04ZM12.86,10.23c.99.15,1.76.91,1.9,1.9.18,1.23-.67,2.38-1.9,2.57-.6.09-1.19-.06-1.68-.42-.48-.36-.8-.89-.89-1.48-.09-.6.06-1.19.42-1.68s.89-.8,1.48-.89c.11-.02.22-.02.33-.02s.22,0,.33.02ZM16.93,8.97c.12-.12.19-.28.19-.45s-.07-.33-.19-.45c-.12-.12-.28-.19-.45-.19s-.33.07-.45.19-.19.28-.19.45.07.33.19.45c.12.12.28.19.45.19s.33-.07.45-.19Z"/>
</svg>