<?xml version="1.0" encoding="UTF-8"?>
<svg id="Capa_1" data-name="Capa 1" xmlns="http://www.w3.org/2000/svg" viewBox="0 0 77.59 50.11">
  <defs>
    <style>
      .cls-1 {
        fill: #d4191e;
      }
    </style>
  </defs>
  <path class="cls-1" d="M0,25C.06,12.46,10.11,1.7,23.43,1.71c12.86.01,23.56,10.56,23.28,23.85-.27,12.97-10.78,23.09-23.89,22.82C9.87,48.11.03,37.59,0,25ZM2.51,25.04c-.05,11.33,9.18,20.83,20.87,20.86,11.08.03,20.81-9.07,20.84-20.75.03-11.6-9.33-20.84-20.72-20.93-11.63-.09-21.03,9.51-20.99,20.82Z"/>
  <path class="cls-1" d="M60.59,2.88c2.26,0,4.51,0,6.77,0,.61,0,.54.06.54-.55,0-.41,0-.82,0-1.23,0-.44.18-.78.57-.99.38-.2.72-.1,1.04.13,1.43,1.07,2.86,2.14,4.29,3.21,1.09.82,2.19,1.63,3.27,2.46.69.54.68,1.18-.02,1.71-2.14,1.62-4.3,3.23-6.45,4.84-.36.27-.72.54-1.09.81-.32.23-.67.33-1.04.13-.38-.2-.56-.53-.57-.96,0-.48-.02-.96,0-1.44.02-.32-.1-.38-.4-.38-4.54,0-9.09,0-13.63,0-.13,0-.26,0-.39,0-.56-.04-.99-.45-1-1.01-.01-1.91-.01-3.81,0-5.72,0-.63.46-1.01,1.14-1.02,2.19,0,4.37,0,6.56,0,.13,0,.26,0,.39,0ZM69.88,10.55c.08-.04.12-.05.15-.07,1.54-1.23,3.13-2.37,4.71-3.55.18-.13.14-.21-.01-.34-1.51-1.17-3.04-2.33-4.58-3.47-.07-.05-.13-.13-.23-.13-.05.05-.03.12-.03.17,0,.47,0,.94,0,1.41,0,.19-.07.28-.26.27-.1,0-.2,0-.3,0-4.81,0-9.63,0-14.44,0q-.41,0-.41.41c0,1.01,0,2.03,0,3.04,0,.27.07.36.35.36,1.6-.01,3.21,0,4.81,0,3.03,0,6.06,0,9.09,0,.74,0,1.16.42,1.16,1.15,0,.23,0,.46,0,.74Z"/>
  <path class="cls-1" d="M60.57,47.23c-2.28,0-4.55,0-6.83,0-.85,0-1.25-.4-1.25-1.25,0-1.75,0-3.51,0-5.26,0-.84.4-1.23,1.24-1.23,4.58,0,9.17,0,13.75,0q.42,0,.42-.43c0-.45,0-.9,0-1.35,0-.44.17-.78.57-.99.38-.2.72-.11,1.04.13,1.17.87,2.33,1.74,3.49,2.61,1.36,1.02,2.72,2.03,4.06,3.06.7.53.69,1.18-.01,1.71-2.48,1.87-4.97,3.73-7.46,5.6-.34.26-.7.4-1.12.19-.42-.22-.58-.59-.58-1.04,0-.46-.01-.92,0-1.38.01-.28-.08-.36-.36-.36-2.33,0-4.66,0-6.98,0ZM69.87,39.53c0,.35,0,.63,0,.9-.02.49-.29.82-.76.97-.19.06-.38.05-.57.05-4.57,0-9.13,0-13.7,0-.3,0-.4.07-.4.38.02,1,0,2.01,0,3.01q0,.42.43.42c4.56,0,9.11,0,13.67,0,.96,0,1.32.37,1.32,1.33,0,.18,0,.35,0,.56.08-.04.12-.05.15-.07,1.54-1.23,3.14-2.37,4.71-3.55.18-.13.15-.21-.01-.34-1.26-.95-2.51-1.9-3.76-2.86-.34-.26-.69-.51-1.08-.8Z"/>
  <path class="cls-1" d="M68.41,21.18c1.65,0,3.29,0,4.94,0,.83,0,1.23.4,1.23,1.24,0,1.75,0,3.51,0,5.26,0,.86-.39,1.24-1.26,1.24-3.28,0-6.56,0-9.84,0q-.46,0-.47.48c0,.44,0,.88,0,1.32,0,.42-.18.76-.56.96-.37.2-.72.12-1.04-.12-1.16-.86-2.32-1.73-3.47-2.59-1.37-1.03-2.75-2.05-4.11-3.1-.68-.52-.67-1.17.02-1.69,2.27-1.72,4.55-3.42,6.83-5.13.22-.17.45-.34.67-.5.34-.25.69-.37,1.09-.15.39.21.56.56.56.99,0,.49.01.98,0,1.47,0,.24.08.31.32.31,1.7,0,3.39,0,5.09,0ZM61.04,28.89c0-.34,0-.6,0-.86,0-.34.12-.63.39-.84.25-.19.54-.24.85-.23,3.32,0,6.64,0,9.96,0,.27,0,.37-.07.36-.35-.02-1.02,0-2.05,0-3.07q0-.39-.4-.39c-3.33,0-6.66,0-9.99,0-.74,0-1.16-.41-1.17-1.15,0-.24,0-.47,0-.77-.14.1-.22.15-.3.21-.49.38-.98.77-1.47,1.14-1.02.77-2.04,1.52-3.07,2.28-.17.13-.2.21,0,.35.92.68,1.82,1.38,2.73,2.07.68.51,1.36,1.03,2.11,1.59Z"/>
  <path class="cls-1" d="M41.82,26.62c0,2.54-1.43,4.73-3.87,5.54-1.1.37-2.31.4-3.42.04-1.33-.43-2.17-1.45-3.27-2.24-.71-.51-2.21-1.67-3.08-1.11-1.29.83.01,2.51.4,3.48.87,2.13,1.31,4.21.44,6.43-1.71,4.38-8.4,6.8-11.74,2.74-1.52-1.84-1.79-4.49-.47-6.51.74-1.14,1.79-2,2.4-3.23.26-.53.73-1.26.42-1.8-.21-.37-.72-.71-1.14-.68-.63.04-1.35.55-1.92.79-.7.29-1.4.59-2.12.81-1.25.38-2.58.48-3.85.18-2.52-.6-4.65-2.58-5.36-5.07-.69-2.42-.38-5.28,1.63-6.98,1.56-1.32,3.82-1.71,5.72-.92,1.27.53,4.94,4.61,6.22,2.95.72-.93-.19-2.08-.58-3-.56-1.32-1.06-2.7-1.04-4.16.05-4.95,5.44-8.73,10.13-6.8,2.71,1.11,4.17,4.39,3.08,7.14-.56,1.4-1.77,2.36-2.55,3.63-.54.87-1.56,2.94.31,3.01.69.02,1.57-.6,2.19-.85.7-.28,1.38-.61,2.1-.81,1.1-.31,2.27-.37,3.39-.15,2.52.48,4.51,2.31,5.48,4.65.38.92.47,1.88.49,2.96ZM28.2,12.38c.01-1.72-.98-2.91-2.57-3.2-.53-.1-1.07-.05-1.6,0-3.09.29-4.99,3.58-4.1,6.26.39,1.18.94,2.29,1.4,3.44.09.22.25.27.46.22.81-.2,1.63-.29,2.47-.14.22.04.36-.03.44-.26.54-1.65,1.47-3.05,2.66-4.29.57-.6.89-1.3.85-2.03ZM10.42,20.17c-.52,0-1.11.17-1.64.56-1.03.75-1.39,1.78-1.37,3.03.04,3.38,3.25,5.76,6.45,4.69,1.14-.38,2.22-.9,3.34-1.36.21-.08.26-.21.21-.42-.19-.84-.31-1.68-.14-2.54.04-.19-.03-.31-.23-.37-1.7-.5-3.09-1.5-4.35-2.7-.6-.57-1.31-.88-2.27-.88ZM21.84,40.99c3.84.05,6.33-3.57,4.64-7.16-.22-.48-.43-.96-.62-1.45-.13-.32-.27-1.09-.55-1.3-.41-.31-1.84.15-2.4.12-1-.06-.85.29-1.25,1.2-.35.78-.78,1.5-1.31,2.17-1.01,1.29-2.28,2.38-1.73,4.19.42,1.38,1.78,2.32,3.22,2.23ZM39.3,26.47c.01-.23-.02-.52-.06-.82-.29-2.19-2.05-3.96-4.25-4.22-1.23-.15-2.34.27-3.46.75-.56.24-1.58.45-2.01.86-.39.36-.07.99-.02,1.48.06.58-.24,1.45.2,1.83.42.36,1.33.51,1.83.8,1.21.7,2.13,1.92,3.38,2.51,2.31,1.1,4.4-.91,4.39-3.19ZM27.02,25.08c0-2.39-2.03-3.65-3.61-3.68-3.22-.05-4.85,3.97-2.61,6.21,2.24,2.24,6.21.67,6.22-2.53Z"/>
</svg>