<?xml version="1.0" encoding="UTF-8"?>
<svg id="Capa_1" data-name="Capa 1" xmlns="http://www.w3.org/2000/svg" viewBox="0 0 49.91 63.86">
  <defs>
    <style>
      .cls-1 {
        fill: #d4191e;
      }
    </style>
  </defs>
  <path class="cls-1" d="M24.92,63.86c-6.3,0-12.61,0-18.91,0-.81,0-1.56-.18-2.32-.44C1.61,62.69,0,60.19,0,58.02c.02-9.2,0-18.4,0-27.6,0-2.84,2.29-5.39,5.11-5.74.95-.12,1.91-.04,2.86-.06.41-.01.44-.02.42-.42-.08-2.35-.04-4.71-.04-7.06,0-1.8.23-3.56.73-5.3.63-2.17,1.73-4.09,3.15-5.82C14.76,2.92,18.04,1.08,21.93.31c3.1-.62,6.12-.28,9.07.86,3.81,1.47,6.6,4.09,8.56,7.62,1.09,1.96,1.69,4.07,1.89,6.31.07.81.08,1.63.08,2.44,0,2.22.05,4.45-.03,6.67-.01.4.01.41.42.42.95.02,1.91-.05,2.86.06,2.73.29,4.7,2.62,5.05,5.02.04.31.06.62.06.94,0,5.02,0,10.05,0,15.07,0,.19.01.39-.04.58-.17.64-.73,1.02-1.4.96-.66-.06-1.15-.59-1.2-1.29-.02-.36,0-.72,0-1.07,0-4.68,0-9.35,0-14.03,0-1.33-.47-2.39-1.6-3.11-.53-.33-1.11-.48-1.73-.48-3.94,0-7.88,0-11.81,0-8.69,0-17.38.02-26.07-.01-1.97,0-3.44,1.55-3.43,3.42.03,9.01.01,18.01.02,27.02,0,1.48.62,2.59,1.97,3.25.49.24,1.02.27,1.56.27,4.63,0,9.26,0,13.9,0,7.95,0,15.9,0,23.85,0,1.21,0,2.16-.49,2.83-1.49.33-.49.47-1.04.51-1.63.03-.5.16-.94.61-1.23.87-.55,1.99.05,2.02,1.1.04,1.45-.5,2.7-1.4,3.79-1.17,1.42-2.72,2.1-4.54,2.1-6.35.02-12.69,0-19.04,0ZM38.87,20.03h0c0-1.35.03-2.69,0-4.04-.03-1.37-.28-2.72-.76-4.01-1.06-2.85-2.78-5.17-5.32-6.89-3.3-2.23-6.91-2.93-10.76-2.11-3.86.81-6.84,2.95-8.91,6.34-1.24,2.03-2.01,4.21-2.05,6.6-.05,2.78-.01,5.55-.02,8.33,0,.29.1.38.38.37,1.11-.01,2.21,0,3.32,0,.44,0,.44,0,.44-.43,0-2.51,0-5.01,0-7.52,0-1.9.51-3.64,1.49-5.28,2.11-3.57,6.79-5.24,10.41-4.38,4.55,1.09,7.67,4.92,7.67,9.61,0,2.52,0,5.03,0,7.55,0,.43,0,.44.43.44,1.1,0,2.19,0,3.29,0,.4,0,.41,0,.41-.43,0-1.39,0-2.78,0-4.17ZM24.92,24.62c2.27,0,4.53,0,6.8,0,.27,0,.38-.07.38-.37-.01-2.67,0-5.34-.01-8,0-.3-.05-.6-.09-.9-.57-3.54-3.95-6.13-7.39-5.89-2.03.14-3.69.91-5.02,2.45-1.21,1.4-1.79,3.01-1.78,4.86.02,2.47,0,4.95,0,7.42,0,.43,0,.43.44.43,2.22,0,4.45,0,6.67,0Z"/>
  <path class="cls-1" d="M28.29,48.11c-.03.56.05,1.3-.05,2.05-.21,1.46-1.63,2.68-3.1,2.77-1.62.11-3.48-1.31-3.5-3.39-.01-1.18-.04-2.36.02-3.54.01-.2-.11-.29-.23-.4-1.08-.93-1.82-2.07-2.06-3.48-.52-3.05,1.73-6.08,4.8-6.49,3.28-.44,6.11,1.84,6.42,5.15.18,1.96-.63,3.49-2.03,4.77-.19.17-.28.33-.27.58.02.6,0,1.19,0,1.98ZM24.32,47.4s0,0,0,0c0,.67-.23,1.84.04,2.46.2.44.78.58,1.11.18.31-.39.13-1.41.13-1.84,0-.84,0-1.67,0-2.51,0-.66.03-1.21.54-1.68.54-.5,1.14-.73,1.51-1.42.56-1.04.36-2.44-.38-3.35-1.57-1.91-4.79-.99-5.24,1.39-.22,1.15.28,2.34,1.21,3.03.49.37.91.62,1.04,1.26.17.78.04,1.69.04,2.48Z"/>
  <path class="cls-1" d="M49.91,51.95c0,1.18-1.4,1.83-2.25.96-.82-.84-.21-2.34.99-2.33.71,0,1.27.6,1.26,1.38Z"/>
</svg>