<?xml version="1.0" encoding="UTF-8"?>
<svg xmlns="http://www.w3.org/2000/svg" version="1.1" xmlns:xlink="http://www.w3.org/1999/xlink" viewBox="0 0 1928 1053">
  <!-- Generator: Adobe Illustrator 29.4.0, SVG Export Plug-In . SVG Version: 2.1.0 Build 152)  -->
  <defs>
    <style>
      .st0 {
        opacity: .4;
      }

      .st0, .st1, .st2, .st3, .st4 {
        isolation: isolate;
      }

      .st0, .st1, .st3, .st4 {
        mix-blend-mode: multiply;
      }

      .st1 {
        fill: url(#Degradado_sin_nombre2);
      }

      .st5 {
        stroke: #fff;
        stroke-linecap: round;
        stroke-linejoin: round;
        stroke-width: 10px;
      }

      .st5, .st6 {
        fill: none;
      }

      .st7 {
        clip-path: url(#clippath);
      }

      .st3 {
        fill: url(#Degradado_sin_nombre);
      }

      .st4 {
        fill: url(#Degradado_sin_nombre1);
      }
    </style>
    <clipPath id="clippath">
      <rect class="st6" width="1928" height="1053"/>
    </clipPath>
    <linearGradient id="Degradado_sin_nombre" data-name="Degradado sin nombre" x1="5603.5" y1="40.7" x2="5570.8" y2="-426.4" gradientTransform="translate(-1139.7 -3716.8) rotate(56.3) scale(1 -1)" gradientUnits="userSpaceOnUse">
      <stop offset="0" stop-color="#d4191e"/>
      <stop offset="1" stop-color="#d4191e" stop-opacity=".7"/>
    </linearGradient>
    <linearGradient id="Degradado_sin_nombre1" data-name="Degradado sin nombre" x1="4426.1" y1="-1780.8" x2="4393.4" y2="-2247.9" gradientTransform="translate(935.4 -3716.8) rotate(123.7)" xlink:href="#Degradado_sin_nombre"/>
    <linearGradient id="Degradado_sin_nombre2" data-name="Degradado sin nombre" x1="3176.7" y1="-1704.4" x2="3137.5" y2="-2265.1" gradientTransform="translate(-1065.9 -3115.2) rotate(88.7)" xlink:href="#Degradado_sin_nombre"/>
  </defs>
  <g class="st2">
    <g id="Capa_1">
      <g class="st7">
        <g>
          <image class="st2" width="4032" height="2268" transform="translate(-86.6 -36.3) scale(.5)" xlink:href="../../../Imágenes/COCA - FOTOS/20180505_083829.jpg"/>
          <rect class="st6" x="-3.5" y="-96" width="1935" height="1080"/>
          <rect class="st0" x="-9" y="-20" width="1947" height="1093"/>
          <polygon class="st3" points="2158.1 935.4 1719 1228.8 1351 1225.8 2155 692.5 2158.1 935.4"/>
          <polygon class="st4" points="-193.6 964.6 245.5 1258.1 613.5 1255.1 -190.5 721.7 -193.6 964.6"/>
          <polygon class="st1" points="523 -13.6 965 264.8 1555.7 -120 386.4 -214.5 523 -13.6"/>
          <polygon class="st5" points="4153.7 -644 965 1471.2 -475 540.7 -457.3 -654.1 965 264.8 2872.7 -978 4153.7 -644"/>
        </g>
      </g>
    </g>
  </g>
</svg>