<?xml version="1.0" encoding="UTF-8"?>
<svg id="Capa_1" data-name="Capa 1" xmlns="http://www.w3.org/2000/svg" viewBox="0 0 80.38 97">
  <defs>
    <style>
      .cls-1 {
        fill: #d4191e;
      }
    </style>
  </defs>
  <path class="cls-1" d="M57.81,40.6c.1,9.26-3.03,19.31-12.54,22.68-2.17.77-4.72,1.34-7.04,1.32-1.83-.02-3.23-2.24-1.41-3.47.82-.55,2.03-.43,2.97-.52,1.14-.11,2.26-.32,3.35-.65,1.75-.54,3.42-1.36,4.85-2.51,7.06-5.67,6.56-16.98,5.25-25.01-.06-.38-.16-2.42-.63-2.55-.26-.07-.86.44-1.08.56-.58.32-1.17.6-1.78.86-2.29.97-4.72,1.51-7.16,1.96-4.13.74-8.47,1.27-11.52,4.45-2.99,3.12-4.39,7.86-4.04,12.12.09,1.07.29,2.12.61,3.14.13.4.82,2.77,1.3,2.85.42.07,1.41-1.78,1.67-2.14.73-1,1.48-1.99,2.26-2.96,3.06-3.78,6.54-7.48,10.38-10.48.81-.64,1.69-1.19,2.71-.6.71.42,1.12,1.25.91,2.06-.24.91-1.23,1.54-1.89,2.13-.98.86-1.96,1.73-2.91,2.63-6.79,6.45-13.43,14.72-15.4,24.11-.31,1.47-.72,5.15-3.23,3.63-1.9-1.15-.48-4.65-.02-6.3.63-2.31,1.51-4.55,2.61-6.68.54-1.05.78-1.54.18-2.61-.59-1.05-1.2-2.05-1.66-3.16-3.23-7.71-.63-17.82,6.37-22.6,3.93-2.68,9.13-2.85,13.64-3.84,2.11-.46,4.15-1.24,5.96-2.44,1.24-.82,2.85-3.08,4.47-1.84.76.58.91,1.63,1.12,2.5.3,1.2.56,2.41.76,3.63.47,2.81,1.04,6.78.94,9.73Z"/>
  <path class="cls-1" d="M41.42,84.72c.95.25,2.23-.05,3.19-.16,1.17-.14,2.33-.33,3.47-.57,2.25-.48,4.43-1.21,6.53-2.13,3.87-1.7,7.44-4.06,10.52-6.96,6.13-5.79,10.07-13.41,11.09-21.78,1.13-9.23-1.24-18.47-6.7-26-2.58-3.55-5.84-6.59-9.5-9-1.88-1.24-3.9-2.1-5.85-3.2-1.49-.84-1.7-3.28.34-3.61,1-.16,2.16.58,3.03.98.99.46,1.96.97,2.91,1.52,1.89,1.1,3.68,2.37,5.34,3.79,3.08,2.62,5.8,5.65,8.01,9.04,4.77,7.34,7.24,16.4,6.44,25.13-1.62,17.59-14.44,32.19-31.68,36.01-2.45.54-4.88.78-7.38.9-.45.02-.79-.16-.75.37.01.24.69.84.85,1.04.8,1,1.61,2,2.41,3,.54.68,1.23,1.41,1.08,2.34-.13.85-.87,1.51-1.71,1.56-1.85.12-3.34-2.78-4.34-4.02-1.37-1.69-2.94-3.35-4.14-5.16-1.36-2.07.9-3.28,2.36-4.46,1.97-1.6,3.92-3.24,5.93-4.79.7-.55,1.41-1.02,2.33-.67.76.29,1.31,1.12,1.24,1.93-.16,1.81-3.31,3.41-4.58,4.45-.15.12-.35.2-.41.46Z"/>
  <path class="cls-1" d="M3.9,48.14c-.1,8.37,2.57,16.42,7.76,23,2.58,3.27,5.73,6.04,9.27,8.23.91.56,1.84,1.1,2.79,1.59.85.43,1.95.71,2.67,1.33,1.35,1.17.44,3.48-1.37,3.31-.94-.09-1.95-.76-2.78-1.17-1.03-.5-2.04-1.05-3.02-1.64-1.82-1.09-3.52-2.35-5.13-3.72-3.1-2.64-5.79-5.74-7.95-9.19C1.41,62.32-.75,53.19.23,44.34,2.21,26.66,15.83,11.93,33.43,8.94c1.13-.19,2.27-.33,3.42-.42.57-.05,2.93.15,3.18-.31.15-.28-1.47-1.96-1.71-2.25-.74-.92-1.61-1.83-2.23-2.83-1.03-1.66.54-3.97,2.42-2.79.81.51,1.47,1.55,2.07,2.29.8.99,1.6,1.98,2.4,2.97.68.85,1.35,1.71,2.02,2.57.6.77,1.53,1.69,1.3,2.76-.2.93-1.16,1.51-1.85,2.06-.99.79-1.99,1.59-2.98,2.38-.92.74-1.85,1.47-2.77,2.21-.8.64-1.73,1.71-2.83,1.69-2.03-.03-2.27-2.31-1.02-3.47.86-.8,1.84-1.49,2.75-2.23.42-.34,1.87-1.06,1.02-1.34-.85-.27-2.4.18-3.29.3-1.22.16-2.42.38-3.62.67-4.03.96-7.92,2.64-11.39,4.91-7.1,4.65-12.41,11.74-14.88,19.85-.66,2.18-1.12,4.43-1.38,6.69-.14,1.23-.17,2.47-.15,3.5Z"/>
</svg>