<?xml version="1.0" encoding="UTF-8"?>
<svg id="Capa_1" data-name="Capa 1" xmlns="http://www.w3.org/2000/svg" viewBox="0 0 66.27 63.86">
  <defs>
    <style>
      .cls-1 {
        fill: #d4191e;
      }
    </style>
  </defs>
  <path class="cls-1" d="M44.06,26.38c-.15-1.83-.34-3.66-.52-5.49-.18-1.82-.47-3.68-.34-5.51.09-1.3.34-2.8,1.75-3.26,1.39-.46,2.68.47,3.34,1.64,1.59,2.81,2.13,6.33,2.9,9.43.45,1.83.89,3.66,1.37,5.49.45,1.75,1.08,3.35,1.74,5.03.37-.42.43.41.53.67.25.66.57,1.29.84,1.94.59,1.39,1.18,2.78,1.75,4.18,1.07,2.63,1.61,5.28,1.86,8.1.12,1.41,0,2.81.96,3.93.35.41.72,1.04,1.15,1.35.29.21.47.24.72.55.93,1.12,1.92,2.19,2.85,3.32.55.66,2.05,2.07.81,2.83-1.09.67-2.02-.94-2.59-1.65-.39-.48-.78-1.17-1.27-1.55-.28-.21-.51-.29-.76-.58-.94-1.09-1.91-2.16-2.8-3.29-.82-1.03-.97-2.25-1.08-3.52-.25-2.82-.48-5.57-1.56-8.21-.25-.61-.5-1.23-.75-1.85-.09-.21-.17-.66-.33-.82-.11-.11-.25,0-.33-.09-.35-.35-.51-1.22-.7-1.68-.28-.67-.57-1.33-.85-2-1.27-2.97-2.12-5.92-2.9-9.04-.8-3.19-1.54-6.39-2.5-9.53-.18.05-.02.18-.23.13-.13-.03-.18-.54-.22-.66-.18-.57-.43-1.36-.84-1.82-.93-1.03-.7,1.72-.68,2.19.09,2.99.56,5.95.79,8.93.09,1.18.28,2.68-.32,3.76-.57,1.01-1.63,1.02-2.38.21-.89-.97-1.4-2.3-1.88-3.51-.53-1.33-.98-2.68-1.46-4.02-.3.49-.53-.82-.59-1.01-.17-.52-.35-1.04-.53-1.57-.4-1.16-.75-2.34-1.22-3.47-.2-.48-.88-2.61-1.64-2.47-.98.19-.58,2.25-.46,2.8.52,2.46,1.46,4.88,2.26,7.26.72,2.15,1.83,4.51,1.93,6.81.04.93-.41,1.94-1.47,2.01-1.01.06-1.79-.93-2.34-1.65-.75-.97-1.39-2.02-2.01-3.08-.28-.48-.55-.96-.84-1.43-.27-.45-.57-.51-.84-.96-1.33-2.23-2.6-4.5-3.91-6.75-.29-.51-.58-1.01-.88-1.52-.21-.35-.56-1.13-.92-1.35-1.08-.68-.97,1.15-.8,1.72.67,2.28,2.16,4.44,3.32,6.49.62,1.09,1.23,2.19,1.82,3.29.27.5.53,1,.79,1.51.21.41.46,1.38.78,1.69.34.32.31,0,.54.57.19.49.4.98.58,1.48.32.88.87,2.22-.13,2.87-2.05,1.32-4.4-1.66-5.54-2.99-.39-.45-.76-.92-1.14-1.39-.31-.39-.62-.97-1.02-1.26-.23-.16-.43-.24-.65-.45-.42-.4-.76-.91-1.14-1.35-.62-.72-1.53-2.02-2.45-2.36-1.17-.44-.57,1.42-.31,1.92.49.94,1.22,1.78,1.86,2.62.68.9,1.38,2.21,2.24,2.94.04.04.26.04.35.11.13.1.19.3.29.43.33.47.7.91,1.04,1.37.8,1.05,1.58,2.12,2.36,3.19.69.96,1.38,1.93,2.04,2.92.31.47.61.94.9,1.41.11.18.17.31.3.45-.01-.01.2-.04.27.03.33.33.57,1.1.76,1.53.21.49.43,1.04.45,1.58.02.9-.61,1.51-1.47,1.65-2.18.35-4.15-1.72-5.79-2.83-.86-.59-1.77-1.11-2.65-1.68-.95-.62-2.03-1.41-3.16-1.62-.62-.12-1.85.27-1.69,1.14.07.41.62.68.91.91.55.41,1.09.83,1.63,1.26,1.8,1.43,3.65,2.86,5.36,4.39,3.34,2.99,6.72,6.1,10.97,7.77,2.1.82,4.47,1.05,6.49,2.07.96.48,1.33,1.43,1.72,2.37.32.75.89,1.97-.18,2.4-1.01.41-1.36-.62-1.65-1.35-.18-.44-.34-1.03-.65-1.4-.35-.41-.95-.48-1.44-.63-2.31-.7-4.63-1.24-6.78-2.37-1.99-1.05-3.92-2.2-5.7-3.57-.94-.73-1.84-1.49-2.7-2.31-.4-.38-.79-.77-1.18-1.14-.4-.38-.83-.54-1.24-.91-1.83-1.67-3.76-3.21-5.73-4.7-.74-.56-1.64-.93-2.02-1.83-.35-.81-.24-1.79.24-2.52,2.71-4.04,8.04.21,10.69,2.09.89.63,1.78,1.28,2.72,1.84.34.2.67.52.61.03-.06-.53-.67-1.22-.95-1.65-1.35-2.11-2.78-4.15-4.27-6.17-.45-.62-.93-.89-1.39-1.51-.75-1.02-1.52-2.01-2.28-3.02-1.35-1.79-3.28-3.71-3.73-5.98-.36-1.77,1.05-4.01,3.08-3.38.95.3,1.77,1.08,2.45,1.77.32.33.62.8.99,1.07.11.08.23,0,.34.07.29.22.54.62.78.91,1.51,1.79,2.92,3.8,4.65,5.39.02-.01.05-.03.07-.04-1.23-2.9-2.77-5.64-4.33-8.37-.3-.53-.64-1.59-1.1-1.99-.09-.08-.24-.09-.3-.16-.21-.21-.33-.55-.48-.83-.66-1.29-1.37-2.62-1.64-4.06-.24-1.26.15-2.52,1.27-3.23.99-.62,2.24-.72,3.18.05,1.05.87,1.72,2.3,2.4,3.45.75,1.26,1.42,2.58,2.19,3.83.02.04.1.24.15.28.12.1.24.04.33.12.24.21.38.61.53.9.41.76.84,1.51,1.28,2.26.47.8.94,1.59,1.43,2.37.32.53.75,1.6,1.29,1.9-.32-1.58-.95-3.11-1.47-4.63-.56-1.65-1.1-3.31-1.6-4.98-.73-2.46-2.25-6.78,1.23-7.93,1.49-.49,2.57.8,3.23,1.97.31.56.52,1.6.96,2.03,0,.08.04.14.1.19.08-.07.17-.08.26-.03.19.22.26.68.36.95,1.19,3.24,1.97,6.7,3.49,9.81.02,0,.05,0,.07,0Z"/>
  <path class="cls-1" d="M54.3,15.1c.1-.12.05-.27.16-.34.1.02.1.11.12.18.5,2.74,1.18,5.44,1.78,8.16.59,2.68,1.24,5.34,2.18,7.93.71,1.94,1.52,3.83,2.69,5.54.1.14.15.38.43.29.06-.02.1.07.13.13.94,1.42,2.07,2.71,3.08,4.08.36.49.72.99,1.1,1.47.35.44.38.88.08,1.36-.61,1-1.32,1.9-2.19,2.68-.41.36-.82.72-1.24,1.08-.4.34-.86.37-1.33.23-.5-.14-.82-.74-.64-1.24.17-.47.49-.82,1-.96.11-.03.2-.07.28-.15.64-.62,1.28-1.24,1.83-1.94.16-.2.17-.35,0-.56-.61-.77-1.21-1.56-1.81-2.34-.09-.12-.18-.23-.36-.24-.13,0-.18-.13-.26-.22-2.62-3.13-4.32-6.73-5.47-10.62-.46-1.56-.87-3.14-1.25-4.72-.02-.1-.06-.2-.09-.3-.12.02-.07.17-.17.2-.02-.01-.05-.02-.06-.04-.11-.22-.08-.46-.13-.69-1.07-4.71-2.03-9.45-3.32-14.11-.57-2.07-1.27-4.09-2.12-6.06-.16-.37-.38-.72-.56-1.08-.11-.22-.22-.23-.45-.12-2.28,1.18-4.55,2.4-7.07,3.02-2.52.62-5.05,1.2-7.61,1.61-2.31.37-4.57.94-6.84,1.52-2.8.71-5.11,2.25-7.42,3.86-.85.59-1.74,1.15-2.57,1.78-1.57,1.18-3.06,2.48-4.72,3.52-2.39,1.51-4.63,3.29-7.2,4.5-.54.25-1.11.45-1.66.68-.32.13-.4.31-.33.64.27,1.38.8,2.66,1.43,3.91.05.1.08.24.24.08.07-.07.13.02.16.09.67,1.47,1.59,2.79,2.5,4.11,1.4,2.05,2.84,4.09,4.25,6.13.07.1.12.2.27.14.1-.04.15.05.2.12,1.16,1.84,2.33,3.68,3.38,5.58.97,1.74,1.73,3.56,2.48,5.4.09.23.2.45.28.68.22.59.01,1.1-.53,1.34-.57.24-1.11.06-1.38-.5-.29-.62-.54-1.26-.81-1.89-.98-2.31-2.13-4.54-3.4-6.7-.06-.11-.11-.21-.27-.15-.12.05-.17-.05-.22-.14-1.42-2.36-3.01-4.61-4.6-6.87-.71-1.01-1.4-2.03-2.1-3.04-.07-.11-.13-.23-.29-.21-.11.01-.18-.06-.23-.15-.64-1.09-1.35-2.14-1.92-3.27-.87-1.76-1.51-3.59-1.7-5.56-.06-.58.15-.99.71-1.23.95-.39,1.86-.88,2.81-1.28,1.92-.83,3.57-2.08,5.27-3.23.67-.46,1.27-1.05,1.99-1.42,1.34-.69,2.41-1.73,3.61-2.58,1.21-.86,2.32-1.86,3.57-2.64,2.21-1.38,4.36-2.9,6.93-3.56,2.1-.54,4.18-1.13,6.32-1.49,2.56-.44,5.1-.92,7.63-1.52,2.1-.5,4.11-1.21,6.01-2.22.68-.36,1.33-.78,2-1.16.35-.2.72-.42,1.12-.52.42-.11.75.09,1.02.4.41.47.74,1,1.04,1.55,1.09,2.01,1.81,4.16,2.46,6.34.65,2.18,1.19,4.38,1.69,6.6.01.05.03.1.05.18Z"/>
  <path class="cls-1" d="M11.04,58.38c-.37.93-.74,1.86-1.12,2.78-.25.63-.44,1.55-1.26,1.64-.89.1-1.12-.8-1.4-1.46-.36-.87-.72-1.74-1.06-2.62-.65-1.71-2.08-1.81-3.62-2.43-.66-.26-1.76-.49-2.26-1.03-.65-.71-.12-1.4.58-1.72.92-.41,1.85-.8,2.81-1.1.72-.22,1.43-.42,1.95-1,.59-.67.79-1.69,1.12-2.5.28-.7.55-2.04,1.23-2.46,1.57-.96,2.37,2.69,2.74,3.6.07.17.11.48.23.6.01.01.33.14.2-.03-.06-.07.17.08.18.08.03.03.1.39.14.47.4.8,1.55,1.06,2.31,1.36.86.35,2.18.61,2.89,1.23.76.66.24,1.47-.49,1.8-.99.45-2.03.83-3.04,1.23-.47.19-.97.34-1.34.71-.19.19-.37.89-.53.97-.13.06-.15-.09-.26-.13ZM4.17,54.57c.44.18.8.34,1.17.47.94.31,1.72.92,2.25,1.75.29.46.48.97.68,1.47.2.51.23.67.5.2.53-.92.67-1.93,1.56-2.63.4-.32,2.76-.94,2.77-1.3-1.11-.45-2.41-.75-3.21-1.69-.37-.43-.61-.92-.83-1.43-.1-.24-.29-1.09-.56-1.01-.23.07-.56,1.32-.68,1.55-.21.41-.47.79-.79,1.12-.78.78-1.86,1.1-2.86,1.5Z"/>
  <path class="cls-1" d="M15.02,7.2c-.04.81-.72.99-1.36,1.26-.83.35-1.66.67-2.51.94-1.43.46-1.68,2-2.2,3.28-.22.53-.39,1.37-.96,1.65-.68.34-1.19-.12-1.47-.7-.32-.65-.56-1.35-.84-2.03-.26-.65-.46-1.52-1.08-1.93-.52-.34-1.29-.45-1.87-.68-.71-.28-1.71-.49-2.29-1-1.45-1.26,1.11-2.06,1.92-2.39.66-.27,1.43-.41,2.06-.72.67-.33.88-1.07,1.14-1.72C5.9,2.3,6.39-.25,7.73.03c.77.16.98,1.17,1.23,1.79.32.79.56,1.71,1.02,2.43.43.67,1.07.7,1.76.95.89.32,1.76.71,2.63,1.08.4.17.6.5.65.91ZM4.24,7.17s.02.05.03.07c.18.08.37.16.55.22,1.28.44,2.09,1.34,2.52,2.6.04.13.05.34.19.34.15,0,.16-.2.2-.32.46-1.35,1.38-2.24,2.72-2.71.1-.04.23-.05.33-.23-1.68-.46-2.78-1.51-3.25-3.24-.51,1.71-1.6,2.79-3.3,3.25Z"/>
  <path class="cls-1" d="M66.27,6.17c-.09,1.29-2.23,1.56-3.18,1.98-.54.24-.85.58-1.08,1.11-.08.19-.12.53-.26.69-.11.13-.18-.06-.3.07-.57.59-.71,3.22-2.23,2.17-.49-.33-.67-1.21-.88-1.73-.25-.62-.41-1.42-.9-1.91-.43-.43-1.13-.58-1.68-.8-.59-.24-1.54-.37-2.03-.78-.45-.38-.49-1.03-.1-1.46.45-.5,1.39-.57,1.99-.81.57-.22,1.44-.44,1.87-.89.5-.53.69-1.5.95-2.16.21-.51.38-1.29.93-1.55.67-.31,1.18.16,1.45.72.24.49.34,1.23.67,1.62.02.02.17-.14.25-.06.09.09.1.28.15.39.14.3.18.64.38.91.46.61,1.45.8,2.12,1.07.63.26,1.61.44,1.82,1.2.02.08.03.17.04.22ZM59.79,8.45c.07-.11.1-.14.12-.17.42-.97.98-1.46,1.92-1.88.37-.17.55-.15.1-.4-.4-.22-.77-.25-1.13-.58-.34-.32-.49-.89-.82-1.17-.21-.18.04-.24-.27-.15-.07.02-.25.54-.29.61-.21.35-.49.66-.82.91-.21.16-.97.38-1.01.61,1.06.37,1.8,1.09,2.22,2.22Z"/>
  <path class="cls-1" d="M19.92,63.84c-.73.05-.9-.17-1.44-.53-.12-.08-.27.03-.37-.09-.1-.11-.05-.6-.06-.73-.06-.89-.16-1.77-.27-2.65-.09-.7-.42-1.6-.31-2.31.09-.6.59-.91,1.17-.91.75,0,1.05.47,1.2,1.14.15.69.24,1.41.33,2.11.07.51-.1,1.66.46,1.8.61.16,1.72-.22,2.32-.33.91-.17,1.82-.35,2.73-.54,1.69-.34,3.34-.81,4.99-1.3.91-.27,3.14-1.37,3.79-.18.84,1.56-1.98,1.81-2.84,2.06-3.68,1.07-7.51,2.18-11.35,2.46-.14.01-.28,0-.33,0Z"/>
</svg>