<?xml version="1.0" encoding="UTF-8"?>
<svg id="Capa_1" data-name="Capa 1" xmlns="http://www.w3.org/2000/svg" viewBox="0 0 65.24 38.71">
  <defs>
    <style>
      .cls-1 {
        fill: #d4191e;
      }
    </style>
  </defs>
  <path class="cls-1" d="M34.66,15.86c-.63.58-1.28.82-2.01.81-1.95-.02-3.9-.04-5.86-.06-.3,0-.6.01-.89,0-.22-.01-.27.07-.27.28-.01,1.44-.03,2.87-.06,4.31-.02.71-.03.72.69.73,2.08.02,4.16.05,6.24.05,1.14,0,2.02.44,2.48,1.49.48,1.1.27,2.13-.54,3.01-.54.59-1.27.77-2.05.76-2.2-.02-4.39-.04-6.59-.07-.23,0-.3.06-.3.28,0,.49-.02.98-.03,1.46-.04,1.05-.67,1.72-1.71,1.76-.65.02-1.3,0-1.95-.03-.83-.06-1.43-.6-1.58-1.43-.04-.25-.14-.32-.39-.32-2.16-.01-4.32-.04-6.48-.06-1.75-.01-3.03-.8-3.98-2.24-.81-1.23-1.69-2.42-2.52-3.65-.2-.29-.42-.37-.74-.37-1.64,0-3.27-.02-4.91-.04-.19,0-.38,0-.56-.06-.41-.11-.64-.43-.62-.84.02-.42.29-.75.7-.82.27-.05.54-.03.81-.02,1.44.01,2.87.03,4.31.04.35,0,.35,0,.35-.36,0-.98-.01-1.95.05-2.93.01-.2-.07-.25-.25-.25-.68,0-1.36-.02-2.03-.02-.98,0-1.95-.01-2.93-.03-.52,0-.87-.29-.95-.72-.09-.48.21-.92.7-.99.22-.03.45-.03.68-.03,1.63.01,3.25.03,4.88.06.25,0,.41-.08.56-.28,1.03-1.42,2.06-2.84,3.12-4.23.73-.97,1.77-1.4,2.94-1.56.26-.04.52-.04.78-.04,2.12.02,4.25.04,6.37.07.23,0,.31-.07.36-.29.18-.88.79-1.39,1.7-1.43.67-.03,1.34-.02,2,.03.8.05,1.45.66,1.54,1.46.07.59.01,1.17,0,1.76,0,.23.05.31.3.31,1.61,0,3.22.03,4.83.05.7,0,1.39-.04,2.09.03,1.09.1,1.87.67,2.25,1.69.39,1.03.18,1.99-.49,2.73ZM11.4,26.33c.42.39.92.67,1.52.72.8.06,1.61,0,2.41.01,1.52.02,3.03.03,4.55.07.26,0,.32-.09.32-.33-.01-.49,0-.98,0-1.46.06-4.58.12-9.16.18-13.74,0-.23-.04-.34-.31-.34-2.16-.01-4.32-.03-6.48-.06-1.08-.02-1.91.42-2.54,1.3-.89,1.24-1.79,2.47-2.71,3.69-.25.34-.4.68-.39,1.11.01,1.23,0,2.46-.04,3.69,0,.32.08.57.26.83.67.95,1.32,1.91,2,2.86.39.55.74,1.13,1.21,1.65ZM23.65,28.88c.06-.14.04-.29.04-.44.03-2.7.06-5.4.1-8.1.05-3.48.09-6.96.15-10.43,0-.27-.07-.37-.35-.36-.37.02-.74.02-1.11,0-.25-.02-.3.08-.3.31,0,1.11-.02,2.22-.03,3.33-.06,5.13-.13,10.26-.2,15.4,0,.27.07.37.34.36.39-.02.78,0,1.17,0,.06,0,.13.01.19-.04ZM33.31,14.68c.25-.29.33-.6.19-.96-.15-.41-.46-.56-.86-.57-2.25-.02-4.5-.04-6.75-.07-.17,0-.22.06-.22.22,0,.42,0,.85-.03,1.27-.01.22.06.29.29.3,2.17.02,4.33.04,6.5.06.12,0,.23,0,.35-.01.21-.02.37-.12.52-.24ZM33.17,25.22c.25-.23.32-.51.24-.82-.11-.43-.39-.67-.89-.68-2.25-.03-4.5-.05-6.75-.07-.18,0-.24.06-.24.24,0,.39,0,.78,0,1.17,0,.38,0,.38.36.38,1.84,0,3.69.02,5.53.03.41,0,.81.06,1.22.02.22-.02.4-.1.54-.26Z"/>
  <path class="cls-1" d="M39.89,30.2c-.27-.26-.36-.77-.35-1.34.04-2.35.06-4.7.09-7.05.02-1.73.08-3.47.08-5.2,0-1.55.03-3.11.05-4.66,0-.76.03-1.52.06-2.28.03-.99.7-1.66,1.69-1.68.62-.01,1.25,0,1.87.02.88.02,1.52.56,1.68,1.43.04.24.13.32.38.32,2.22,0,4.45.01,6.67.06,1.51.04,2.72.72,3.59,1.95.97,1.37,1.92,2.75,2.87,4.13.11.15.24.17.4.17,1.61.01,3.22.03,4.82.04.23,0,.47.01.7.04.46.05.75.38.75.84,0,.46-.31.81-.77.86-.16.02-.32.01-.49.01-1.52-.01-3.04-.03-4.55-.05-.35,0-.35,0-.35.34,0,.97,0,1.93-.04,2.9,0,.25.07.3.3.3,1.62,0,3.23.03,4.85.05.53,0,.84.22.95.64.15.56-.23,1.06-.84,1.1-.38.02-.76.02-1.14.02-1.45-.01-2.91-.03-4.36-.05-.16,0-.27.05-.36.18-.97,1.34-1.96,2.66-2.93,4-.93,1.28-2.17,1.92-3.75,1.91-2.2-.02-4.39-.04-6.59-.07-.23,0-.33.06-.37.3-.16.86-.82,1.41-1.69,1.43-.61.01-1.23,0-1.84-.02-.46-.01-.89-.16-1.37-.65ZM53.73,26.7c.09-.1.19-.2.27-.31,1.02-1.39,2.04-2.78,3.06-4.18.13-.18.2-.37.2-.6,0-1.14,0-2.28.05-3.41.03-.67-.1-1.22-.52-1.77-.95-1.25-1.77-2.59-2.72-3.83-.48-.62-1.12-.97-1.9-.98-2.27-.03-4.54-.04-6.8-.06-.21,0-.28.07-.28.28-.02,1.54-.06,3.09-.07,4.63-.04,3.52-.12,7.05-.11,10.57,0,.16-.05.32.22.32,2.19.02,4.37.05,6.56.09.78.01,1.48-.18,2.06-.75ZM43.02,29.05c.06-.09.04-.21.04-.33.04-3.31.08-6.61.13-9.92.04-2.91.07-5.82.11-8.73,0-.24-.06-.34-.32-.33-.36.01-.72,0-1.08-.02-.26-.02-.35.05-.35.32-.04,3.93-.09,7.86-.14,11.79-.03,2.32-.06,4.64-.09,6.96,0,.25.07.34.32.33.39-.02.78,0,1.16-.01.07,0,.15,0,.22-.06Z"/>
  <path class="cls-1" d="M28.19,37.18c-.59-.67.19-1.88.45-2.56.25-.64.53-2.08,1.34-2.22.83-.14,1.13.68.93,1.32-.34,1.06-.84,2.11-1.26,3.14-.27.65-.97.81-1.46.32Z"/>
  <path class="cls-1" d="M42.75,37.31c-.84.8-1.42-.22-1.68-.92-.19-.51-.38-1.02-.57-1.54-.15-.42-.45-.95-.47-1.4-.06-1.05,1.22-1.27,1.68-.4.52,1.01.88,2.22,1.22,3.3.12.37.06.69-.18.95Z"/>
  <path class="cls-1" d="M41.94,1.56c.32-.31.75-.36,1.12-.11.45.32.39.75.24,1.22-.32,1-.72,2.26-1.28,3.15-.49.79-1.76.48-1.62-.51.07-.52.38-1.07.56-1.56.24-.63.48-1.25.76-1.86.06-.13.13-.26.23-.34Z"/>
  <path class="cls-1" d="M28.69,1.37c1.11-1.08,1.72,1.12,1.95,1.75.26.72,1.26,2.37.31,2.97-1.07.68-1.47-1.01-1.72-1.69-.29-.81-1.25-2.26-.54-3.04Z"/>
  <path class="cls-1" d="M36.17,38.4c-.77.71-1.54.13-1.57-.79-.03-1.05-.11-2.25.04-3.29.16-1.08,1.57-1.1,1.72,0,.15,1.1-.02,2.33-.03,3.44,0,.28-.04.54-.16.65Z"/>
  <path class="cls-1" d="M36.56.27c.33.3.22.89.21,1.28,0,.51,0,1.01-.01,1.52,0,.71.21,2.19-.89,2.17-1.16-.02-.85-1.59-.84-2.33,0-.75-.32-2.51.58-2.85.33-.13.7-.05.96.21Z"/>
</svg>